
<svg width="82px" height="73px" viewBox="0 0 82 73" version="1.1" xmlns="http://www.w3.org/2000/svg" xmlns:xlink="http://www.w3.org/1999/xlink">
  <g id="Landing-Page" stroke="none" stroke-width="1" fill="none" fill-rule="evenodd">
    <g id="MacBook-Pro-14&quot;" transform="translate(-839.000000, -98.000000)" fill="#F364A2">
      <g id="23" transform="translate(879.689100, 134.390595) rotate(27.000000) translate(-879.689100, -134.390595) translate(846.271292, 110.745903)">
        <path d="M12.5165808,41.1102307 C12.0499885,41.4789632 11.6411662,41.8869571 11.2907788,42.3839734 C11.0383492,42.742946 10.682495,43.0516402 10.27648,43.3097604 C9.8306465,43.5927979 9.49555112,44.0543235 9.0335391,44.3501524 C8.74801361,44.5326332 8.55158093,44.9776705 8.10818532,44.6328202 C7.90931478,44.7455028 7.71044425,44.8581855 7.46045245,45 C7.30651247,44.8125653 7.15535757,44.6325245 7.01031209,44.448417 C6.97941033,44.4092294 6.95645748,44.3118521 6.95034066,44.3137006 C6.44974391,44.4561066 6.17343059,43.8597907 5.67650541,43.9385354 C5.4063163,43.9814199 4.9941475,43.6849255 5.02413322,43.462296 C5.0847252,43.0124527 4.78454298,42.8185853 4.52935041,42.55455 C4.43051352,41.9943901 4.5804495,41.4768189 4.83319682,40.9639059 C5.08258283,40.4573516 5.24383641,39.9045116 5.51494157,39.411488 C6.06480531,38.4106532 6.65842501,37.4342921 7.24164315,36.4520899 C7.84349248,35.4383897 8.48671899,34.4538214 9.16939457,33.4909172 C9.79237943,32.6117116 10.3930542,31.7158698 11.0147831,30.8348158 C11.3936123,30.2979466 11.7635765,29.7543489 12.1331714,29.2107513 C12.1491283,29.1874606 12.1197262,29.1341508 12.0928358,29.0080113 C11.9034212,29.1611384 11.7580359,29.3690541 11.5836179,29.3969291 C11.3544588,29.4339724 11.1647487,29.4238428 11.1384493,29.7102075 C10.7461749,29.5794838 10.6880356,30.1910311 10.3067686,30.0850769 C10.1993548,30.325156 9.9640641,30.48686 9.76541519,30.550891 C9.53226681,30.6265303 9.32999804,30.6253473 9.24829269,30.9156308 C9.22539155,30.9977028 9.0032505,31.1058013 8.91969828,31.0745991 C8.55431429,30.9376646 8.56170176,31.4111683 8.31658569,31.416344 C8.02005287,31.4224809 7.86218276,31.5492858 7.83861675,31.8439317 C7.45860559,31.9180183 7.24194603,32.2481548 6.92922728,32.4315968 C6.65965132,32.5893082 6.34968071,32.766983 6.20617183,33.0202232 C6.1143752,33.1828884 6.04124669,33.241374 5.89406624,33.2909868 C5.41396971,33.4535781 5.09726911,33.8633467 4.66460011,34.1098584 C4.22825953,34.3582926 3.86535034,34.7346408 3.46573285,35.0497677 C2.96359951,35.4460794 2.45902832,35.8395814 1.95230737,36.2304215 C1.64815069,36.4649552 1.3137054,36.3489453 1.04871706,36.2040254 C0.847681992,36.0940785 0.726817905,35.9057565 0.467644973,36.0846143 C0.433067946,36.1082008 0.264467542,35.9382156 0.104740961,35.8172519 C0.254676197,35.7128503 0.385333846,35.6222014 0.516603176,35.5311829 C0.494878121,35.4944353 0.473458168,35.457392 0.451427272,35.4206444 C0.322605409,35.4681131 0.194090125,35.5155818 0.0466029463,35.5697789 C0.0349752992,35.5214229 -0.0164309621,35.4347667 0.00529433665,35.3744327 C0.0576185421,35.2301782 0.117592193,35.0727627 0.221323273,34.9658472 C0.802396836,34.3664998 1.36970238,33.7499986 1.99300491,33.1972325 C3.04193619,32.2668613 4.11136768,31.3566754 5.20742359,30.4822758 C5.95709608,29.8838896 6.72268856,29.3019917 7.48645633,28.7225338 C8.17371213,28.2009699 8.89155204,27.702401 9.59254852,27.1979909 C10.4915291,26.5511747 11.4086089,25.9383704 12.3375825,25.3405757 C12.9281364,24.9605306 13.5336868,24.6043677 14.1334751,24.2386666 C14.5303297,23.9970348 14.9715829,24.0864268 15.3987261,24.0689772 C15.6961454,24.2303855 15.8558624,24.5341998 16.268009,24.6125749 C16.7374085,24.7023365 17.6079473,25.972678 17.6762075,26.4954989 C17.7266638,26.8825682 17.5158256,27.252188 17.3977739,27.6246174 C17.1912204,28.2769789 16.9011147,28.8815021 16.4540992,29.4055059 C16.4060068,29.462143 16.3435828,29.5595203 16.3619776,29.6115732 C16.5155629,30.0434494 16.0027252,30.1925839 15.9801195,30.5441626 C15.5391618,30.8010997 15.3365975,31.2604811 15.0453098,31.6448147 C14.9954444,31.7106941 14.8770234,31.7640039 14.8773189,31.8227852 C14.8834504,32.5927094 14.2686657,33.0245116 13.9241882,33.6015296 C13.8167745,33.7815704 13.6671045,33.9392817 13.5799324,34.127308 C13.5196507,34.2565529 13.5336868,34.4198096 13.5147011,34.567761 C13.6346735,34.5824009 13.7102472,34.6152297 13.7372115,34.5916433 C14.3112175,34.0915216 14.8531618,33.5497724 15.4559051,33.0885426 C16.2411186,32.4882339 16.9243852,31.7667397 17.7704715,31.2360074 C18.1746397,30.9821017 18.4775996,30.5812059 18.8787389,30.2896654 C19.6182979,29.7525005 20.2492613,29.0612472 21.0026349,28.5476687 C22.297288,27.6656534 23.3801425,26.504963 24.7598253,25.7417673 C25.1187822,25.1702948 25.7904505,24.9608263 26.2270496,24.4751227 C26.3445842,24.3440293 26.5334078,24.2788154 26.6824129,24.1737484 C26.8990134,24.0212128 27.112585,23.8643887 27.3215763,23.7017974 C28.1636734,23.0469959 29.0014857,22.386723 29.8447648,21.7338439 C30.2009883,21.458496 30.5764192,21.2073261 30.9273976,20.9256195 C31.9184999,20.1302604 32.9674459,19.4151249 33.9937125,18.6684915 C34.5276784,18.2801652 34.9955265,17.8045912 35.6243474,17.5564528 C36.0637538,16.9142948 36.7810027,16.6163217 37.3690449,16.159676 C38.0801622,15.6077973 38.8121122,15.0825364 39.5385215,14.5502514 C40.4767295,13.862769 41.4167104,13.1779484 42.3588338,12.4959374 C42.9570706,12.063174 43.5586318,11.6347729 44.1623354,11.2093294 C44.8942854,10.6936066 45.6433743,10.2036146 46.3660899,9.67258655 C47.4649013,8.86554518 48.6151295,8.12844986 49.7472584,7.36739838 C51.1606281,6.41707112 52.5731113,5.46522812 53.9953459,4.52809153 C54.7789342,4.01174033 55.5778885,3.51805874 56.3762518,3.0246803 C57.32724,2.43697821 58.2746085,1.84131291 59.2439915,1.2845394 C59.9428457,0.88334778 60.6631234,0.523805858 61.3256312,0.0555370164 C61.4874906,-0.0586946434 61.7983551,0.0386937709 62.1374397,0.0386937709 C62.0480514,0.177735576 62.0086023,0.282469804 61.9342105,0.347092265 C61.7105181,0.541869093 61.4727895,0.721340602 61.1983452,0.940613336 C61.7931838,1.2177801 62.1802131,0.40895681 62.674139,0.706944729 C62.5201842,0.860988705 62.3540401,1.02698118 62.1878961,1.19297366 C62.219145,1.24227601 62.2500246,1.29158576 62.2811997,1.34088811 C62.4577601,1.28974468 62.634025,1.23860125 62.8684293,1.17061458 C62.9081738,1.47809623 62.9470319,1.77853153 63,2.19167164 C62.7915996,2.35765672 62.5208491,2.72210078 62.180878,2.80601386 C61.768362,2.90769442 61.6395985,3.41699187 61.1659142,3.37472849 C61.0425436,3.36370422 61.1255048,3.79307389 60.819516,3.6892565 C60.4915126,3.57747591 60.6812227,4.10913244 60.3874233,4.02552251 C60.1132745,3.94742841 60.0961355,4.31217562 60.0285402,4.30972824 C59.6013971,4.29564291 59.484749,4.71613254 59.1778737,4.86251646 C58.8507568,5.01871206 58.5398923,5.22451315 58.2553272,5.4505291 C58.0013462,5.65204175 57.7540877,5.82170898 57.423942,5.87254926 C57.3073678,5.89030934 57.1228289,6.00944684 57.1158108,6.09427676 C57.0925403,6.3778688 56.9172358,6.33499173 56.7299636,6.37970988 C56.5952901,6.41186584 56.5111469,6.64155654 56.3741094,6.68412307 C56.2143924,6.73344761 56.0322914,6.68872206 56.0782415,6.94809178 C55.5084463,6.97995937 55.3677151,7.77406147 54.7354959,7.70699903 C54.6740322,7.70056636 54.5754835,7.76674153 54.5412056,7.82611434 C54.1403618,8.52106458 53.3949667,8.78347317 52.7973947,9.22998924 C51.9265604,9.88050229 51.0572036,10.5331596 50.1823801,11.1775357 C49.4804232,11.6944415 48.7812736,12.2160053 48.060331,12.7059974 C47.6772909,12.9663357 47.3994484,13.433037 46.8391831,13.3849769 C46.8006206,13.3816496 46.7329514,13.439174 46.7176593,13.4823542 C46.4113751,14.3472156 45.4159881,14.3080281 44.8872673,14.8813491 C44.7988394,14.9775434 44.6473225,15.0231636 44.5769938,15.1272694 C43.9506107,16.055866 42.903807,16.4827883 42.10766,17.2113068 C41.5231638,17.7460317 40.8398972,18.1720668 40.2098943,18.6580661 C39.4277834,19.2611105 38.6569754,19.878499 37.8770069,20.4836876 C37.7984043,20.5446131 37.6906951,20.5697523 37.5939932,20.6040599 C36.8030174,20.883918 36.2497702,21.5169815 35.5741127,21.9693388 C35.425403,22.0691561 35.2849673,22.236997 35.2253505,22.403581 C35.0894212,22.7833304 34.7369652,22.9738705 34.4499622,23.0345003 C34.1439735,23.0984573 33.9728798,23.2525456 33.7703155,23.4268193 C33.3716141,23.7698211 32.8979299,24.0365181 32.6607923,24.540041 C31.9377811,24.9920285 31.3052664,25.5717822 30.6501461,26.1046587 C30.1107135,26.5438548 29.4724366,26.8838251 29.0440375,27.4748914 C28.7625012,27.8625523 28.2983469,28.064405 27.8610828,28.2264048 C27.6786864,28.2941327 27.5042683,28.3333202 27.3858473,28.4873346 C27.2579703,28.6533271 27.1829875,28.8885263 27.0198723,28.9920405 C26.840874,29.1053886 26.7426946,29.2472031 26.6138572,29.3990733 C26.2518715,29.8259956 25.8519142,30.2387956 25.2234626,30.2538051 C25.1732278,30.2550621 25.114202,30.2682232 25.0759349,30.2976508 C24.8008258,30.5101508 24.5059182,30.7040181 24.2653824,30.9514911 C23.9853975,31.2387431 23.6065683,31.4509473 23.4881472,31.8785351 C23.475293,31.9250425 23.4156762,31.9611986 23.3734199,31.9970589 C23.0236974,32.2931835 22.6772992,32.5938924 22.3207801,32.8815141 C21.963744,33.1693576 21.6944709,33.5380901 21.2874955,33.7959885 C20.9150934,34.0314833 20.5662574,34.3371461 20.1941508,34.595636 C19.9741521,34.7319051 19.6394261,34.8191528 19.5561694,35.0139814 C19.3043307,35.6034949 18.5366254,35.620353 18.3246052,36.2157077 C17.7499343,36.3621064 17.4953623,36.9378674 17.0072726,37.201533 C16.8711216,37.2750281 16.6798601,37.3237537 16.6159586,37.4401333 C16.2717027,38.0685387 15.5110155,38.2657333 15.1621795,38.8800903 C14.6677365,38.9915899 14.4241718,39.3894543 14.1129379,39.7357834 C13.8791986,39.9961217 13.5150704,40.1388235 13.2090817,40.3335781 C13.1934202,40.7850481 12.7133828,40.8211302 12.5165808,41.1102307" id="Path"></path>
        <path d="M65.8353131,9.51872448 C66.0972045,9.46006571 66.3590959,9.40133354 66.7420217,9.3152909 C66.5952323,9.48465981 66.5457478,9.54214393 66.4801303,9.61783502 C66.5784481,9.65131236 66.6710506,9.68295432 66.767198,9.71547726 C66.8340455,9.978524 66.9275161,10.2877489 66.6288007,10.4276783 C66.4759342,10.4991113 66.2344443,10.375994 66.0103173,10.4316427 C66.1113119,10.4814917 66.2125959,10.5313406 66.3258169,10.5869893 C65.9893371,10.9996563 65.5395638,11.0671249 65.0468896,10.9941501 C65.0282968,11.180845 65.0151298,11.311671 64.996537,11.4959432 C64.6426942,11.1881866 64.3720489,11.5689179 63.9780542,11.539405 C64.064652,11.7114903 64.1200688,11.8222004 64.175775,11.9329106 C64.0481572,12.0174115 63.9099769,12.1420705 63.7485013,12.2080708 C63.5177185,12.3023359 63.3523363,12.7152965 63.0170139,12.3872039 C63.0011702,12.372007 62.933744,12.3899203 62.9061803,12.4124588 C62.8425885,12.4638494 62.7988916,12.5517274 62.7293674,12.581534 C62.4740595,12.6903354 62.167169,12.7265291 61.9652521,12.8953107 C61.7863412,13.0449309 61.7417039,13.3490167 61.5975189,13.5567084 C61.5139597,13.6771093 61.3610932,13.7625647 61.2224065,13.8255549 C61.0749659,13.8927298 60.5295517,14.1675964 60.4555421,14.3482713 C60.3746596,14.544657 60.2481993,14.4628724 60.1358464,14.4975244 C59.9920231,14.5419406 59.8346712,14.579676 59.7189905,14.6690224 C59.6312351,14.736858 59.5997648,14.8803848 59.5473141,14.9825788 C59.4085551,14.8582134 59.2734133,14.7365644 59.0369876,14.524321 C59.0711347,14.8499909 58.7669934,14.8983715 58.9063312,15.2152316 C58.9890224,15.4033948 58.478117,15.6895673 58.167971,15.5636602 C57.9558534,15.4773239 57.9722759,15.6646062 57.8725112,15.69199 C58.0399914,16.193416 57.5986103,16.2268933 57.3403362,16.3920042 C57.212646,16.4737887 56.8189407,16.7444706 56.7634516,16.8143619 C56.7146182,16.8749295 56.6520392,16.923824 56.6004567,16.9730856 C56.533971,16.9183913 56.4779031,16.8554744 56.4086682,16.8214098 C56.3688058,16.8019547 56.3068055,16.8292652 56.2214376,16.8396168 C56.2717178,16.9493725 56.317585,17.0500248 56.3604137,17.1437026 C56.3346586,17.2014804 56.3269176,17.268068 56.2909618,17.2914874 C56.0125755,17.4730433 55.7095917,17.6214154 55.4503771,17.826978 C54.8289275,18.3195942 54.2289646,18.8398878 53.6174264,19.3455719 C52.8580859,19.9729049 52.0819613,20.5774792 51.378327,21.2738226 C51.0492987,21.5997862 50.846152,21.835449 50.744868,22.3152909 C50.4302366,22.1495928 50.0733552,22.1571545 49.8003949,21.8716427 C49.5594114,21.6195349 49.3260241,21.919069 49.0550895,22.023392 C48.9220457,21.4288755 49.421014,21.3222032 49.6523032,21.0448405 C49.575038,20.9667267 49.4979899,20.8885395 49.4273081,20.8164458 C49.2657602,20.9347911 49.1051527,21.051815 48.9059126,21.1974708 C48.8716931,21.053063 48.8162763,20.9596789 48.8423931,20.9077009 C49.1372019,20.3181033 49.621484,19.8944975 50.1035957,19.4724334 C50.2402568,19.353207 50.4083882,19.2701744 50.5407808,19.1470571 C51.6012964,18.1599895 52.7750331,17.3261394 53.9362539,16.4680623 C55.0203542,15.6671023 56.1650803,14.961582 57.2456357,14.1603283 C57.5584585,13.9286299 57.9855151,13.8808366 58.2126083,13.5223501 C59.2629232,13.1613674 59.971911,12.2041064 61.0557943,11.8964232 C61.2035243,12.1256989 61.0249027,12.1499994 60.8250115,12.2104935 C60.7060752,12.2466872 60.7512913,12.429124 60.5646394,12.529189 C59.7774458,12.9519138 59.0378557,13.4664077 58.2836518,13.9516823 C58.2335885,13.983985 58.2048673,14.0505726 58.0684957,14.2287513 C58.3022446,14.1457187 58.3873232,14.0988798 58.4765978,14.0863992 C58.7975233,14.043231 58.9344737,13.6972251 59.2818054,13.639741 C59.558383,13.5937831 59.8215043,13.3456396 60.049538,13.1404441 C60.5367863,12.701935 61.1495544,12.4902789 61.6943175,12.1569738 C62.0623401,11.9319562 62.3751629,11.6196478 62.8099605,11.4864726 C62.9786707,11.4347883 63.0850189,11.1759996 63.2198713,11.0114761 C63.4997768,10.845778 63.7859764,10.6897706 64.0574175,10.5110046 C64.3067207,10.3473621 64.6055085,10.3239426 64.8278268,10.0360081 C65.0460215,9.75321269 65.5338485,9.7759714 65.8353131,9.51872448" id="Path"></path>
        <path d="M31.900955,31.8705667 C32.1540247,31.6922582 32.5273545,31.5681722 32.6304038,31.3220112 C32.7754044,30.9758961 33.0480513,30.875942 33.2826911,30.6954736 C33.5262949,30.5081528 33.7989419,30.3629141 34.0496451,30.1857973 C34.3045076,30.0059247 34.5753617,29.8375222 34.790998,29.6144504 C35.2555448,29.1344178 35.78162,28.7435394 36.3254796,28.3736647 C36.4493253,28.2888304 36.5999193,28.2465249 36.7273506,28.1657126 C36.8542081,28.0849003 37.0225866,28.0062479 37.0760834,27.8819384 C37.3416308,27.2649345 37.9110197,27.0344145 38.4085538,26.7237526 C38.6951844,26.5448482 38.8855783,26.6367583 39.1938659,26.9696902 C39.0863704,27.3800082 38.5912028,27.49322 38.5018504,27.9365333 C38.4878666,28.0049817 38.2279844,28.0206973 38.0815496,28.0592787 C37.8578816,28.1188638 38.0117026,28.5476533 37.7072875,28.4979742 C37.439015,28.4541791 37.4456124,28.6670469 37.3437105,28.8021562 C37.3122292,28.8440893 37.1280742,28.7626811 36.9819262,28.7308775 C36.8975218,28.9052385 36.7894527,29.127342 36.6828178,29.3472856 L36.4125373,29.3472856 C36.2250836,29.582051 36.0828081,29.9266765 35.8918405,29.9593738 C35.6045644,30.0083826 35.6758456,30.4940014 35.3244595,30.363212 C35.280859,30.347124 35.1854827,30.4143807 35.145396,30.4680818 C35.0690233,30.5707917 35.0346018,30.7682419 34.9493369,30.7908098 C34.6163807,30.8792937 34.4936824,31.2665225 34.2013865,31.3547085 C33.6441886,31.5228875 33.2729384,31.9886942 32.7721056,32.2407393 C32.6717096,32.2910143 32.5642141,32.4474252 32.5600549,32.5591473 C32.5460711,32.9074224 32.3702347,32.9784032 32.0767914,33.0761972 C31.8536971,33.1505297 31.6401404,33.4472636 31.5441905,33.695957 C31.4156119,34.0276227 31.0065698,33.7119705 30.9195121,34.0732798 C30.8761984,34.2540462 30.7790293,34.5320108 30.5162069,34.2346066 C30.4398342,34.3138548 30.295479,34.3962312 30.2981324,34.4721278 C30.3144826,34.875668 29.994291,34.663396 29.8428364,34.7630521 C29.7258033,34.8719439 30.0982726,34.9555866 29.8377449,35.1304689 C29.4444793,35.394282 29.134399,35.7922362 28.7375478,36.0467392 C28.5929058,36.1396175 28.5186128,36.1960744 28.4654746,36.3524853 C28.4337064,36.4453637 28.2988172,36.5847928 28.2433125,36.569971 C27.7763993,36.4456616 27.5654959,36.8056302 27.2942832,37.0626655 C27.2841719,37.0721992 27.1829153,36.9781292 27.1041762,36.9167565 C26.9797568,37.0987146 27.1421832,37.4988287 26.7373721,37.4942108 C26.6809352,37.493615 26.6042757,37.5948352 26.5686351,37.6660394 C26.227934,38.3426285 26.2335992,38.3485125 25.657326,38.7720883 C25.5534161,38.8485807 25.6077734,39.3103654 25.2973345,38.9457789 C25.2935338,38.9410866 25.1164782,39.0407427 25.1040004,39.1082974 C24.9979392,39.6818042 24.5027717,39.9126221 24.1692417,40.2843588 C23.7332361,40.2176979 23.6120438,40.6517756 23.3393251,40.8449058 C23.1602616,40.9716732 22.9597564,41.0161386 22.9629834,41.3545076 C22.9653499,41.5918054 22.663875,41.7006972 22.3662725,41.591433 C22.4770667,41.4091025 22.5857812,41.2301982 22.7254034,41.0003485 C22.6042111,41.0099566 22.5507143,40.9975927 22.5311371,41.0188944 C22.426295,41.1321061 22.3041704,41.200927 22.2044197,41.0497297 C22.1705002,40.9981886 22.223997,40.8125064 22.2845931,40.7779471 C22.6807989,40.5530132 22.8566354,40.1514095 23.0723434,39.7795983 C23.3942561,39.8052199 23.3942561,39.8052199 23.5107155,40.0677669 C23.529719,40.0801308 23.5653596,40.1038903 23.5656464,40.10322 C23.7150931,39.8737428 24.1704608,39.9545551 24.1101515,39.4365369 C23.9330959,39.5198816 23.8392256,39.6728664 23.6248084,39.854899 C23.6764406,39.6494048 23.6767992,39.5177217 23.7379691,39.4353452 C23.8326999,39.3079075 23.9622108,39.2039315 24.0899288,39.1086698 C24.3364728,38.9244773 24.5245002,38.6748901 24.5954946,38.3882856 C24.6545848,38.1507644 24.7107349,38.0017271 24.9501077,37.9165949 C25.0740251,37.8724274 25.1568518,37.7040249 25.2584669,37.591707 C25.631223,37.6762434 25.7271729,37.1796014 26.0601292,37.1798993 C26.0416993,36.7347239 26.4635061,36.6902585 26.6898274,36.5687049 C26.9987603,36.4027603 27.0528308,36.0448771 27.3670703,35.8903282 C27.730002,35.7123177 28.0419468,35.4087314 28.3514534,35.130171 C28.9276549,34.6106632 29.484566,34.0682896 30.0543134,33.5407378 C30.1270289,33.4731831 30.2363888,33.4488277 30.310897,33.3825393 C30.5114022,33.2048266 30.6937644,33.0039503 30.8993612,32.8330899 C31.0645126,32.6954483 31.2195528,32.4983705 31.3636211,32.4079501 C31.5979741,32.2607748 31.7749579,32.109652 31.900955,31.8705667" id="Path"></path>
        <path d="M20.2419765,41.9076613 C20.5623104,41.9790756 20.6647749,41.7062436 20.8603958,41.5770811 C21.0237034,41.4690837 21.0876491,41.1831462 21.4606531,41.3308806 C21.2992375,41.4130175 21.1637785,41.4821191 20.9148821,41.6092491 C21.2098649,41.7692479 21.3487292,41.8450073 21.4722315,41.9120064 C21.228027,42.2632609 20.7387855,42.3857655 21.0083413,42.9907194 C20.7863853,42.8023371 20.7271315,42.7515272 20.6346561,42.6731747 C20.613694,43.2278793 20.3005492,43.5184422 19.6940109,43.5379252 C19.7699133,43.6078678 19.8100213,43.6450116 19.8999993,43.7286203 C19.4768225,44.1205228 19.0351808,44.5002309 18.6311498,44.9118266 C18.2411945,45.3086349 17.7215315,45.5966048 17.4682459,46.117109 C17.4284406,46.1995263 17.1761388,46.1934291 16.9936855,46.2343574 C17.0497609,46.2996745 17.0946364,46.3522365 17.1413282,46.4064805 C17.0287988,46.6544332 16.7288215,46.7562633 16.6196976,47.0526431 C16.4952872,47.3908623 16.2990609,47.3484622 15.933246,47.0410795 C15.8630949,46.9818596 15.6652794,47.0529935 15.4722315,47.0683416 C15.4925882,47.0044963 15.4950854,46.8787679 15.5631176,46.8056716 C15.6922199,46.6669079 15.8568139,46.556878 15.7966519,46.3408831 C16.0085431,46.1229259 16.4495036,46.0482878 16.3241852,45.6169288 C16.3204014,45.604454 16.3589202,45.5673102 16.3815471,45.5643667 C16.9174803,45.4935832 17.0350799,44.974831 17.4183758,44.7214119 C17.8516175,44.4349138 18.1409246,43.9657802 18.5123394,43.5930803 C19.0799806,43.0235181 19.6645731,42.4688135 20.2419765,41.9076613" id="Path"></path>
        <path d="M31.293851,32.0504765 C31.1611482,32.3007915 30.9745631,32.4590124 30.7275968,32.6131004 C30.5757744,32.7077679 30.4123897,32.9141023 30.2383495,33.0582089 C30.0217627,33.2370945 29.8295854,33.4474059 29.6182886,33.6334656 C29.5396947,33.7028676 29.4245243,33.728367 29.3478196,33.7990946 C28.7474828,34.3514253 28.1605221,34.9192739 27.5533083,35.4631827 C27.2271434,35.754827 26.8984847,36.0726725 26.5159438,36.2590441 C26.1847913,36.4208521 26.1278106,36.7955449 25.8023259,36.9692838 C25.563748,37.0965468 25.1193143,37.1431007 25.1386605,37.6091857 C24.7877839,37.6088738 24.6866698,38.1288428 24.293851,38.0403358 C24.2935489,37.519353 24.7167471,37.2451762 25.0338434,37.0588045 C25.5713051,36.7425966 25.9099392,36.2193524 26.429566,35.8840395 C27.034286,35.4939067 27.5110641,34.8979854 28.0656804,34.4189557 C28.9700397,33.6383004 29.8871706,32.873085 30.8142768,32.121828 C30.9241572,32.0326971 31.1313732,32.0711411 31.293851,32.0504765" id="Path"></path>
        <path d="M20.1366765,41.5421366 C19.5607914,42.0978117 18.9777362,42.6471021 18.4115876,43.211105 C18.0411493,43.5801671 17.752603,44.0447217 17.320576,44.3284234 C16.9382125,44.579369 16.8209977,45.0930579 16.2863982,45.1631505 C16.2639062,45.1660653 16.2254133,45.2028466 16.2291871,45.2151995 C16.3542515,45.6423483 15.914375,45.7162579 15.703041,45.9320877 C15.4951035,46.0812948 15.2875434,46.2305019 15.0537174,46.3983773 C15.0427734,46.3063547 14.9962044,46.2017015 15.0308481,46.1681125 C16.0044183,45.22207 16.7480874,44.0826134 17.867931,43.2674567 C18.0664339,43.1231075 17.9432564,42.8118545 18.310902,42.7701459 C18.4753651,42.7514777 18.5835228,42.4318275 18.749571,42.2777624 C18.9202231,42.1187701 19.1403123,42.0055115 19.319116,41.8526262 C19.4851641,41.7102896 19.6192857,41.5367235 19.778088,41.3866836 C19.9506271,41.2236662 20.13011,41.0658536 20.3170651,40.9166465 C20.5145869,40.7588339 20.7247132,40.6142765 21.018241,40.3983773 C20.9047999,40.9807709 20.3111025,41.1279654 20.1366765,41.5421366" id="Path"></path>
        <path d="M12.1853045,40.5983477 C12.3902945,40.3320835 12.8905688,40.2988516 12.9068879,39.8830437 C13.2257271,39.7036729 13.6051473,39.5722433 13.8487028,39.3324694 C14.1729304,39.0134972 14.426724,38.6470606 14.9420087,38.5443684 C15.3054946,37.9785401 16.0981279,37.7969221 16.4568413,37.2181552 C16.5234265,37.1109685 16.7227202,37.0660918 16.864589,36.9984021 C17.3731768,36.7555638 17.6384399,36.2252828 18.2372448,36.0904483 C18.4581691,35.5421212 19.2581152,35.5265948 19.5205302,34.9836475 C19.6072834,34.8042086 19.9560667,34.7238527 20.1853045,34.5983477 C20.1451225,34.7105736 20.1435829,34.8623645 20.0574455,34.9288965 C19.7233649,35.1881465 19.4855056,35.5293868 19.0445037,35.7054208 C18.6449926,35.8647707 18.4396946,36.2579699 18.0251729,36.4698236 C17.4767879,36.750184 17.0387112,37.2003815 16.5549871,37.5791439 C16.0283097,37.9918193 15.5277275,38.4343898 14.9722607,38.8134927 C14.1516078,39.3739412 13.3586666,39.9583604 12.6026744,40.5983477 L12.1853045,40.5983477 Z" id="Path"></path>
        <path d="M65.7308179,9.63352241 C65.4256997,9.88071237 64.9319602,9.85884339 64.7111211,10.130583 C64.4861083,10.4072608 64.1836992,10.4297647 63.9313744,10.5870097 C63.6566435,10.758787 63.3669752,10.9086952 63.0836773,11.0679155 C62.6072183,11.1395187 62.2914828,11.5056477 61.8720642,11.6850438 C61.6421455,11.7835248 61.4368295,11.9354789 61.1101838,12.1283491 C61.145111,11.9126928 61.1235103,11.7683576 61.1853834,11.7162953 C61.3992663,11.5360526 61.6291118,11.3654041 61.876604,11.2312979 C62.8735286,10.690711 63.8801187,10.1659261 64.8815831,9.63267587 C65.1051315,9.51373687 65.3141085,9.36707365 65.5442469,9.26358402 C65.6950121,9.1957902 65.8721374,9.18266882 66.1101838,9.12834911 C65.939136,9.35620971 65.83516,9.49504242 65.7308179,9.63352241" id="Path"></path>
      </g>
    </g>
  </g>
</svg>
