<?xml version="1.0" encoding="UTF-8"?>
<svg width="729px" height="729px" viewBox="0 0 729 729" version="1.1" xmlns="http://www.w3.org/2000/svg" xmlns:xlink="http://www.w3.org/1999/xlink">
    <title>Group 2</title>
    <g id="ART" stroke="none" stroke-width="1" fill="none" fill-rule="evenodd">
        <g id="Artboard" transform="translate(-458.000000, -90.000000)">
            <g id="Group-2" transform="translate(458.000000, 90.000000)">
                <circle id="Oval" fill="#870557" cx="364.5" cy="364.5" r="364.5"></circle>
                <g id="Capital-Region-Menst" transform="translate(139.904000, 193.512000)" fill="#FFE3EC" fill-rule="nonzero">
                    <path d="M0,39.512 C0,33.4106667 1.32,27.9693333 3.96,23.188 C6.6,18.4066667 10.2813333,14.6813333 15.004,12.012 C19.7266667,9.34266667 25.08,8.008 31.064,8.008 C38.3973333,8.008 44.6746667,9.944 49.896,13.816 C55.1173333,17.688 58.608,22.968 60.368,29.656 L43.824,29.656 C42.592,27.0746667 40.8466667,25.1093333 38.588,23.76 C36.3293333,22.4106667 33.7626667,21.736 30.888,21.736 C26.2533333,21.736 22.4986667,23.3493333 19.624,26.576 C16.7493333,29.8026667 15.312,34.1146667 15.312,39.512 C15.312,44.9093333 16.7493333,49.2213333 19.624,52.448 C22.4986667,55.6746667 26.2533333,57.288 30.888,57.288 C33.7626667,57.288 36.3293333,56.6133333 38.588,55.264 C40.8466667,53.9146667 42.592,51.9493333 43.824,49.368 L60.368,49.368 C58.608,56.056 55.1173333,61.3213333 49.896,65.164 C44.6746667,69.0066667 38.3973333,70.928 31.064,70.928 C25.08,70.928 19.7266667,69.5933333 15.004,66.924 C10.2813333,64.2546667 6.6,60.544 3.96,55.792 C1.32,51.04 0,45.6133333 0,39.512 Z" id="Path"></path>
                    <path d="M65.8302857,45.848 C65.8302857,40.8026667 66.783619,36.3733333 68.6902857,32.56 C70.5969524,28.7466667 73.1929524,25.8133333 76.4782857,23.76 C79.763619,21.7066667 83.4302857,20.68 87.4782857,20.68 C90.939619,20.68 93.975619,21.384 96.5862857,22.792 C99.1969524,24.2 101.206286,26.048 102.614286,28.336 L102.614286,21.384 L117.662286,21.384 L117.662286,70.488 L102.614286,70.488 L102.614286,63.536 C101.147619,65.824 99.1089524,67.672 96.4982857,69.08 C93.887619,70.488 90.851619,71.192 87.3902857,71.192 C83.4009524,71.192 79.763619,70.1506667 76.4782857,68.068 C73.1929524,65.9853333 70.5969524,63.0226667 68.6902857,59.18 C66.783619,55.3373333 65.8302857,50.8933333 65.8302857,45.848 Z M102.614286,45.936 C102.614286,42.1813333 101.572952,39.2186667 99.4902857,37.048 C97.407619,34.8773333 94.8702857,33.792 91.8782857,33.792 C88.8862857,33.792 86.3489524,34.8626667 84.2662857,37.004 C82.183619,39.1453333 81.1422857,42.0933333 81.1422857,45.848 C81.1422857,49.6026667 82.183619,52.58 84.2662857,54.78 C86.3489524,56.98 88.8862857,58.08 91.8782857,58.08 C94.8702857,58.08 97.407619,56.9946667 99.4902857,54.824 C101.572952,52.6533333 102.614286,49.6906667 102.614286,45.936 Z" id="Shape"></path>
                    <path d="M142.836571,28.336 C144.303238,26.048 146.327238,24.2 148.908571,22.792 C151.489905,21.384 154.511238,20.68 157.972571,20.68 C162.020571,20.68 165.687238,21.7066667 168.972571,23.76 C172.257905,25.8133333 174.853905,28.7466667 176.760571,32.56 C178.667238,36.3733333 179.620571,40.8026667 179.620571,45.848 C179.620571,50.8933333 178.667238,55.3373333 176.760571,59.18 C174.853905,63.0226667 172.257905,65.9853333 168.972571,68.068 C165.687238,70.1506667 162.020571,71.192 157.972571,71.192 C154.569905,71.192 151.563238,70.488 148.952571,69.08 C146.341905,67.672 144.303238,65.8533333 142.836571,63.624 L142.836571,93.896 L127.788571,93.896 L127.788571,21.384 L142.836571,21.384 L142.836571,28.336 Z M164.308571,45.848 C164.308571,42.0933333 163.267238,39.1453333 161.184571,37.004 C159.101905,34.8626667 156.535238,33.792 153.484571,33.792 C150.492571,33.792 147.955238,34.8773333 145.872571,37.048 C143.789905,39.2186667 142.748571,42.1813333 142.748571,45.936 C142.748571,49.6906667 143.789905,52.6533333 145.872571,54.824 C147.955238,56.9946667 150.492571,58.08 153.484571,58.08 C156.476571,58.08 159.028571,56.98 161.140571,54.78 C163.252571,52.58 164.308571,49.6026667 164.308571,45.848 Z" id="Shape"></path>
                    <path d="M194.322857,16.28 C191.682857,16.28 189.526857,15.5026667 187.854857,13.948 C186.182857,12.3933333 185.346857,10.472 185.346857,8.184 C185.346857,5.83733333 186.182857,3.88666667 187.854857,2.332 C189.526857,0.777333333 191.682857,0 194.322857,0 C196.90419,0 199.030857,0.777333333 200.702857,2.332 C202.374857,3.88666667 203.210857,5.83733333 203.210857,8.184 C203.210857,10.472 202.374857,12.3933333 200.702857,13.948 C199.030857,15.5026667 196.90419,16.28 194.322857,16.28 Z M201.802857,21.384 L201.802857,70.488 L186.754857,70.488 L186.754857,21.384 L201.802857,21.384 Z" id="Shape"></path>
                    <path d="M239.297143,57.728 L239.297143,70.488 L231.641143,70.488 C226.185143,70.488 221.93181,69.1533333 218.881143,66.484 C215.830476,63.8146667 214.305143,59.4586667 214.305143,53.416 L214.305143,33.88 L208.321143,33.88 L208.321143,21.384 L214.305143,21.384 L214.305143,9.416 L229.353143,9.416 L229.353143,21.384 L239.209143,21.384 L239.209143,33.88 L229.353143,33.88 L229.353143,53.592 C229.353143,55.0586667 229.705143,56.1146667 230.409143,56.76 C231.113143,57.4053333 232.286476,57.728 233.929143,57.728 L239.297143,57.728 Z" id="Path"></path>
                    <path d="M243.879429,45.848 C243.879429,40.8026667 244.832762,36.3733333 246.739429,32.56 C248.646095,28.7466667 251.242095,25.8133333 254.527429,23.76 C257.812762,21.7066667 261.479429,20.68 265.527429,20.68 C268.988762,20.68 272.024762,21.384 274.635429,22.792 C277.246095,24.2 279.255429,26.048 280.663429,28.336 L280.663429,21.384 L295.711429,21.384 L295.711429,70.488 L280.663429,70.488 L280.663429,63.536 C279.196762,65.824 277.158095,67.672 274.547429,69.08 C271.936762,70.488 268.900762,71.192 265.439429,71.192 C261.450095,71.192 257.812762,70.1506667 254.527429,68.068 C251.242095,65.9853333 248.646095,63.0226667 246.739429,59.18 C244.832762,55.3373333 243.879429,50.8933333 243.879429,45.848 Z M280.663429,45.936 C280.663429,42.1813333 279.622095,39.2186667 277.539429,37.048 C275.456762,34.8773333 272.919429,33.792 269.927429,33.792 C266.935429,33.792 264.398095,34.8626667 262.315429,37.004 C260.232762,39.1453333 259.191429,42.0933333 259.191429,45.848 C259.191429,49.6026667 260.232762,52.58 262.315429,54.78 C264.398095,56.98 266.935429,58.08 269.927429,58.08 C272.919429,58.08 275.456762,56.9946667 277.539429,54.824 C279.622095,52.6533333 280.663429,49.6906667 280.663429,45.936 Z" id="Shape"></path>
                    <polygon id="Path" points="320.885714 5.368 320.885714 70.488 305.837714 70.488 305.837714 5.368"></polygon>
                    <path d="M34.056,158.488 L21.208,135.168 L17.6,135.168 L17.6,158.488 L2.552,158.488 L2.552,96.712 L27.808,96.712 C32.6773333,96.712 36.828,97.5626667 40.26,99.264 C43.692,100.965333 46.2586667,103.297333 47.96,106.26 C49.6613333,109.222667 50.512,112.522667 50.512,116.16 C50.512,120.266667 49.3533333,123.933333 47.036,127.16 C44.7186667,130.386667 41.3013333,132.674667 36.784,134.024 L51.04,158.488 L34.056,158.488 Z M17.6,124.52 L26.928,124.52 C29.6853333,124.52 31.7533333,123.845333 33.132,122.496 C34.5106667,121.146667 35.2,119.24 35.2,116.776 C35.2,114.429333 34.5106667,112.581333 33.132,111.232 C31.7533333,109.882667 29.6853333,109.208 26.928,109.208 L17.6,109.208 L17.6,124.52 Z" id="Shape"></path>
                    <path d="M105.430286,133.144 C105.430286,134.552 105.342286,136.018667 105.166286,137.544 L71.1102857,137.544 C71.3449524,140.594667 72.327619,142.926667 74.0582857,144.54 C75.7889524,146.153333 77.915619,146.96 80.4382857,146.96 C84.1929524,146.96 86.803619,145.376 88.2702857,142.208 L104.286286,142.208 C103.464952,145.434667 101.983619,148.338667 99.8422857,150.92 C97.7009524,153.501333 95.0169524,155.525333 91.7902857,156.992 C88.563619,158.458667 84.955619,159.192 80.9662857,159.192 C76.155619,159.192 71.8729524,158.165333 68.1182857,156.112 C64.363619,154.058667 61.4302857,151.125333 59.3182857,147.312 C57.2062857,143.498667 56.1502857,139.04 56.1502857,133.936 C56.1502857,128.832 57.191619,124.373333 59.2742857,120.56 C61.3569524,116.746667 64.275619,113.813333 68.0302857,111.76 C71.7849524,109.706667 76.0969524,108.68 80.9662857,108.68 C85.7182857,108.68 89.9422857,109.677333 93.6382857,111.672 C97.3342857,113.666667 100.223619,116.512 102.306286,120.208 C104.388952,123.904 105.430286,128.216 105.430286,133.144 Z M90.0302857,129.184 C90.0302857,126.602667 89.1502857,124.549333 87.3902857,123.024 C85.6302857,121.498667 83.4302857,120.736 80.7902857,120.736 C78.267619,120.736 76.1409524,121.469333 74.4102857,122.936 C72.679619,124.402667 71.6089524,126.485333 71.1982857,129.184 L90.0302857,129.184 Z" id="Shape"></path>
                    <path d="M131.220571,108.68 C134.681905,108.68 137.717905,109.384 140.328571,110.792 C142.939238,112.2 144.948571,114.048 146.356571,116.336 L146.356571,109.384 L161.404571,109.384 L161.404571,158.4 C161.404571,162.917333 160.509905,167.009333 158.720571,170.676 C156.931238,174.342667 154.203238,177.261333 150.536571,179.432 C146.869905,181.602667 142.308571,182.688 136.852571,182.688 C129.577905,182.688 123.681905,180.972 119.164571,177.54 C114.647238,174.108 112.065905,169.458667 111.420571,163.592 L126.292571,163.592 C126.761905,165.469333 127.876571,166.950667 129.636571,168.036 C131.396571,169.121333 133.567238,169.664 136.148571,169.664 C139.257905,169.664 141.736571,168.769333 143.584571,166.98 C145.432571,165.190667 146.356571,162.330667 146.356571,158.4 L146.356571,151.448 C144.889905,153.736 142.865905,155.598667 140.284571,157.036 C137.703238,158.473333 134.681905,159.192 131.220571,159.192 C127.172571,159.192 123.505905,158.150667 120.220571,156.068 C116.935238,153.985333 114.339238,151.022667 112.432571,147.18 C110.525905,143.337333 109.572571,138.893333 109.572571,133.848 C109.572571,128.802667 110.525905,124.373333 112.432571,120.56 C114.339238,116.746667 116.935238,113.813333 120.220571,111.76 C123.505905,109.706667 127.172571,108.68 131.220571,108.68 Z M146.356571,133.936 C146.356571,130.181333 145.315238,127.218667 143.232571,125.048 C141.149905,122.877333 138.612571,121.792 135.620571,121.792 C132.628571,121.792 130.091238,122.862667 128.008571,125.004 C125.925905,127.145333 124.884571,130.093333 124.884571,133.848 C124.884571,137.602667 125.925905,140.58 128.008571,142.78 C130.091238,144.98 132.628571,146.08 135.620571,146.08 C138.612571,146.08 141.149905,144.994667 143.232571,142.824 C145.315238,140.653333 146.356571,137.690667 146.356571,133.936 Z" id="Shape"></path>
                    <path d="M179.098857,104.28 C176.458857,104.28 174.302857,103.502667 172.630857,101.948 C170.958857,100.393333 170.122857,98.472 170.122857,96.184 C170.122857,93.8373333 170.958857,91.8866667 172.630857,90.332 C174.302857,88.7773333 176.458857,88 179.098857,88 C181.68019,88 183.806857,88.7773333 185.478857,90.332 C187.150857,91.8866667 187.986857,93.8373333 187.986857,96.184 C187.986857,98.472 187.150857,100.393333 185.478857,101.948 C183.806857,103.502667 181.68019,104.28 179.098857,104.28 Z M186.578857,109.384 L186.578857,158.488 L171.530857,158.488 L171.530857,109.384 L186.578857,109.384 Z" id="Shape"></path>
                    <path d="M219.057143,159.192 C214.246476,159.192 209.91981,158.165333 206.077143,156.112 C202.234476,154.058667 199.213143,151.125333 197.013143,147.312 C194.813143,143.498667 193.713143,139.04 193.713143,133.936 C193.713143,128.890667 194.82781,124.446667 197.057143,120.604 C199.286476,116.761333 202.337143,113.813333 206.209143,111.76 C210.081143,109.706667 214.422476,108.68 219.233143,108.68 C224.04381,108.68 228.385143,109.706667 232.257143,111.76 C236.129143,113.813333 239.17981,116.761333 241.409143,120.604 C243.638476,124.446667 244.753143,128.890667 244.753143,133.936 C244.753143,138.981333 243.62381,143.425333 241.365143,147.268 C239.106476,151.110667 236.026476,154.058667 232.125143,156.112 C228.22381,158.165333 223.86781,159.192 219.057143,159.192 Z M219.057143,146.168 C221.93181,146.168 224.381143,145.112 226.405143,143 C228.429143,140.888 229.441143,137.866667 229.441143,133.936 C229.441143,130.005333 228.458476,126.984 226.493143,124.872 C224.52781,122.76 222.10781,121.704 219.233143,121.704 C216.29981,121.704 213.865143,122.745333 211.929143,124.828 C209.993143,126.910667 209.025143,129.946667 209.025143,133.936 C209.025143,137.866667 209.978476,140.888 211.885143,143 C213.79181,145.112 216.182476,146.168 219.057143,146.168 Z" id="Shape"></path>
                    <path d="M281.895429,108.856 C287.644762,108.856 292.235429,110.718667 295.667429,114.444 C299.099429,118.169333 300.815429,123.288 300.815429,129.8 L300.815429,158.488 L285.855429,158.488 L285.855429,131.824 C285.855429,128.538667 285.004762,125.986667 283.303429,124.168 C281.602095,122.349333 279.314095,121.44 276.439429,121.44 C273.564762,121.44 271.276762,122.349333 269.575429,124.168 C267.874095,125.986667 267.023429,128.538667 267.023429,131.824 L267.023429,158.488 L251.975429,158.488 L251.975429,109.384 L267.023429,109.384 L267.023429,115.896 C268.548762,113.725333 270.602095,112.009333 273.183429,110.748 C275.764762,109.486667 278.668762,108.856 281.895429,108.856 Z" id="Path"></path>
                    <polygon id="Path" points="72.512 184.712 72.512 246.488 57.464 246.488 57.464 209.44 43.648 246.488 31.504 246.488 17.6 209.352 17.6 246.488 2.552 246.488 2.552 184.712 20.328 184.712 37.664 227.48 54.824 184.712"></polygon>
                    <path d="M128.838286,221.144 C128.838286,222.552 128.750286,224.018667 128.574286,225.544 L94.5182857,225.544 C94.7529524,228.594667 95.735619,230.926667 97.4662857,232.54 C99.1969524,234.153333 101.323619,234.96 103.846286,234.96 C107.600952,234.96 110.211619,233.376 111.678286,230.208 L127.694286,230.208 C126.872952,233.434667 125.391619,236.338667 123.250286,238.92 C121.108952,241.501333 118.424952,243.525333 115.198286,244.992 C111.971619,246.458667 108.363619,247.192 104.374286,247.192 C99.563619,247.192 95.2809524,246.165333 91.5262857,244.112 C87.771619,242.058667 84.8382857,239.125333 82.7262857,235.312 C80.6142857,231.498667 79.5582857,227.04 79.5582857,221.936 C79.5582857,216.832 80.599619,212.373333 82.6822857,208.56 C84.7649524,204.746667 87.683619,201.813333 91.4382857,199.76 C95.1929524,197.706667 99.5049524,196.68 104.374286,196.68 C109.126286,196.68 113.350286,197.677333 117.046286,199.672 C120.742286,201.666667 123.631619,204.512 125.714286,208.208 C127.796952,211.904 128.838286,216.216 128.838286,221.144 Z M113.438286,217.184 C113.438286,214.602667 112.558286,212.549333 110.798286,211.024 C109.038286,209.498667 106.838286,208.736 104.198286,208.736 C101.675619,208.736 99.5489524,209.469333 97.8182857,210.936 C96.087619,212.402667 95.0169524,214.485333 94.6062857,217.184 L113.438286,217.184 Z" id="Shape"></path>
                    <path d="M165.892571,196.856 C171.641905,196.856 176.232571,198.718667 179.664571,202.444 C183.096571,206.169333 184.812571,211.288 184.812571,217.8 L184.812571,246.488 L169.852571,246.488 L169.852571,219.824 C169.852571,216.538667 169.001905,213.986667 167.300571,212.168 C165.599238,210.349333 163.311238,209.44 160.436571,209.44 C157.561905,209.44 155.273905,210.349333 153.572571,212.168 C151.871238,213.986667 151.020571,216.538667 151.020571,219.824 L151.020571,246.488 L135.972571,246.488 L135.972571,197.384 L151.020571,197.384 L151.020571,203.896 C152.545905,201.725333 154.599238,200.009333 157.180571,198.748 C159.761905,197.486667 162.665905,196.856 165.892571,196.856 Z" id="Path"></path>
                    <path d="M214.474857,247.192 C210.19219,247.192 206.378857,246.458667 203.034857,244.992 C199.690857,243.525333 197.050857,241.516 195.114857,238.964 C193.178857,236.412 192.093524,233.552 191.858857,230.384 L206.730857,230.384 C206.906857,232.085333 207.698857,233.464 209.106857,234.52 C210.514857,235.576 212.245524,236.104 214.298857,236.104 C216.17619,236.104 217.62819,235.737333 218.654857,235.004 C219.681524,234.270667 220.194857,233.317333 220.194857,232.144 C220.194857,230.736 219.461524,229.694667 217.994857,229.02 C216.52819,228.345333 214.15219,227.597333 210.866857,226.776 C207.346857,225.954667 204.413524,225.089333 202.066857,224.18 C199.72019,223.270667 197.69619,221.833333 195.994857,219.868 C194.293524,217.902667 193.442857,215.248 193.442857,211.904 C193.442857,209.088 194.22019,206.521333 195.774857,204.204 C197.329524,201.886667 199.617524,200.053333 202.638857,198.704 C205.66019,197.354667 209.253524,196.68 213.418857,196.68 C219.578857,196.68 224.433524,198.205333 227.982857,201.256 C231.53219,204.306667 233.570857,208.354667 234.098857,213.4 L220.194857,213.4 C219.96019,211.698667 219.21219,210.349333 217.950857,209.352 C216.689524,208.354667 215.03219,207.856 212.978857,207.856 C211.218857,207.856 209.869524,208.193333 208.930857,208.868 C207.99219,209.542667 207.522857,210.466667 207.522857,211.64 C207.522857,213.048 208.270857,214.104 209.766857,214.808 C211.262857,215.512 213.594857,216.216 216.762857,216.92 C220.40019,217.858667 223.362857,218.782667 225.650857,219.692 C227.938857,220.601333 229.94819,222.068 231.678857,224.092 C233.409524,226.116 234.30419,228.829333 234.362857,232.232 C234.362857,235.106667 233.55619,237.673333 231.942857,239.932 C230.329524,242.190667 228.01219,243.965333 224.990857,245.256 C221.969524,246.546667 218.46419,247.192 214.474857,247.192 Z" id="Path"></path>
                    <path d="M270.185143,233.728 L270.185143,246.488 L262.529143,246.488 C257.073143,246.488 252.81981,245.153333 249.769143,242.484 C246.718476,239.814667 245.193143,235.458667 245.193143,229.416 L245.193143,209.88 L239.209143,209.88 L239.209143,197.384 L245.193143,197.384 L245.193143,185.416 L260.241143,185.416 L260.241143,197.384 L270.097143,197.384 L270.097143,209.88 L260.241143,209.88 L260.241143,229.592 C260.241143,231.058667 260.593143,232.114667 261.297143,232.76 C262.001143,233.405333 263.174476,233.728 264.817143,233.728 L270.185143,233.728 Z" id="Path"></path>
                    <path d="M292.807429,205.568 C294.567429,202.869333 296.767429,200.742667 299.407429,199.188 C302.047429,197.633333 304.980762,196.856 308.207429,196.856 L308.207429,212.784 L304.071429,212.784 C300.316762,212.784 297.500762,213.590667 295.623429,215.204 C293.746095,216.817333 292.807429,219.648 292.807429,223.696 L292.807429,246.488 L277.759429,246.488 L277.759429,197.384 L292.807429,197.384 L292.807429,205.568 Z" id="Path"></path>
                    <path d="M363.125714,197.384 L363.125714,246.488 L348.077714,246.488 L348.077714,239.8 C346.552381,241.970667 344.484381,243.716 341.873714,245.036 C339.263048,246.356 336.373714,247.016 333.205714,247.016 C329.451048,247.016 326.136381,246.18 323.261714,244.508 C320.387048,242.836 318.157714,240.416 316.573714,237.248 C314.989714,234.08 314.197714,230.354667 314.197714,226.072 L314.197714,197.384 L329.157714,197.384 L329.157714,224.048 C329.157714,227.333333 330.008381,229.885333 331.709714,231.704 C333.411048,233.522667 335.699048,234.432 338.573714,234.432 C341.507048,234.432 343.824381,233.522667 345.525714,231.704 C347.227048,229.885333 348.077714,227.333333 348.077714,224.048 L348.077714,197.384 L363.125714,197.384 Z" id="Path"></path>
                    <path d="M370.172,221.848 C370.172,216.802667 371.125333,212.373333 373.032,208.56 C374.938667,204.746667 377.534667,201.813333 380.82,199.76 C384.105333,197.706667 387.772,196.68 391.82,196.68 C395.281333,196.68 398.317333,197.384 400.928,198.792 C403.538667,200.2 405.548,202.048 406.956,204.336 L406.956,197.384 L422.004,197.384 L422.004,246.488 L406.956,246.488 L406.956,239.536 C405.489333,241.824 403.450667,243.672 400.84,245.08 C398.229333,246.488 395.193333,247.192 391.732,247.192 C387.742667,247.192 384.105333,246.150667 380.82,244.068 C377.534667,241.985333 374.938667,239.022667 373.032,235.18 C371.125333,231.337333 370.172,226.893333 370.172,221.848 Z M406.956,221.936 C406.956,218.181333 405.914667,215.218667 403.832,213.048 C401.749333,210.877333 399.212,209.792 396.22,209.792 C393.228,209.792 390.690667,210.862667 388.608,213.004 C386.525333,215.145333 385.484,218.093333 385.484,221.848 C385.484,225.602667 386.525333,228.58 388.608,230.78 C390.690667,232.98 393.228,234.08 396.22,234.08 C399.212,234.08 401.749333,232.994667 403.832,230.824 C405.914667,228.653333 406.956,225.690667 406.956,221.936 Z" id="Shape"></path>
                    <polygon id="Path" points="447.178286 181.368 447.178286 246.488 432.130286 246.488 432.130286 181.368"></polygon>
                    <polygon id="Path" points="56.056 272.712 56.056 334.488 41.008 334.488 41.008 309.056 17.6 309.056 17.6 334.488 2.552 334.488 2.552 272.712 17.6 272.712 17.6 296.912 41.008 296.912 41.008 272.712"></polygon>
                    <path d="M112.382286,309.144 C112.382286,310.552 112.294286,312.018667 112.118286,313.544 L78.0622857,313.544 C78.2969524,316.594667 79.279619,318.926667 81.0102857,320.54 C82.7409524,322.153333 84.867619,322.96 87.3902857,322.96 C91.1449524,322.96 93.755619,321.376 95.2222857,318.208 L111.238286,318.208 C110.416952,321.434667 108.935619,324.338667 106.794286,326.92 C104.652952,329.501333 101.968952,331.525333 98.7422857,332.992 C95.515619,334.458667 91.907619,335.192 87.9182857,335.192 C83.107619,335.192 78.8249524,334.165333 75.0702857,332.112 C71.315619,330.058667 68.3822857,327.125333 66.2702857,323.312 C64.1582857,319.498667 63.1022857,315.04 63.1022857,309.936 C63.1022857,304.832 64.143619,300.373333 66.2262857,296.56 C68.3089524,292.746667 71.227619,289.813333 74.9822857,287.76 C78.7369524,285.706667 83.0489524,284.68 87.9182857,284.68 C92.6702857,284.68 96.8942857,285.677333 100.590286,287.672 C104.286286,289.666667 107.175619,292.512 109.258286,296.208 C111.340952,299.904 112.382286,304.216 112.382286,309.144 Z M96.9822857,305.184 C96.9822857,302.602667 96.1022857,300.549333 94.3422857,299.024 C92.5822857,297.498667 90.3822857,296.736 87.7422857,296.736 C85.219619,296.736 83.0929524,297.469333 81.3622857,298.936 C79.631619,300.402667 78.5609524,302.485333 78.1502857,305.184 L96.9822857,305.184 Z" id="Shape"></path>
                    <path d="M116.524571,309.848 C116.524571,304.802667 117.477905,300.373333 119.384571,296.56 C121.291238,292.746667 123.887238,289.813333 127.172571,287.76 C130.457905,285.706667 134.124571,284.68 138.172571,284.68 C141.633905,284.68 144.669905,285.384 147.280571,286.792 C149.891238,288.2 151.900571,290.048 153.308571,292.336 L153.308571,285.384 L168.356571,285.384 L168.356571,334.488 L153.308571,334.488 L153.308571,327.536 C151.841905,329.824 149.803238,331.672 147.192571,333.08 C144.581905,334.488 141.545905,335.192 138.084571,335.192 C134.095238,335.192 130.457905,334.150667 127.172571,332.068 C123.887238,329.985333 121.291238,327.022667 119.384571,323.18 C117.477905,319.337333 116.524571,314.893333 116.524571,309.848 Z M153.308571,309.936 C153.308571,306.181333 152.267238,303.218667 150.184571,301.048 C148.101905,298.877333 145.564571,297.792 142.572571,297.792 C139.580571,297.792 137.043238,298.862667 134.960571,301.004 C132.877905,303.145333 131.836571,306.093333 131.836571,309.848 C131.836571,313.602667 132.877905,316.58 134.960571,318.78 C137.043238,320.98 139.580571,322.08 142.572571,322.08 C145.564571,322.08 148.101905,320.994667 150.184571,318.824 C152.267238,316.653333 153.308571,313.690667 153.308571,309.936 Z" id="Shape"></path>
                    <polygon id="Path" points="193.530857 269.368 193.530857 334.488 178.482857 334.488 178.482857 269.368"></polygon>
                    <path d="M231.025143,321.728 L231.025143,334.488 L223.369143,334.488 C217.913143,334.488 213.65981,333.153333 210.609143,330.484 C207.558476,327.814667 206.033143,323.458667 206.033143,317.416 L206.033143,297.88 L200.049143,297.88 L200.049143,285.384 L206.033143,285.384 L206.033143,273.416 L221.081143,273.416 L221.081143,285.384 L230.937143,285.384 L230.937143,297.88 L221.081143,297.88 L221.081143,317.592 C221.081143,319.058667 221.433143,320.114667 222.137143,320.76 C222.841143,321.405333 224.014476,321.728 225.657143,321.728 L231.025143,321.728 Z" id="Path"></path>
                    <path d="M268.783429,284.856 C274.415429,284.856 278.932762,286.718667 282.335429,290.444 C285.738095,294.169333 287.439429,299.288 287.439429,305.8 L287.439429,334.488 L272.479429,334.488 L272.479429,307.824 C272.479429,304.538667 271.628762,301.986667 269.927429,300.168 C268.226095,298.349333 265.938095,297.44 263.063429,297.44 C260.188762,297.44 257.900762,298.349333 256.199429,300.168 C254.498095,301.986667 253.647429,304.538667 253.647429,307.824 L253.647429,334.488 L238.599429,334.488 L238.599429,269.368 L253.647429,269.368 L253.647429,291.984 C255.172762,289.813333 257.255429,288.082667 259.895429,286.792 C262.535429,285.501333 265.498095,284.856 268.783429,284.856 Z" id="Path"></path>
                </g>
            </g>
        </g>
    </g>
</svg>