<?xml version="1.0" encoding="UTF-8"?>
<svg width="220px" height="309px" viewBox="0 0 220 309" version="1.1" xmlns="http://www.w3.org/2000/svg" xmlns:xlink="http://www.w3.org/1999/xlink">
    <title>3</title>
    <defs>
        <path d="M1.21012265,158.906164 C2.03702688,144.646414 2.76056808,130.388731 3.79419837,116.130014 C4.82782866,102.697373 7.51526741,89.678545 13.2002857,77.279661 C18.9886153,64.6741289 27.4643836,54.1350775 38.0074126,45.1458865 C58.9901074,27.1675047 82.9703301,14.7686206 109.741561,7.84591039 C126.796461,3.50630097 144.058087,0.61322803 161.629802,0.0966075515 C186.436929,-0.729984408 210.313788,3.71294904 232.743566,14.7686206 C255.173343,25.8242922 270.677797,43.1827299 279.256929,66.5339615 C284.218354,80.0694099 288.249512,93.8115064 290.626862,108.069706 C292.900848,121.605155 292.28067,135.141636 289.283142,148.470437 C284.631806,168.928595 276.879579,188.353514 266.956728,206.848516 C260.754946,218.420808 253.932986,229.683127 245.457218,239.808883 C239.04871,247.453828 231.916661,254.274247 224.061071,260.369332 C211.657508,270.081791 197.910225,277.72777 184.059579,285.063776 C170.932474,291.98752 157.391918,297.875956 143.024457,301.595621 C133.721784,303.972074 124.419111,306.039588 115.013076,307.898388 C105.60704,309.75822 96.4075239,309.139309 87.0014882,306.969504 C74.9080139,304.178722 63.7448068,299.529141 53.4085039,292.813079 C39.7645841,283.823888 29.2215551,271.839333 21.2626019,257.68394 C16.5079026,249.108046 12.6834705,240.222179 9.89261707,230.819692 C9.37580192,229.269831 8.96234981,227.616647 8.23880861,226.17011 C1.72693779,212.531338 -0.44368271,197.962649 0.0731320207,182.980664 C0.279858492,174.921389 0.693310607,166.965439 1.21012265,158.906164 C1.10675962,158.906164 1.10675962,158.906164 1.21012265,158.906164 Z" id="path-1"></path>
    </defs>
    <g id="PAGES" stroke="none" stroke-width="1" fill="none" fill-rule="evenodd">
        <g id="MacBook-Pro-14&quot;" transform="translate(-1292, -2540)">
            <g id="3" transform="translate(1292, 2540)">
                <path d="M1.21012265,158.906164 C2.03702688,144.646414 2.76056808,130.388731 3.79419837,116.130014 C4.82782866,102.697373 7.51526741,89.678545 13.2002857,77.279661 C18.9886153,64.6741289 27.4643836,54.1350775 38.0074126,45.1458865 C58.9901074,27.1675047 82.9703301,14.7686206 109.741561,7.84591039 C126.796461,3.50630097 144.058087,0.61322803 161.629802,0.0966075515 C186.436929,-0.729984408 210.313788,3.71294904 232.743566,14.7686206 C255.173343,25.8242922 270.677797,43.1827299 279.256929,66.5339615 C284.218354,80.0694099 288.249512,93.8115064 290.626862,108.069706 C292.900848,121.605155 292.28067,135.141636 289.283142,148.470437 C284.631806,168.928595 276.879579,188.353514 266.956728,206.848516 C260.754946,218.420808 253.932986,229.683127 245.457218,239.808883 C239.04871,247.453828 231.916661,254.274247 224.061071,260.369332 C211.657508,270.081791 197.910225,277.72777 184.059579,285.063776 C170.932474,291.98752 157.391918,297.875956 143.024457,301.595621 C133.721784,303.972074 124.419111,306.039588 115.013076,307.898388 C105.60704,309.75822 96.4075239,309.139309 87.0014882,306.969504 C74.9080139,304.178722 63.7448068,299.529141 53.4085039,292.813079 C39.7645841,283.823888 29.2215551,271.839333 21.2626019,257.68394 C16.5079026,249.108046 12.6834705,240.222179 9.89261707,230.819692 C9.37580192,229.269831 8.96234981,227.616647 8.23880861,226.17011 C1.72693779,212.531338 -0.44368271,197.962649 0.0731320207,182.980664 C0.279858492,174.921389 0.693310607,166.965439 1.21012265,158.906164 C1.10675962,158.906164 1.10675962,158.906164 1.21012265,158.906164 Z" id="Path" fill="#FDD5E7" fill-rule="nonzero"></path>
                <g id="Clipped">
                    <mask id="mask-2" fill="white">
                        <use xlink:href="#path-1"></use>
                    </mask>
                    <g id="Path"></g>
                    <path d="M112.81041,48.9016118 L112.81041,48.9025418 C112.71945,49.5772477 112.628491,50.2546401 112.532363,50.9320324 C112.585078,51.4057731 112.624356,51.8929459 112.663634,52.3833218 C112.779401,53.8178727 112.896201,55.2794945 113.359267,56.5115302 C114.289535,59.5079272 117.080336,60.5411676 119.871138,58.9913071 C121.111494,58.3713628 122.248488,57.4414465 123.178755,56.4082062 C127.209913,52.1719208 130.104078,47.2123672 131.861249,41.6328694 C132.791517,38.8431205 133.101606,35.9500475 132.688154,33.0569746 C132.584791,32.2303823 132.378065,31.300466 132.067976,30.4738738 C130.724256,27.1675047 127.623365,25.9276163 124.419111,27.6841249 C123.282118,28.200745 122.351851,29.0273373 121.421584,29.8539296 C117.700515,33.3669467 115.116439,37.499908 113.876082,42.4594617 C113.400613,44.5165399 113.108095,46.6948171 112.81041,48.9014052 L112.81041,48.9016118 Z M177.754434,76.5563928 C178.477975,69.2203864 180.855325,62.6076482 185.093209,56.7181783 C186.333566,55.0649938 187.573922,53.4118092 189.021004,51.9652728 C190.261361,50.7253844 191.708443,49.3821719 193.258889,48.6589037 C196.463142,47.0057191 199.770759,48.4522556 200.80439,51.7586247 C201.321205,53.3084852 201.527931,55.0649938 201.321205,56.6148543 C200.184211,66.0173413 196.256416,74.17994 189.847909,81.1026503 C189.124367,81.8259185 188.297463,82.5491867 187.367196,83.0658069 C183.439401,85.4422597 179.201517,83.6857511 178.167886,79.2428176 C178.066591,78.790775 178.015943,78.3387324 177.965295,77.898572 L177.965295,77.8981587 C177.911546,77.4329939 177.859865,76.9810546 177.754434,76.5563928 Z M155.221294,248.281453 C155.117931,244.250783 155.944835,240.532151 158.012096,237.121424 C159.459178,234.641648 161.112987,232.266228 162.973521,229.993099 C163.903788,228.855502 165.144145,227.926619 166.384501,227.100026 C169.278666,225.445809 172.069468,226.17011 174.033365,228.753211 C175.480448,230.819692 176.203989,233.195111 176.410715,235.675921 C177.030893,244.148492 174.653543,251.690113 169.485392,258.302851 C168.451762,259.647097 166.901316,260.885952 165.350871,261.713578 C162.146617,263.469053 159.045726,262.333522 157.702007,258.923829 C156.978465,256.959639 156.358287,254.997516 155.944835,253.034359 C155.411482,251.790338 155.337061,250.395463 155.260572,248.977857 C155.25437,248.865234 155.248168,248.752611 155.241967,248.638955 L155.232664,248.469503 L155.226462,248.366179 L155.221294,248.281453 Z M214.551672,97.1178755 C209.176795,104.557723 205.869178,112.823645 205.662452,122.122808 C205.662452,122.536104 205.662452,122.846076 205.559089,123.052725 C205.455726,126.152446 206.902808,127.598982 210.003699,127.392334 C212.07096,127.28901 213.828131,126.565742 215.48194,125.325853 C222.407263,120.056328 226.645147,113.133617 228.195592,104.557723 C228.712407,101.974105 228.712407,99.2876802 227.472051,96.8079034 C225.508154,92.8815901 221.373632,91.6417017 217.755926,94.1214785 C216.51557,94.8447467 215.378577,95.9813111 214.551672,97.1178755 Z M138.406196,84.0436655 L138.406196,84.0437689 C138.190168,85.1984149 137.985509,86.2939597 137.649579,87.3020923 C135.789045,93.0882382 132.89488,98.2544398 128.967085,102.800697 C127.520002,104.557723 125.762831,105.899902 123.592207,106.727527 C118.527419,108.689651 114.186172,105.694287 114.186172,100.217596 C114.186172,97.7378197 115.013076,95.568015 116.046706,93.2948862 C116.770247,91.7450257 117.390425,90.2984893 118.010604,88.7486287 C119.767775,84.4090193 122.041762,80.379382 125.556105,77.279661 C126.899824,76.0397726 128.656996,75.0065323 130.310804,74.3865881 C133.515058,73.2500237 136.512586,74.7998842 137.752942,78.0029292 C138.12815,78.9790314 138.340044,80.0096886 138.54677,81.0156514 L138.54677,81.016478 C138.624292,81.3944373 138.701815,81.7690903 138.786572,82.1358906 C138.641864,82.7859021 138.522997,83.4232047 138.406196,84.0435622 L138.406196,84.0436655 Z M254.139713,79.0361696 C256.310336,74.4899121 257.240603,69.5303585 257.447329,64.5708049 C257.447329,61.5744079 257.240603,58.6813349 256.000247,55.788262 C254.036349,51.7586247 250.418643,51.0353565 247.111027,53.9284294 C245.974033,54.8583457 245.043766,55.9949101 244.320225,57.1314744 C240.185704,63.4342405 238.531895,70.5635988 238.325169,78.0029292 C238.325169,78.7261975 238.428532,79.9660859 238.945347,80.276058 C240.107148,81.0806422 240.341782,82.194682 240.584685,83.3503613 C240.621896,83.5303517 240.66014,83.7113755 240.702519,83.8923992 C241.115971,85.4422597 242.046238,86.7854721 243.700047,86.7854721 C246.387485,86.8887961 249.074924,86.4755 250.832096,84.2023713 C252.072452,82.6525108 253.312808,80.8960022 254.139713,79.0361696 Z M120.28459,204.885359 C120.28459,198.892565 121.835036,193.313067 124.7292,188.042508 C125.866194,185.873737 127.520002,183.91058 129.173811,182.154072 C130.724256,180.500887 132.688154,179.570971 134.96214,180.397563 C137.33949,181.120831 138.166394,183.083988 138.579846,185.253793 C139.200024,188.25019 138.993298,191.143263 138.579846,194.13966 C137.856305,199.719158 136.202497,205.092007 132.89488,209.844913 C131.861249,211.394773 130.51753,212.840277 128.967085,213.873517 C125.556105,216.251003 122.041762,214.804466 120.904768,210.878153 C120.698042,210.154885 120.594679,209.431617 120.491316,208.707315 C120.440668,208.050174 120.414828,207.417831 120.388987,206.797887 L120.388987,206.796854 L120.388987,206.796854 C120.363146,206.150045 120.337305,205.517702 120.28459,204.885359 Z M85.140747,150.535884 C82.6600343,155.28879 81.523041,160.248343 81.523041,166.344461 C81.6178249,167.10286 81.6909025,168.034843 81.7720425,169.070149 C81.8679634,170.293506 81.9753576,171.662549 82.1432192,173.060524 C82.2465822,173.99044 82.5566713,175.02368 82.9701234,175.850273 C84.2104797,178.537731 87.0012815,179.466614 89.5853572,178.020077 C90.8257136,177.296809 92.0660699,176.263569 92.8929741,175.127004 C97.2342214,169.237534 99.611571,162.624796 99.714934,155.28879 C99.8182971,152.395717 99.0947559,149.605968 97.3375844,147.127224 C94.9602347,143.819822 91.2391657,143.406526 88.3450009,146.196275 C87.1046445,147.436163 85.9676512,148.986024 85.140747,150.535884 Z M74.3910954,219.454048 C74.3648411,219.742322 74.3452022,220.037829 74.3255632,220.334369 C74.2676799,221.206424 74.2089697,222.091911 73.9776432,222.863741 C73.7358771,223.699632 73.4974186,224.539657 73.2587534,225.380715 C72.1708575,229.213003 71.07738,233.064923 69.636396,236.709162 C68.9872762,238.438806 67.9357641,240.017597 66.8678173,241.622219 C66.405061,242.316557 65.9393072,243.016061 65.5018749,243.735196 C65.0884228,244.458464 64.4682446,244.975084 63.8480664,245.491704 C62.0908949,247.041565 60.1269974,248.178129 57.7496477,247.144889 C55.3722981,246.214973 54.7521199,243.941844 54.6487569,241.668715 C54.4420308,238.362346 55.165572,235.159301 56.0958393,231.955223 C56.6126544,230.303071 57.0261065,228.649887 57.3361956,226.893378 C58.4731889,221.933825 60.5404495,217.594215 64.3648816,214.081198 C66.2254161,212.428014 68.1893136,210.981477 70.7733893,212.118042 C73.3574651,213.254606 74.0810063,215.631059 74.1843693,218.21416 C74.2317096,218.450772 74.257447,218.643988 74.2812205,218.823771 C74.3094386,219.036619 74.3350726,219.229835 74.3910954,219.454048 Z M54.6486535,115.922333 C54.7124285,115.582397 54.7718622,115.246594 54.8305724,114.915957 C55.0569375,113.635772 55.2718292,112.421715 55.6822838,111.272751 C56.509188,108.792975 57.4394553,106.314231 58.4730856,103.833421 C60.1092189,99.6969467 63.0896919,96.6350423 66.0791574,93.563632 C66.3002509,93.3365258 66.5214478,93.1093163 66.7421279,92.8815901 C68.3959363,91.2284056 70.5665599,90.5051373 72.8405466,91.3317296 C75.2178962,92.1583219 76.1481635,94.2248025 76.4582526,96.4979313 C76.5616156,97.4278476 76.5616156,98.4610879 76.4582526,99.4943282 C75.8380744,104.660013 74.1842659,109.412919 71.6001902,113.959176 C70.1531078,116.542277 68.3959363,118.815406 66.0185867,120.46859 C64.8815933,121.295183 63.537874,122.121775 62.0907916,122.535071 C59.2999898,123.464987 56.509188,122.121775 55.3721947,119.43535 C55.0694444,118.603592 54.9330052,117.716038 54.8004938,116.854316 L54.8004938,116.854316 L54.8004938,116.854316 L54.8003904,116.854316 L54.8003904,116.854316 L54.8003904,116.854316 L54.8003904,116.854316 L54.8003904,116.854316 C54.7519132,116.539177 54.7039527,116.227139 54.6486535,115.922333 Z M151.603588,145.886303 C158.012096,140.616777 161.526439,133.694067 162.043254,124.601552 C161.979169,124.282281 161.924386,123.903081 161.865469,123.486685 C161.732131,122.555736 161.572952,121.435703 161.21635,120.365266 C160.079356,117.058897 156.875102,115.922333 153.774212,117.575518 C152.843944,118.092138 151.913677,118.815406 151.190136,119.538674 C145.815258,125.118172 142.300915,131.73091 141.163922,139.376889 C140.853833,141.650017 140.957196,143.716498 143.231183,145.473007 C146.332073,147.952783 148.502697,148.36608 151.603588,145.886303 Z M234.810826,210.671505 C234.74364,210.987677 234.677488,211.312114 234.609268,211.642751 C234.255767,213.364129 233.867122,215.257026 233.260381,217.077595 C231.709935,221.520529 229.332586,225.343518 225.921606,228.753211 C224.37116,230.303071 222.510626,231.439636 220.340002,232.162904 C218.169378,232.886172 216.102118,232.266228 214.034857,231.646284 C212.794501,231.336312 212.587775,230.09539 212.794501,228.959859 C212.9082,228.346114 213.016732,227.728237 213.125263,227.108292 C213.512874,224.903357 213.905654,222.663292 214.551672,220.487288 C216.102118,215.631059 218.789557,211.187092 221.580358,206.95184 C222.407263,205.711951 223.544256,204.472063 224.784612,203.645471 C228.402318,201.06237 232.433476,202.507873 233.880559,206.640835 C234.432517,207.745368 234.575158,208.849902 234.745707,210.173483 C234.76638,210.335702 234.788086,210.502054 234.810826,210.671505 Z M45.6561734,183.083988 C49.5839684,177.711138 51.547866,171.61502 51.9613181,164.795634 C51.8973364,164.443299 51.8358354,164.086831 51.7737142,163.72623 C51.4344767,161.758941 51.0777709,159.690394 50.2041466,157.7696 C48.7570642,154.049935 45.1393582,153.326666 42.3485564,156.219739 C40.798111,157.872924 39.4543916,159.836081 38.4207613,161.902561 C36.3535008,166.242171 35.0097814,170.788428 34.1828772,175.541334 C33.8727881,177.297842 33.769425,179.157675 33.8727881,180.914183 C33.8727881,182.050748 34.1828772,183.187312 34.6996923,184.220552 C36.1467747,187.423598 39.4543916,188.353514 42.3485564,186.390357 C43.5889128,185.563765 44.7259061,184.323877 45.6561734,183.083988 Z M256.620425,144.750772 C256.206973,149.710325 254.863254,154.256583 252.175815,158.389544 C250.935459,160.249377 249.385013,161.902561 247.007664,162.315857 C246.529093,162.410915 246.051556,162.771516 245.655675,163.070123 L245.560581,163.14245 C245.353855,163.297436 245.198811,163.478253 245.043766,163.65907 C244.888721,163.839887 244.733677,164.020704 244.526951,164.17569 C243.286594,165.20893 241.839512,165.518902 240.39243,164.794601 C239.04871,164.17569 238.221806,162.935802 238.325169,161.385941 C238.41096,160.318604 238.482281,159.248167 238.554635,158.17773 L238.554635,158.17773 L238.554635,158.176697 L238.554635,158.176697 C238.913305,152.823478 239.271974,147.471293 241.42606,142.477643 C242.252964,140.514486 243.286594,138.55133 244.526951,136.898145 C247.937931,132.455212 253.106082,133.281804 255.173343,138.55133 C255.785252,139.928639 256.05813,141.532228 256.325841,143.111019 L256.325841,143.112052 C256.419901,143.664836 256.512928,144.21452 256.620425,144.750772 Z M67.9824842,70.6669229 C72.5304575,66.0173413 74.7010811,60.2311955 75.2178962,52.9985131 C75.1728299,52.7728534 75.1276603,52.5127868 75.0782528,52.2279225 C74.9011919,51.2080109 74.6690385,49.870378 74.1842659,48.6589037 C72.7371835,45.4558586 69.5329296,44.6292664 66.5354018,46.489099 C65.9152236,46.9023951 65.2950455,47.4190153 64.7782303,47.9356354 C60.9537982,52.2752449 57.8529074,57.0281504 56.0957359,62.5043242 C55.4755577,64.5708049 55.2688317,66.6372855 55.7856468,68.8070902 C56.7159141,72.8367276 60.5403461,74.7998842 64.3647782,73.1466997 C65.7084976,72.6300795 66.9488539,71.7001632 67.9824842,70.6669229 Z M210.107062,170.58178 C209.69361,178.744379 207.006171,184.840497 201.527931,189.592369 C198.530403,192.279827 195.429512,192.073179 192.845436,188.973458 C192.121895,188.146866 191.811806,186.803653 191.811806,185.770413 C192.018532,178.124434 194.189156,171.201724 199.047218,165.105606 C199.370744,164.619983 199.820374,164.261449 200.297911,163.881216 C200.430215,163.774793 200.565621,163.667336 200.701027,163.555746 C203.595191,161.489265 206.902808,162.109209 208.453254,165.20893 C209.226409,166.840417 209.642962,168.615524 209.938581,169.88021 C209.999565,170.136453 210.054347,170.372032 210.107062,170.58178 Z M97.0275987,259.233801 C91.9628103,264.400003 89.8955497,270.806093 88.9652824,277.728803 L88.9652824,278.451038 C89.0686454,282.067379 91.5493581,283.618273 94.8569751,282.171736 C101.575572,279.175339 105.090225,273.80249 106.330581,266.776455 C106.64067,264.813299 106.744033,262.746818 106.433944,260.885952 C105.60704,256.236371 102.092387,254.997516 98.4746811,257.890588 C97.9578659,258.303885 97.5444138,258.717181 97.0275987,259.233801 Z" id="Shape" fill="#EE8DB9" mask="url(#mask-2)"></path>
                </g>
            </g>
        </g>
    </g>
</svg>