<?xml version="1.0" encoding="UTF-8"?>
<svg width="167.846489px" height="291.627104px" viewBox="0 0 167.846489 291.627104" version="1.1" xmlns="http://www.w3.org/2000/svg" xmlns:xlink="http://www.w3.org/1999/xlink">
    <title>Group 32</title>
    <defs>
        <polygon id="path-1" points="0 0 151 0 151 250 0 250"></polygon>
    </defs>
    <g id="PAGES" stroke="none" stroke-width="1" fill="none" fill-rule="evenodd">
        <g id="iPhone-14" transform="translate(-222.1535, -2983.1864)">
            <g id="Group-32" transform="translate(347.5, 3129) rotate(-28) translate(-347.5, -3129)translate(272, 3004)">
                <g id="Group-3" transform="translate(-0, -0)">
                    <mask id="mask-2" fill="white">
                        <use xlink:href="#path-1"></use>
                    </mask>
                    <g id="Clip-2"></g>
                    <path d="M134.967753,34.7600238 C128.260098,36.3432843 120.479514,36.7532138 113.634367,37.1165046 C100.987542,37.7890835 88.6721705,38.5623038 76.0081584,38.4665717 C64.4072554,38.3782037 52.6074799,37.9019982 41.0213083,37.239238 C37.1543407,37.0183179 33.2014404,36.2966456 29.3467489,35.8965348 C24.9224468,35.437512 20.4883239,34.2322703 16.2236111,32.9435698 C12.3590986,31.7751481 8.46757883,30.5969077 5.52622821,27.7544027 C3.64062113,25.9330394 1.95388668,23.5348292 1.91884113,20.8150576 C1.89005102,18.6794969 2.83285456,16.2960147 3.92297115,14.4844701 C6.04918955,10.9546582 9.62153108,8.60554135 13.3583722,7.04682747 C17.3701977,5.37274422 21.6840149,4.47924524 25.9781904,3.91467172 C27.1370531,3.76248233 28.3008262,3.63483962 29.4645993,3.52928891 C42.3299393,2.35350317 55.3646892,1.95584703 68.2791335,1.76683763 C81.1911226,1.5802829 94.117843,1.86502434 106.993004,2.90089403 C118.588996,3.83612235 139.215279,3.40901021 146.873102,14.0254472 C153.983412,23.8809373 143.983311,32.6293724 134.967753,34.7600238 M140.089336,37.6074381 C140.131075,43.7441069 139.787345,50.3815279 139.340495,56.5255607 C138.355953,70.0826894 136.951568,83.6422728 134.349038,96.9956641 C130.047497,119.075398 122.249726,140.865482 108.404754,158.831194 C102.028554,167.103423 94.1718578,172.876801 86.6662577,179.93397 C81.5053904,184.786848 79.7572756,190.174843 79.4258212,196.461247 C79.4061794,196.802445 79.3939034,197.143644 79.3816273,197.489752 C79.3791721,197.605122 79.3767168,197.722946 79.3742616,197.838315 C79.3423438,199.31848 79.3767168,200.845283 79.4552838,202.428543 L79.4552838,202.430998 C79.4651047,202.63719 79.4773808,202.840928 79.4872016,203.04712 C79.5043881,203.358862 79.5240299,203.67306 79.5461268,203.987257 C79.7449995,207.045773 80.0813643,210.126381 80.439826,213.216807 C80.4766543,213.538369 80.5159378,213.85993 80.552766,214.183946 C80.5724078,214.348409 80.5920495,214.515326 80.6116913,214.679789 C80.7786461,216.093678 80.9456008,217.512475 81.10519,218.928819 C81.1346526,219.181649 81.16166,219.436935 81.1886674,219.689765 C81.2230404,219.996599 81.2549583,220.303432 81.2893313,220.610266 C81.6035992,223.590232 81.861397,226.572653 81.9596057,229.542801 C81.9694266,229.812814 81.9767922,230.082828 81.9841579,230.352841 C81.9890683,230.608127 81.9939787,230.863412 81.996434,231.116243 C82.0136205,232.390215 81.9988892,233.659278 81.9424192,234.925887 C81.9301431,235.23763 81.9154118,235.546918 81.89577,235.856206 C81.8785835,236.153221 81.8589418,236.45269 81.8343896,236.752159 C81.7951061,237.316733 81.7435466,237.883761 81.6821661,238.448335 C81.4538309,240.588805 81.1665704,242.586904 79.9021334,244.38863 C76.8380219,248.750574 71.1983872,248.797213 67.6113143,245.30913 C65.2174772,242.982106 64.6110385,240.169057 64.4612702,237.068812 C64.4465389,236.712885 64.4342628,236.354503 64.4268972,235.991212 C64.424442,235.760474 64.4195315,235.52728 64.4195315,235.294087 C64.4170763,235.1959 64.4170763,235.095259 64.4170763,234.994617 C64.4121659,233.647005 64.4318076,232.299393 64.4686359,230.954235 C64.4760015,230.757861 64.480912,230.563943 64.4882776,230.367569 C64.4931881,230.134376 64.5030089,229.901182 64.5103746,229.667989 C64.6159489,226.746935 64.797635,223.823426 64.989142,220.902371 C65.0136942,220.541535 65.0382464,220.178244 65.0627985,219.817408 C65.0775298,219.586669 65.0922611,219.358385 65.1069924,219.127647 C65.2052011,217.672029 65.3009546,216.216411 65.3868872,214.760793 C65.4016186,214.552146 65.4138946,214.341045 65.4261707,214.132398 C65.4384468,213.906569 65.4507229,213.680739 65.4654542,213.45491 C65.5366555,212.171119 65.6004912,210.887328 65.6495955,209.605991 C65.7158864,207.892633 65.8288264,206.078634 65.9172142,204.22536 C65.9319455,203.866979 65.9491321,203.506142 65.9614082,203.142852 C65.971229,202.912113 65.9810499,202.67892 65.9884155,202.445726 C66.0350647,200.992563 66.0522512,199.522217 66.0006916,198.066599 C65.9982364,197.961049 65.993326,197.853043 65.9884155,197.747492 C65.9859603,197.639487 65.9810499,197.529027 65.9761395,197.418567 C65.971229,197.335108 65.9663186,197.254104 65.9614082,197.170646 C65.9540425,197.033184 65.9466768,196.893268 65.936856,196.755807 C65.7600803,194.028671 65.3083203,191.372721 64.3434198,188.972056 C62.6517749,184.77212 58.5908451,181.561415 55.6642258,178.242704 C48.4483414,170.058843 41.3282105,161.744884 35.1680697,152.723981 C21.730664,133.044911 15.2808075,110.486517 12.0988456,87.0714433 C10.2034176,73.1191131 9.44721063,59.0440496 9.18941279,44.9738953 C9.13294279,41.8589223 8.9389806,38.140101 9.08383844,35.1429519 C9.19923366,32.7030124 9.10593539,32.6661924 9.4840389,32.2415349 C10.0634702,32.5311857 10.6429016,32.7962898 11.2198777,33.0417565 C14.4067501,34.3991877 17.7630325,35.3147786 21.1119492,36.1812763 C32.5287108,39.1416053 44.505262,39.6693588 56.2436571,40.2462057 C70.1156362,40.9286033 84.4369202,40.8795099 98.1861385,40.3885764 C105.080389,40.1431097 129.777423,39.121968 137.528544,35.7738015 C138.510631,35.349144 139.023772,35.2018639 140.027956,34.7035664 C140.413425,35.0472199 140.07706,35.6854334 140.089336,37.6074381 M150.988047,20.014836 C150.651682,12.425004 143.22956,7.84213975 136.75024,5.66730432 C124.680391,1.61464825 110.648823,1.30045081 98.068288,0.60332523 C83.6758028,-0.194441715 69.2513997,-0.140439029 54.854004,0.411861163 C52.315309,0.510047864 49.7741589,0.512502531 47.2354639,0.544413209 C43.9528381,0.588597225 40.6702122,0.657327915 37.3900415,0.816881304 C33.7931478,0.991162698 30.1987093,1.2709948 26.6263678,1.73983629 C23.1227724,2.20376845 19.631453,2.84443668 16.2358872,3.83612235 C13.186507,4.724712 10.1788655,5.8955884 7.4977679,7.61631034 C5.13584862,9.1308402 3.03663762,11.1093022 1.70099927,13.5983351 C0.173853955,16.4408401 -0.570076962,20.3044868 0.512673976,23.4022772 C1.63961883,26.6252556 4.18322421,29.0750138 7.0779257,30.8963771 C7.07547048,30.9135598 7.07547048,30.9307424 7.07547048,30.9479251 C7.22032832,67.3899191 8.20241534,107.300358 25.4576843,140.350002 C33.2088061,155.195831 44.0731437,168.095109 55.1412644,180.555001 C58.0531524,183.831982 61.7016057,186.706398 62.9905949,191.031522 C63.5381084,192.860249 63.8572867,194.799437 64.0291519,196.795081 C64.0487937,197.028275 64.0659802,197.261468 64.0807115,197.497116 C64.0954428,197.686126 64.1077189,197.875135 64.1150846,198.066599 C64.1961067,199.492761 64.2059276,200.93856 64.1740098,202.389269 C64.1690993,202.622462 64.1641889,202.853201 64.1568233,203.08394 C64.1470024,203.439866 64.1347263,203.793339 64.119995,204.149265 C63.984958,207.369789 63.7001528,210.570676 63.5503845,213.535914 C63.5454741,213.612009 63.5405637,213.685649 63.5381084,213.761743 C63.5307428,213.923751 63.5209219,214.088214 63.511101,214.252677 C63.5012802,214.434322 63.4890041,214.618422 63.4742728,214.804977 C63.3834297,216.169772 63.2361167,217.620481 63.0740723,219.127647 C63.0495201,219.328929 63.0274232,219.530212 63.0053262,219.733949 C62.9709532,220.057966 62.9341249,220.384436 62.8948414,220.713362 C62.5609318,223.681055 62.1951044,226.825484 62.0306049,229.942912 C62.0183288,230.183469 62.0060527,230.421572 61.9937766,230.659675 C61.9765901,231.094151 61.9618588,231.523718 61.9544931,231.955739 C61.9299409,232.986699 61.9348514,234.01275 61.9765901,235.021619 C61.9888662,235.30636 62.0011422,235.588647 62.0183288,235.868479 C62.0379705,236.170403 62.0600675,236.469873 62.0870749,236.766887 C62.3522384,239.84995 63.0200575,242.753821 64.3385094,245.255128 C67.9354031,252.069285 78.9519642,251.276427 82.1732096,244.589913 C83.3811767,242.088607 83.8427576,239.241192 83.9507871,236.332411 C83.960608,236.096763 83.9655184,235.861115 83.9704289,235.625467 C83.9777945,235.156626 83.9777945,234.687784 83.9753393,234.221397 C83.960608,233.347536 83.926235,232.473674 83.8795858,231.607176 C83.8574889,231.219339 83.8329367,230.833956 83.8083845,230.451028 C83.7936532,230.232562 83.7789219,230.016552 83.7617354,229.800541 C83.6708923,228.492203 83.565318,227.213321 83.4842958,225.993352 C83.3615349,224.132714 83.182304,222.262257 82.9736105,220.384436 C82.9466031,220.129151 82.9171405,219.873866 82.8876779,219.61858 C82.8459392,219.245471 82.8017453,218.869907 82.7575514,218.494342 C82.6200592,217.328375 82.4752014,216.159954 82.3327988,214.991532 C82.2984257,214.714154 82.2640527,214.434322 82.2296796,214.156945 L82.1339261,213.368997 C81.7533674,210.219658 81.4022713,207.062956 81.2205852,203.916072 C81.2009435,203.606784 81.1837569,203.297496 81.1690256,202.990662 C81.1592048,202.732922 81.1469287,202.475182 81.139563,202.219897 C81.0855482,200.825646 81.0732722,199.436304 81.1076452,198.051871 C81.1125556,197.855498 81.1199213,197.661579 81.1272869,197.46766 C81.1371078,197.165736 81.1518391,196.866267 81.1665704,196.566797 C81.2009435,195.95804 81.2451374,195.349282 81.2991522,194.740525 C82.3057914,183.647882 91.2476937,179.200025 98.5838837,172.474236 C104.535331,167.01751 109.723206,160.750744 114.226075,154.056865 C137.968028,118.753837 140.46744,74.530547 142.615755,33.3731366 C147.373967,30.4275356 151.24339,25.766122 150.988047,20.014836" id="Fill-1" fill="#1A171B" mask="url(#mask-2)"></path>
                </g>
                <path d="M140.786088,37.2425961 C140.827768,43.3917255 140.484516,50.0426238 140.038287,56.1991321 C139.055114,69.7837887 137.652683,83.3709049 135.053771,96.7514104 C130.758211,118.875978 122.971284,140.710306 109.145564,158.712498 C102.77823,167.001524 94.9324592,172.786625 87.4372961,179.858124 C82.2836052,184.720855 80.5379211,190.119791 80.2069277,196.418959 C80.1873132,196.76085 80.1750542,197.102742 80.1627952,197.449553 C80.1603434,197.565156 80.1578916,197.68322 80.1554398,197.798823 C80.1235664,199.281993 80.1578916,200.811897 80.2363493,202.398372 L80.2363493,202.400832 C80.2461565,202.607443 80.2584155,202.811594 80.2682228,203.018204 C80.2853854,203.33058 80.3049998,203.645416 80.327066,203.960251 C80.5256621,207.024977 80.8615592,210.11184 81.2195225,213.208542 C81.2562996,213.530756 81.2955284,213.85297 81.3323055,214.177644 C81.3519199,214.342441 81.3715343,214.509697 81.3911487,214.674494 C81.5578714,216.091253 81.724594,217.512932 81.8839612,218.932151 C81.9133829,219.185495 81.9403527,219.441299 81.9673226,219.694643 C82.0016478,220.0021 82.0335212,220.309556 82.0678465,220.617013 C82.3816773,223.60303 82.6391167,226.591507 82.7371888,229.567685 C82.7469961,229.838247 82.7543515,230.108809 82.7617069,230.37937 C82.7666105,230.635174 82.7715141,230.890978 82.7739659,231.144322 C82.7911285,232.420881 82.7764177,233.692521 82.7200262,234.961702 C82.7077672,235.274077 82.6930564,235.583993 82.673442,235.89391 C82.6562793,236.191527 82.6366649,236.491605 82.6121469,236.791682 C82.572918,237.357402 82.5214301,237.925582 82.4601351,238.491302 C82.2321173,240.636118 81.9452563,242.638275 80.6825775,244.443659 C77.6227268,248.81446 71.9909343,248.861194 68.4088494,245.366028 C66.0183411,243.034279 65.4127456,240.215518 65.2631856,237.108978 C65.2484748,236.752328 65.2362158,236.393219 65.2288603,236.02919 C65.2264085,235.797983 65.2215049,235.564316 65.2215049,235.330649 C65.2190531,235.232263 65.2190531,235.131418 65.2190531,235.030572 C65.2141495,233.680223 65.233764,232.329874 65.270541,230.981985 C65.2778964,230.785213 65.2828,230.5909 65.2901554,230.394128 C65.295059,230.160461 65.3048663,229.926794 65.3122217,229.693128 C65.4176492,226.766142 65.5990827,223.836697 65.7903233,220.909711 C65.8148414,220.548142 65.8393594,220.184114 65.8638774,219.822545 C65.8785883,219.591338 65.8932991,219.36259 65.9080099,219.131383 C66.006082,217.672809 66.1017024,216.214236 66.1875155,214.755663 C66.2022263,214.546592 66.2144853,214.335062 66.2267444,214.125992 C66.2390034,213.899704 66.2512624,213.673416 66.2659732,213.447128 C66.3370755,212.16073 66.4008224,210.874332 66.4498585,209.590394 C66.5160572,207.873557 66.6288401,206.055874 66.717105,204.198837 C66.7318159,203.839728 66.7489785,203.478159 66.7612375,203.114131 C66.7710447,202.882924 66.7808519,202.649257 66.7882073,202.41559 C66.8347916,200.959476 66.8519542,199.486144 66.8004664,198.027571 C66.7980146,197.921806 66.793111,197.813581 66.7882073,197.707816 C66.7857555,197.599592 66.7808519,197.488907 66.7759483,197.378223 C66.7710447,197.294595 66.7661411,197.213426 66.7612375,197.129798 C66.7538821,196.992058 66.7465267,196.851857 66.7367195,196.714117 C66.5601896,193.981444 66.1090578,191.320101 65.145499,188.914561 C63.4562064,184.706097 59.4009235,181.488873 56.4783738,178.163424 C49.2725234,169.962945 42.1622934,161.632104 36.0107185,152.592884 C22.5919982,132.873856 16.1511105,110.269656 12.9735733,86.8070384 C11.080781,72.8263779 10.3256255,58.7227348 10.0681862,44.624011 C10.0117947,41.5027129 9.8181022,37.7763405 9.9627586,34.7731058 C10.0779934,32.3282119 9.98482484,32.2913172 10.3624026,31.8657974 C10.9410282,32.1560363 11.5196538,32.4216787 12.0958276,32.6676439 C15.2782685,34.0278313 18.6298838,34.9452814 21.9741437,35.8135385 C33.3750298,38.7798785 45.3349271,39.3087036 57.0569994,39.8867217 C70.909689,40.5705049 85.2110585,40.5213119 98.9411579,40.0293815 C105.825822,39.7834164 130.488513,38.7602012 138.228857,35.4052363 C139.209578,34.9797165 139.722005,34.8321374 140.724792,34.3328281 C141.109726,34.6771794 140.773828,35.3166888 140.786088,37.2425961" id="Fill-4" fill="#ACC4DA"></path>
                <path d="M134.748301,34.0199947 C128.057367,35.5704713 120.296179,35.9719125 113.468096,36.3276808 C100.852797,36.9863328 88.5681264,37.7435424 75.9356837,37.6497926 C64.3637001,37.5632544 52.5933396,37.0969095 41.0360505,36.4478728 C37.1787227,36.2315272 33.2356764,35.5247983 29.390594,35.1329724 C24.9773211,34.6834544 20.5542518,33.5031691 16.3001702,32.2411533 C12.4452914,31.0969256 8.56347254,29.9430826 5.62945426,27.1594362 C3.74854771,25.3757871 2.06601803,23.0272358 2.03105984,20.3637814 C2.0023415,18.2724408 2.94279478,15.9383125 4.03019387,14.1642788 C6.15111193,10.7075573 9.71454816,8.40708276 13.4420739,6.88064455 C17.4438985,5.24122588 21.746962,4.36622823 26.0304328,3.81334511 C27.1864066,3.66430704 28.3472786,3.53930738 29.5081506,3.43594227 C42.3414193,2.28450306 55.3436756,1.89508103 68.2259262,1.70998538 C81.1057276,1.52729356 94.0002237,1.80613896 106.843289,2.82055931 C118.410374,3.73642223 138.985239,3.31815413 146.623972,13.7147608 C153.716557,23.3661772 143.741385,31.9334618 134.748301,34.0199947" id="Fill-6" fill="#ACC4DA"></path>
                <path d="M134.932805,17.2323095 C134.290473,19.7531567 128.676837,21.7738161 123.720298,22.3934519 C118.318311,23.0678345 112.050037,23.2445178 106.520075,23.3988046 L102.87035,23.5033214 C93.7152737,23.7671021 85.067172,24.0134633 76.0277647,23.9786243 C67.5248646,23.9437854 58.2615024,23.7720791 47.7085543,23.4535515 C45.7938636,23.3938276 43.8225689,23.2544718 41.9152614,23.1176044 C40.7142729,23.0329955 39.4739077,22.9434096 38.263075,22.8787087 C34.6502653,22.679629 31.0399167,22.1545562 27.6756723,21.6170408 C24.616597,21.126807 21.454158,20.6216421 19.1235513,19.4296522 C17.3639062,18.5313048 16.4237882,17.6130495 16.4037127,16.7794031 C16.3868725,16.1025319 16.9455291,15.1967191 17.9004134,14.3580957 C19.3671944,13.0690543 21.8823794,12.0263741 25.377059,11.2549401 C28.2047963,10.6303274 31.4361445,10.2047945 35.5411625,9.91861734 C36.4517481,9.85640492 37.3992493,9.80165799 38.3565946,9.75437656 C49.4558941,9.21686124 60.464135,9.07252843 69.7693349,9.00036202 C71.7726231,8.98543104 73.7414567,8.97796555 75.6782968,8.97796555 C84.7324703,8.97796555 93.0950911,9.14469484 101.0984,9.4856189 C102.395369,9.54036583 103.835078,9.58515877 105.358463,9.63244021 C114.887618,9.92608283 127.936063,10.3267308 133.187927,14.1814124 C134.598104,15.2141386 135.186293,16.2418877 134.932805,17.2323095 M137.105905,16.413594 C136.781048,12.5439815 129.552967,10.6900514 125.273215,9.93105983 C116.514367,8.37326083 106.689887,8.10699167 97.190265,7.848188 C96.0803351,7.81583754 94.9827103,7.78597558 93.8998518,7.75611362 C83.1500203,7.44007452 71.6987918,7.41270106 58.8890681,7.67399322 C57.3213844,7.70634368 55.7241681,7.71380917 54.1786337,7.72127466 L52.7266189,7.72874015 C50.3738628,7.74615963 47.5855022,7.77353309 44.7479207,7.8456995 C41.5190336,7.93030839 38.6617638,8.05971023 36.0161436,8.24385899 C32.8020228,8.4678237 30.0407336,8.76395482 27.5723085,9.14469484 C24.7076556,9.58515877 22.3745878,10.1201856 20.4352867,10.7796372 C18.2621866,11.5162323 16.6354378,12.4071142 15.6018001,13.4298863 C14.0931814,14.9155189 13.6944926,16.7495411 14.5903119,18.1032834 C15.4467545,19.4022787 17.2999191,20.5320562 20.0956629,21.462754 C20.7158454,21.6692993 21.3803268,21.8658905 22.0669575,22.0450623 C22.5173282,22.1645101 22.9947703,22.2814695 23.4869787,22.3909634 C26.0907612,22.9782486 28.8865049,23.3813851 31.527203,23.7422171 C39.3385504,24.8147593 47.5633528,24.9964195 55.5174406,25.1731028 C57.0186762,25.2054532 58.5174508,25.2378037 60.0137643,25.2776197 C65.6298622,25.424441 71.5511293,25.4966074 77.7283448,25.4966074 C82.9752863,25.4966074 88.4068061,25.4443489 93.9909104,25.3373436 C100.382236,25.2178957 105.242794,25.0461895 110.248554,24.7674778 C111.454465,24.7002884 112.716979,24.6455415 113.935195,24.593283 C117.966382,24.4215768 122.132926,24.242405 125.903242,23.5655339 C126.74738,23.4137355 127.586595,23.2295868 128.393817,23.0180646 C128.984467,22.8637778 129.548045,22.6970485 130.072247,22.5253422 C132.813848,21.6269948 137.37662,19.6386859 137.105905,16.413594" id="Fill-8" fill="#231F20"></path>
                <path d="M134.859223,17.8896282 C134.220067,20.4098099 128.63419,22.4299358 123.702162,23.0494079 C118.326888,23.7236124 112.089611,23.900249 106.586996,24.0544951 L102.955318,24.1589844 C93.8455145,24.4226954 85.2401782,24.6689915 76.2454713,24.6341618 C67.7846185,24.599332 58.5670643,24.4276711 48.0663011,24.1092276 C46.1610787,24.0495194 44.1995322,23.9102004 42.3016564,23.7733692 C41.1066068,23.6887827 39.8723753,23.5992204 38.6675303,23.5345366 C35.0725862,23.3355094 31.4800909,22.8105752 28.1324829,22.2732019 C25.088535,21.7830974 21.9417345,21.278066 19.6226527,20.0863907 C17.8717092,19.1882806 16.9362401,18.2702677 16.9162639,17.4368414 C16.899507,16.760149 17.4554009,15.8545753 18.4055633,15.0161733 C19.865091,13.7274723 22.3678382,12.6850675 25.8452364,11.9138371 C28.6589904,11.2893894 31.8743593,10.8639688 35.9590779,10.5778672 C36.8651605,10.5156712 37.8079762,10.4609387 38.7605874,10.4136698 C49.8050002,9.87629637 60.7588047,9.73200167 70.0179898,9.65985432 C72.0113716,9.64492728 73.9704692,9.63746376 75.8977315,9.63746376 C84.9071316,9.63746376 93.2283987,9.80414902 101.192131,10.1449831 C102.482686,10.1997155 103.915276,10.2444967 105.431128,10.2917656 C114.91316,10.5853307 127.89708,10.9858729 133.122973,14.8395367 C134.526176,15.8719902 135.111457,16.899468 134.859223,17.8896282" id="Fill-10" fill="#81BEE2"></path>
                <path d="M132.18061,88.79248 C131.879219,88.8671488 131.580279,88.9418177 131.278889,89.0139976 C125.603926,90.4152836 119.821148,91.5726512 113.964861,92.4935673 C81.0495869,97.6706095 45.7991487,95.3284957 14.4594361,85.5842072 C13.5871189,85.3129102 13.9497676,83.9788263 14.8367869,84.195366 C47.7324586,92.2770276 81.4563416,93.8152065 114.812675,89.3948089 C120.421479,88.6506091 126.020482,87.7396488 131.602332,86.661928 C131.666041,86.6494832 131.727299,86.6420163 131.786107,86.6420163 C133.011271,86.5872591 133.486635,88.4614479 132.18061,88.79248" id="Fill-12" fill="#1A171B"></path>
                <path d="M80.3062965,183.472926 C74.7629531,185.95456 68.8510431,185.863921 63.362119,183.17913 C62.4642013,182.738437 62.8476097,180.897527 63.7653162,181.331969 C69.0860353,183.85736 74.5032249,183.735466 79.885784,181.538251 C80.8653306,181.138189 81.2586334,183.044734 80.3062965,183.472926" id="Fill-14" fill="#1A171B"></path>
                <path d="M86.2633915,177.377454 C77.3600492,181.458009 67.9411732,181.153248 59.181985,176.759842 C58.3048445,176.320231 59.0671504,174.907005 59.936961,175.335828 C68.346759,179.478414 77.3307298,179.510778 85.8382593,175.672952 C86.793585,175.241433 87.1991708,176.948631 86.2633915,177.377454" id="Fill-16" fill="#1A171B"></path>
                <path d="M92.2848365,171.246911 C91.4517163,171.492166 90.6161165,171.719904 89.7780371,171.930123 C77.7920151,174.95578 65.4390234,174.550357 53.5968138,170.741383 C52.4884663,170.386012 52.9620555,168.62918 54.0778416,168.979545 C65.1613167,172.47319 76.5745685,172.903639 87.7894584,170.381007 C89.1184836,170.083197 90.4450293,169.742842 91.7690954,169.359942 C92.9716649,169.014582 93.4799674,170.894042 92.2848365,171.246911" id="Fill-18" fill="#1A171B"></path>
                <path d="M81.9440111,203.962756 C80.8505487,204.114238 79.5703976,204.155022 78.4429917,204.189979 L77.6865388,204.213284 C75.8099536,204.274459 74.0376232,204.332721 72.1877078,204.323982 C70.4468962,204.315242 68.5460658,204.274459 66.3785371,204.201631 C65.9906126,204.189979 65.5905653,204.157935 65.1953672,204.12589 C64.9480652,204.105499 64.6934897,204.085107 64.4461878,204.070541 C63.7188292,204.026845 62.9890461,203.907407 62.305329,203.785057 C61.7040459,203.680185 61.080942,203.566574 60.6518005,203.321873 C60.4602627,203.214088 60.3657061,203.129608 60.3220646,203.080085 C60.3487344,203.036388 60.3948004,202.969387 60.4748099,202.893646 C60.6493759,202.721773 61.0324515,202.474159 61.8543667,202.273154 C62.4192819,202.133325 63.066631,202.037193 63.8933953,201.973104 C64.0776595,201.958539 64.2691972,201.946886 64.4631595,201.938147 C66.7373674,201.812883 68.9946036,201.780839 70.9051321,201.763361 C73.2375287,201.742969 75.3274724,201.780839 77.325284,201.874059 C77.5919822,201.888624 77.8877747,201.897364 78.2029634,201.909016 C80.0092373,201.970191 82.7344075,202.063411 83.7260397,202.876168 C83.8812095,203.001431 83.924851,203.085911 83.9345491,203.112129 C83.8618133,203.324786 83.1199075,203.799622 81.9440111,203.962756 M85.0983229,202.986866 C85.0304361,202.086716 84.1115397,201.454571 82.3634546,201.107912 C80.5377845,200.746686 78.508454,200.685511 76.5445858,200.627249 L75.8681423,200.603944 C73.6545476,200.531116 71.2979058,200.52529 68.6600186,200.586465 C68.3375563,200.592292 68.0126695,200.595205 67.6950562,200.598118 L67.3968392,200.598118 C66.9119335,200.603944 66.3373202,200.60977 65.7505842,200.627249 C65.0838388,200.644728 64.4922539,200.673859 63.9418858,200.717555 C63.2727159,200.769991 62.6956781,200.839906 62.1792535,200.927299 C61.5706968,201.032171 61.0736684,201.160347 60.6566495,201.317655 C60.1571966,201.507007 59.7789701,201.742969 59.5268192,202.019714 C59.0782814,202.512029 58.9740266,203.173304 59.2673946,203.66562 C59.4953003,204.05015 59.9268664,204.356026 60.5887627,204.600727 C60.7221118,204.65025 60.865159,204.696859 61.0130552,204.740556 C61.1100364,204.769687 61.2118666,204.798818 61.3185458,204.825036 C61.8664893,204.961952 62.4483762,205.055172 62.9987442,205.139652 C64.6231784,205.387266 66.322773,205.430962 67.9666034,205.468833 C68.2745186,205.477572 68.5824337,205.486311 68.8879243,205.495051 C70.0395754,205.527095 71.2663869,205.544574 72.5368399,205.544574 C73.6133307,205.544574 74.7407365,205.532921 75.885114,205.509616 C77.2016331,205.480485 78.2053879,205.442615 79.2358126,205.375613 C79.4831145,205.361048 79.7401146,205.349395 79.9946901,205.337743 C80.833577,205.29696 81.6991337,205.256176 82.4943791,205.095955 C82.6762188,205.060998 82.8580584,205.014388 83.0326245,204.964865 C83.1611245,204.926995 83.2847755,204.886211 83.3963038,204.845428 C84.8776908,204.30359 85.1395399,203.53453 85.0983229,202.986866" id="Fill-20" fill="#231F20"></path>
                <path d="M84.2431323,202.800828 C84.1722831,202.966522 83.4496217,203.336496 82.3042269,203.463604 C81.2391278,203.581633 79.9921825,203.613409 78.8940205,203.640647 L78.1571892,203.658805 C76.3292808,203.70647 74.6029228,203.751866 72.8009924,203.745057 C71.1053358,203.738247 69.253811,203.70647 67.1425059,203.649726 C66.7646437,203.640647 66.3749733,203.615679 65.9900262,203.590712 C65.7491391,203.574823 65.501167,203.558935 65.2602798,203.547586 C64.5517882,203.513539 63.8409349,203.420478 63.1749528,203.325147 C62.5892664,203.243435 61.9823252,203.154914 61.5643152,202.964252 C61.3777457,202.880271 61.2856418,202.814447 61.2431323,202.775861 C61.2691103,202.741814 61.3139815,202.689609 61.3919155,202.630595 C61.5619535,202.496678 61.9350925,202.303747 62.735688,202.147132 C63.2859498,202.038182 63.9165074,201.96328 64.7218262,201.913344 C64.9013108,201.901996 65.0878802,201.892916 65.2768113,201.886107 C67.4920285,201.788507 69.6907142,201.763539 71.5516855,201.74992 C73.823582,201.734032 75.8593147,201.763539 77.805305,201.836172 C78.0650853,201.847521 78.3532052,201.85433 78.6602182,201.863409 C80.4196391,201.911075 83.0741211,201.983708 84.0400314,202.616976 C84.1911762,202.714577 84.2336857,202.7804 84.2431323,202.800828" id="Fill-22" fill="#81BEE2"></path>
                <path d="M82.5382325,216.949169 C81.4447701,217.10065 80.164619,217.141434 79.0372131,217.176391 L78.2807602,217.199696 C76.404175,217.260871 74.6318446,217.319133 72.7819292,217.310394 C71.0411176,217.301655 69.1402872,217.260871 66.9727585,217.188043 C66.5848339,217.176391 66.1847867,217.144347 65.7895885,217.112303 C65.5422866,217.091911 65.2877111,217.071519 65.0404092,217.056954 C64.3130506,217.013257 63.5832675,216.89382 62.8995504,216.771469 C62.2982673,216.666597 61.6751634,216.552986 61.2460218,216.308285 C61.0544841,216.2005 60.9599275,216.11602 60.9162859,216.066497 C60.9429558,216.022801 60.9890218,215.955799 61.0690313,215.880058 C61.2435973,215.708185 61.6266728,215.460571 62.4485881,215.259567 C63.0135032,215.119737 63.6608524,215.023605 64.4876167,214.959517 C64.6718808,214.944951 64.8634186,214.933299 65.0573809,214.924559 C67.3315888,214.799296 69.588825,214.767251 71.4993535,214.749773 C73.8317501,214.729381 75.9216938,214.767251 77.9195054,214.860471 C78.1862036,214.875036 78.4819961,214.883776 78.7971848,214.895428 C80.6034586,214.956603 83.3286288,215.049823 84.3202611,215.86258 C84.4754309,215.987843 84.5190724,216.072323 84.5287705,216.098541 C84.4560347,216.311198 83.7141289,216.786035 82.5382325,216.949169 M85.6925443,215.973278 C85.6246575,215.073128 84.7057611,214.440983 82.957676,214.094324 C81.1320059,213.733098 79.1026754,213.671923 77.1388072,213.613661 L76.4623637,213.590356 C74.248769,213.517528 71.8921272,213.511702 69.25424,213.572878 C68.9317777,213.578704 68.6068908,213.581617 68.2892776,213.58453 L67.9910606,213.58453 C67.5061548,213.590356 66.9315415,213.596182 66.3448056,213.613661 C65.6780602,213.63114 65.0864752,213.660271 64.5361072,213.703967 C63.8669373,213.756403 63.2898995,213.826318 62.7734749,213.913711 C62.1649182,214.018583 61.6678898,214.14676 61.2508709,214.304067 C60.751418,214.493419 60.3731915,214.729381 60.1210405,215.006126 C59.6725027,215.498441 59.568248,216.159717 59.861616,216.652032 C60.0895217,217.036562 60.5210878,217.342438 61.1829841,217.587139 C61.3163332,217.636662 61.4593804,217.683272 61.6072766,217.726968 C61.7042578,217.756099 61.806088,217.78523 61.9127672,217.811448 C62.4607107,217.948364 63.0425976,218.041584 63.5929656,218.126064 C65.2173998,218.373678 66.9169944,218.417375 68.5608248,218.455245 C68.8687399,218.463984 69.1766551,218.472724 69.4821457,218.481463 C70.6337968,218.513507 71.8606083,218.530986 73.1310613,218.530986 C74.207552,218.530986 75.3349579,218.519333 76.4793354,218.496028 C77.7958545,218.466897 78.7996093,218.429027 79.830034,218.362026 C80.0773359,218.34746 80.334336,218.335808 80.5889115,218.324155 C81.4277984,218.283372 82.2933551,218.242588 83.0886005,218.082367 C83.2704402,218.04741 83.4522798,218.0008 83.6268459,217.951277 C83.7553459,217.913407 83.8789969,217.872624 83.9905252,217.83184 C85.4719122,217.290002 85.7337613,216.520942 85.6925443,215.973278" id="Fill-24" fill="#231F20"></path>
                <path d="M83.8976611,215.44522 C83.8268119,215.610914 83.1041504,215.980888 81.9587556,216.107996 C80.8936565,216.226025 79.6467113,216.257802 78.5485492,216.285039 L77.8117179,216.303197 C75.9838095,216.350862 74.2574516,216.396258 72.4555212,216.389449 C70.7598646,216.382639 68.9083398,216.350862 66.7970347,216.294118 C66.4191725,216.285039 66.0295021,216.260071 65.644555,216.235104 C65.4036678,216.219215 65.1556958,216.203327 64.9148086,216.191978 C64.206317,216.157931 63.4954637,216.06487 62.8294816,215.969539 C62.2437952,215.887827 61.636854,215.799306 61.2188439,215.608645 C61.0322745,215.524663 60.9401706,215.458839 60.8976611,215.420253 C60.9236391,215.386206 60.9685102,215.334001 61.0464443,215.274987 C61.2164823,215.14107 61.5896212,214.948139 62.3902168,214.791524 C62.9404786,214.682574 63.5710361,214.607672 64.376355,214.557737 C64.5558395,214.546388 64.742409,214.537308 64.9313401,214.530499 C67.1465572,214.432899 69.3452429,214.407931 71.2062143,214.394312 C73.4781108,214.378424 75.5138434,214.407931 77.4598338,214.480564 C77.719614,214.491913 78.007734,214.498722 78.314747,214.507801 C80.0741679,214.555467 82.7286499,214.6281 83.6945601,215.261368 C83.845705,215.358969 83.8882145,215.424792 83.8976611,215.44522" id="Fill-26" fill="#81BEE2"></path>
                <path d="M82.7904337,230.875273 C81.6969713,231.026755 80.4168202,231.067538 79.2894144,231.102496 L78.5329614,231.125801 C76.6563762,231.186976 74.8840458,231.245238 73.0341304,231.236499 C71.2933189,231.227759 69.3924884,231.186976 67.2249598,231.114148 C66.8370352,231.102496 66.436988,231.070452 66.0417898,231.038407 C65.7944879,231.018016 65.5399124,230.997624 65.2926104,230.983058 C64.5652518,230.939362 63.8354687,230.819924 63.1517516,230.697574 C62.5504685,230.592702 61.9273647,230.479091 61.4982231,230.23439 C61.3066853,230.126605 61.2121287,230.042125 61.1684872,229.992602 C61.195157,229.948905 61.241223,229.881904 61.3212325,229.806163 C61.4957986,229.63429 61.8788741,229.386676 62.7007893,229.185671 C63.2657045,229.045842 63.9130536,228.94971 64.7398179,228.885621 C64.9240821,228.871056 65.1156198,228.859403 65.3095821,228.850664 C67.58379,228.7254 69.8410262,228.693356 71.7515548,228.675878 C74.0839513,228.655486 76.173895,228.693356 78.1717067,228.786576 C78.4384048,228.801141 78.7341973,228.809881 79.049386,228.821533 C80.8556599,228.882708 83.5808301,228.975928 84.5724623,229.788684 C84.7276321,229.913948 84.7712737,229.998428 84.7809718,230.024646 C84.7082359,230.237303 83.9663301,230.712139 82.7904337,230.875273 M85.9447455,229.899383 C85.8768587,228.999232 84.9579624,228.367088 83.2098772,228.020428 C81.3842071,227.659203 79.3548766,227.598028 77.3910084,227.539766 L76.7145649,227.516461 C74.5009703,227.443633 72.1443284,227.437807 69.5064412,227.498982 C69.1839789,227.504809 68.8590921,227.507722 68.5414788,227.510635 L68.2432618,227.510635 C67.7583561,227.516461 67.1837428,227.522287 66.5970069,227.539766 C65.9302615,227.557244 65.3386765,227.586376 64.7883085,227.630072 C64.1191386,227.682508 63.5421007,227.752423 63.0256761,227.839816 C62.4171194,227.944688 61.9200911,228.072864 61.5030721,228.230172 C61.0036192,228.419524 60.6253928,228.655486 60.3732418,228.932231 C59.924704,229.424546 59.8204493,230.085821 60.1138172,230.578137 C60.3417229,230.962667 60.773289,231.268543 61.4351853,231.513244 C61.5685344,231.562767 61.7115816,231.609376 61.8594779,231.653073 C61.956459,231.682204 62.0582892,231.711335 62.1649685,231.737553 C62.7129119,231.874469 63.2947988,231.967689 63.8451668,232.052169 C65.469601,232.299783 67.1691956,232.343479 68.813026,232.38135 C69.1209412,232.390089 69.4288563,232.398828 69.7343469,232.407568 C70.885998,232.439612 72.1128095,232.457091 73.3832626,232.457091 C74.4597533,232.457091 75.5871591,232.445438 76.7315366,232.422133 C78.0480557,232.393002 79.0518106,232.355132 80.0822352,232.28813 C80.3295372,232.273565 80.5865372,232.261912 80.8411127,232.25026 C81.6799996,232.209476 82.5455564,232.168693 83.3408018,232.008472 C83.5226414,231.973515 83.704481,231.926905 83.8790471,231.877382 C84.0075471,231.839512 84.1311981,231.798728 84.2427264,231.757945 C85.7241134,231.216107 85.9859625,230.447047 85.9447455,229.899383" id="Fill-28" fill="#231F20"></path>
                <path d="M83.8078422,230.311018 C83.736993,230.476712 83.0143315,230.846686 81.8689367,230.973793 C80.8038376,231.091822 79.5568924,231.123599 78.4587303,231.150836 L77.721899,231.168995 C75.8939906,231.21666 74.1676327,231.262055 72.3657023,231.255246 C70.6700457,231.248437 68.8185209,231.21666 66.7072158,231.159915 C66.3293536,231.150836 65.9396832,231.125869 65.5547361,231.100901 C65.3138489,231.085013 65.0658769,231.069124 64.8249897,231.057775 C64.1164981,231.023729 63.4056448,230.930668 62.7396627,230.835337 C62.1539763,230.753625 61.5470351,230.665103 61.129025,230.474442 C60.9424556,230.39046 60.8503517,230.324636 60.8078422,230.28605 C60.8338202,230.252004 60.8786913,230.199799 60.9566254,230.140784 C61.1266634,230.006867 61.4998023,229.813936 62.3003979,229.657321 C62.8506597,229.548372 63.4812172,229.473469 64.2865361,229.423534 C64.4660206,229.412185 64.6525901,229.403106 64.8415212,229.396297 C67.0567383,229.298696 69.255424,229.273728 71.1163954,229.26011 C73.3882919,229.244221 75.4240245,229.273728 77.3700149,229.346361 C77.6297951,229.35771 77.9179151,229.36452 78.2249281,229.373599 C79.984349,229.421264 82.638831,229.493897 83.6047412,230.127166 C83.7558861,230.224766 83.7983956,230.29059 83.8078422,230.311018" id="Fill-30" fill="#81BEE2"></path>
            </g>
        </g>
    </g>
</svg>