<?xml version="1.0" encoding="UTF-8"?>
<svg width="274.064595px" height="518.112564px" viewBox="0 0 274.064595 518.112564" version="1.1" xmlns="http://www.w3.org/2000/svg" xmlns:xlink="http://www.w3.org/1999/xlink">
    <title>Group 32</title>
    <defs>
        <polygon id="path-1" points="0 0 273 0 273 452 0 452"></polygon>
    </defs>
    <g id="PAGES" stroke="none" stroke-width="1" fill="none" fill-rule="evenodd">
        <g id="MacBook-Pro-14&quot;" transform="translate(0, -2751.9437)">
            <g id="Group-32" transform="translate(68.5, 3011) rotate(-20) translate(-68.5, -3011)translate(-68, 2785)">
                <g id="Group-3" transform="translate(-0, -0)">
                    <mask id="mask-2" fill="white">
                        <use xlink:href="#path-1"></use>
                    </mask>
                    <g id="Clip-2"></g>
                    <path d="M244.014546,62.846123 C231.887462,65.7086581 217.820578,66.4498106 205.444916,67.1066403 C182.580125,68.322663 160.314586,69.7206452 137.418723,69.5475617 C116.444906,69.3877923 95.1115365,68.5268128 74.1643521,67.3285423 C67.1730795,66.9291188 60.0264452,65.6243353 53.0573671,64.900935 C45.0584635,64.0710217 37.0418042,61.8919446 29.3314293,59.5619742 C22.3445956,57.4494677 15.3089339,55.3192091 9.99112782,50.17996 C6.58205013,46.8869352 3.53252359,42.5509712 3.4691631,37.6336241 C3.41711211,33.7725303 5.12165096,29.4631946 7.092524,26.1879219 C10.9366142,19.806022 17.3952184,15.5588188 24.1512292,12.7406641 C31.4043971,9.71392155 39.2035501,8.0984754 46.9671919,7.07772646 C49.0623542,6.80256805 51.1663944,6.57179003 53.2704345,6.38095436 C76.5302875,4.25513373 100.096425,3.53617144 123.445056,3.19444244 C146.789248,2.85715149 170.160074,3.371964 193.437682,5.2448164 C214.402622,6.93570922 251.693849,6.16349045 265.538788,25.3580086 C278.393852,43.1767347 260.314199,58.9939052 244.014546,62.846123 M253.274098,67.9942481 C253.34956,79.0893453 252.728113,91.0898024 251.920233,102.198214 C250.140232,126.709502 247.60118,151.225229 242.895942,175.368161 C235.118984,215.28832 221.021027,254.684792 195.990052,287.166798 C184.46222,302.122989 170.25773,312.561257 156.688002,325.320618 C147.357428,334.094621 144.196929,343.836116 143.597677,355.201934 C143.562165,355.818821 143.539971,356.435709 143.517776,357.061472 C143.513338,357.27006 143.508899,357.483086 143.50446,357.691674 C143.446754,360.367811 143.508899,363.128271 143.650944,365.990807 L143.650944,365.995245 C143.668699,366.36804 143.690894,366.736397 143.708649,367.109192 C143.739722,367.672823 143.775233,368.240892 143.815183,368.808961 C144.174734,374.338758 144.782864,379.908496 145.430944,385.495987 C145.497527,386.077371 145.56855,386.658754 145.635133,387.244575 C145.670645,387.541923 145.706156,387.84371 145.741667,388.141059 C146.043512,390.697369 146.345358,393.262555 146.633887,395.823304 C146.687153,396.280422 146.735981,396.741978 146.784809,397.199096 C146.846954,397.753851 146.90466,398.308606 146.966804,398.863361 C147.534984,404.25114 148.001069,409.643357 148.178625,415.013384 C148.19638,415.501568 148.209697,415.989753 148.223014,416.477937 C148.231892,416.939493 148.24077,417.401049 148.245208,417.858167 C148.276281,420.161509 148.249647,422.455975 148.147553,424.746003 C148.125358,425.309634 148.098725,425.868827 148.063213,426.42802 C148.032141,426.965023 147.99663,427.506463 147.952241,428.047904 C147.881218,429.068653 147.788001,430.09384 147.677029,431.114589 C147.264211,434.984559 146.744859,438.597123 144.458824,441.854643 C138.919073,449.741038 128.722912,449.825361 122.237674,443.518908 C117.909744,439.311647 116.813335,434.225654 116.542561,428.620411 C116.515928,427.976896 116.493733,427.328942 116.480417,426.672112 C116.475978,426.254936 116.4671,425.833323 116.4671,425.411709 C116.462661,425.234188 116.462661,425.052228 116.462661,424.870268 C116.453783,422.433785 116.489295,419.997302 116.555878,417.565256 C116.569195,417.210213 116.578073,416.859608 116.591389,416.504565 C116.600267,416.082951 116.618023,415.661338 116.631339,415.239724 C116.822212,409.958458 117.150691,404.672753 117.496926,399.391487 C117.541315,398.739095 117.585704,398.082266 117.630093,397.429874 C117.656726,397.012698 117.68336,396.599961 117.709993,396.182785 C117.887549,393.551028 118.060666,390.919271 118.216028,388.287514 C118.242661,387.910281 118.264856,387.528609 118.28705,387.151376 C118.309245,386.743076 118.331439,386.334777 118.358073,385.926477 C118.486801,383.605383 118.602213,381.284289 118.690991,378.967632 C118.810841,375.869881 119.015031,372.59017 119.174831,369.239451 C119.201464,368.591497 119.232537,367.939106 119.254731,367.282276 C119.272487,366.8651 119.290243,366.443487 119.303559,366.021873 C119.387898,363.394554 119.418971,360.736169 119.325754,358.104411 C119.321315,357.913576 119.312437,357.718302 119.303559,357.527466 C119.29912,357.332193 119.290243,357.132481 119.281365,356.932769 C119.272487,356.781876 119.263609,356.635421 119.254731,356.484527 C119.241415,356.235997 119.228098,355.983029 119.210342,355.734499 C118.890741,350.803838 118.073983,346.001879 116.329494,341.661477 C113.27109,334.067993 105.929144,328.263038 100.637971,322.262809 C87.5920344,307.466388 74.719215,292.43475 63.5820067,276.124957 C39.2878893,240.5452 27.6268904,199.759622 21.8740718,157.42517 C18.4472385,132.199357 17.0800563,106.751642 16.6139715,81.3128028 C16.5118767,75.6809314 16.1612033,68.9573025 16.4230986,63.5384571 C16.6317271,59.1270464 16.4630488,59.0604758 17.1466399,58.2926951 C18.194221,58.8163837 19.2418022,59.2956919 20.2849445,59.7394958 C26.0466409,62.1937313 32.1146216,63.8491198 38.1692856,65.4157475 C58.8101858,70.7680224 80.4631558,71.7222007 101.685552,72.7651399 C126.765356,73.9989147 152.657478,73.9101539 177.515336,73.0225461 C189.979777,72.5787423 234.630705,70.7325181 248.644322,64.6790331 C250.419883,63.9112523 251.347614,63.64497 253.163126,62.7440481 C253.860033,63.3653735 253.251904,64.5192637 253.274098,67.9942481 M272.97839,36.1868235 C272.37026,22.4644072 258.951455,14.1785887 247.23719,10.2464862 C225.415541,2.91928403 200.047209,2.35121506 177.302269,1.09081202 C151.281418,-0.35155062 125.202862,-0.253913765 99.173133,0.744644983 C94.583307,0.922166538 89.9890422,0.926604577 85.3992162,0.984299082 C79.4644026,1.06418378 73.5295889,1.18844887 67.5992142,1.4769214 C61.0962209,1.79202216 54.5976666,2.29795859 48.1390623,3.14562402 C41.8047474,3.98441336 35.492627,5.14274151 29.3536238,6.93570922 C23.840506,8.54227929 18.4028495,10.6592238 13.5555671,13.7702891 C9.28534221,16.5085591 5.49007993,20.0856184 3.07531656,24.5857898 C0.314318739,29.7250389 -1.03066895,36.710512 0.926887387,42.3113171 C2.96434398,48.1384622 7.56304774,52.567625 12.7965147,55.8606498 C12.7920758,55.8917161 12.7920758,55.9227823 12.7920758,55.9538486 C13.0539711,121.840974 14.8295324,193.999048 46.0261444,253.752803 C60.039762,280.594062 79.6819088,303.915957 99.6924847,326.443442 C104.957024,332.368224 111.553234,337.565168 113.883658,345.384992 C114.873534,348.691331 115.450591,352.197382 115.761314,355.805507 C115.796826,356.227121 115.827898,356.648735 115.854531,357.074786 C115.881165,357.416515 115.903359,357.758244 115.916676,358.104411 C116.06316,360.682912 116.080915,363.296917 116.02321,365.919798 C116.014332,366.341412 116.005454,366.758587 115.992137,367.175763 C115.974382,367.819279 115.952187,368.458356 115.925554,369.101872 C115.681414,374.924579 115.166501,380.711782 114.895728,386.072932 C114.88685,386.210512 114.877973,386.343653 114.873534,386.481232 C114.860217,386.774143 114.842461,387.071491 114.824706,387.36884 C114.80695,387.697255 114.784756,388.030108 114.758122,388.367399 C114.593883,390.834948 114.327549,393.457829 114.034581,396.182785 C113.990192,396.546704 113.950242,396.910623 113.910292,397.278981 C113.848147,397.864802 113.781564,398.455061 113.710541,399.049758 C113.10685,404.415347 112.445454,410.100475 112.148047,415.736784 C112.125853,416.171712 112.103658,416.602202 112.081464,417.032692 C112.050391,417.818225 112.023758,418.594881 112.010441,419.375976 C111.966052,421.239953 111.97493,423.095053 112.050391,424.919087 C112.072586,425.433899 112.09478,425.944274 112.125853,426.45021 C112.161364,426.996089 112.201314,427.53753 112.250142,428.074532 C112.729544,433.648709 113.936925,438.898909 116.320616,443.421271 C122.82361,455.741267 142.740968,454.30778 148.564809,442.218562 C150.74875,437.696201 151.583264,432.548076 151.778575,427.289 C151.796331,426.862948 151.805209,426.436896 151.814087,426.010844 C151.827403,425.163179 151.827403,424.315513 151.822964,423.472286 C151.796331,421.892344 151.734186,420.312402 151.649847,418.745775 C151.609897,418.044565 151.565508,417.347792 151.521119,416.655458 C151.494486,416.260473 151.467852,415.869925 151.43678,415.479378 C151.27254,413.113903 151.081668,410.801685 150.935184,408.59598 C150.713239,405.231946 150.389199,401.850161 150.011892,398.455061 C149.963064,397.993505 149.909797,397.531949 149.85653,397.070393 C149.781069,396.395811 149.701169,395.716791 149.621268,395.037771 C149.37269,392.929703 149.110795,390.817196 148.853338,388.70469 C148.791194,388.203191 148.729049,387.697255 148.666904,387.195756 L148.493787,385.771146 C147.805757,380.077142 147.170994,374.369824 146.842515,368.680258 C146.807004,368.121065 146.775931,367.561872 146.749298,367.007117 C146.731542,366.541123 146.709348,366.075129 146.696031,365.613573 C146.598375,363.092767 146.576181,360.580837 146.638325,358.077783 C146.647203,357.72274 146.66052,357.372135 146.673837,357.02153 C146.691592,356.475651 146.718226,355.93421 146.744859,355.39277 C146.807004,354.292136 146.886904,353.191502 146.98456,352.090869 C148.80451,332.035371 164.970996,323.993645 178.234439,311.833418 C188.99434,301.967658 198.373743,290.637344 206.514691,278.534812 C249.438886,214.706937 253.957689,134.751229 257.84173,60.338631 C266.444324,55.0129844 273.440036,46.5851485 272.97839,36.1868235" id="Fill-1" fill="#1A171B" mask="url(#mask-2)"></path>
                </g>
                <path d="M253.400512,67.8762781 C253.475919,78.9788728 252.85492,90.9874392 252.047622,102.103357 C250.268904,126.631209 247.73168,151.163502 243.029833,175.322748 C235.258477,215.269884 221.170676,254.692977 196.157733,287.196933 C184.638206,302.163231 170.443948,312.608552 156.883996,325.376536 C147.560143,334.156468 144.401921,343.904546 143.803101,355.278044 C143.767615,355.895348 143.745437,356.512652 143.723258,357.138839 C143.718822,357.347568 143.714387,357.560737 143.709951,357.769466 C143.652287,360.447412 143.714387,363.209738 143.856329,366.074207 L143.856329,366.078648 C143.874072,366.451695 143.896251,366.820301 143.913993,367.193349 C143.945043,367.75736 143.980529,368.325813 144.02045,368.894266 C144.379742,374.427799 144.987434,380.001302 145.635047,385.592568 C145.701583,386.174344 145.772554,386.75612 145.83909,387.342337 C145.874575,387.639887 145.910061,387.941878 145.945546,388.239427 C146.247174,390.797465 146.548802,393.364385 146.837123,395.926864 C146.890352,396.38429 146.939145,396.846158 146.987937,397.303585 C147.050037,397.858715 147.107701,398.413845 147.169801,398.968975 C147.737572,404.360395 148.203321,409.756256 148.380749,415.129911 C148.398492,415.618426 148.411799,416.10694 148.425106,416.595454 C148.433977,417.057322 148.442849,417.51919 148.447284,417.976617 C148.478334,420.281515 148.45172,422.577532 148.349699,424.869107 C148.32752,425.433119 148.300906,425.99269 148.26542,426.552261 C148.234371,427.089626 148.198885,427.631433 148.154528,428.17324 C148.083557,429.194678 147.990407,430.220558 147.879514,431.241997 C147.466993,435.114582 146.948016,438.729587 144.663628,441.989308 C139.127867,449.881033 128.939052,449.965412 122.458486,443.654698 C118.133673,439.444594 117.038054,434.355164 116.767476,428.746133 C116.740862,428.102183 116.718683,427.453791 116.705376,426.796518 C116.70094,426.37906 116.692069,425.957162 116.692069,425.535263 C116.687633,425.357622 116.687633,425.175539 116.687633,424.993456 C116.678762,422.555327 116.714247,420.117197 116.780783,417.683508 C116.79409,417.328225 116.802961,416.977383 116.816269,416.6221 C116.82514,416.200201 116.842883,415.778303 116.85619,415.356404 C117.046925,410.071569 117.375167,404.782293 117.721152,399.497458 C117.765509,398.844625 117.809867,398.187352 117.854224,397.534519 C117.880838,397.117062 117.907452,396.704045 117.934066,396.286588 C118.111495,393.653052 118.284487,391.019517 118.439737,388.385981 C118.466351,388.008493 118.488529,387.626564 118.510708,387.249076 C118.532887,386.8405 118.555065,386.431925 118.581679,386.023349 C118.710315,383.700686 118.825643,381.378024 118.914357,379.059802 C119.034121,375.959957 119.238164,372.67803 119.397849,369.325047 C119.424463,368.676655 119.455513,368.023823 119.477692,367.366549 C119.495435,366.949091 119.513177,366.527193 119.526485,366.105294 C119.610763,363.4762 119.641813,360.816018 119.548663,358.182483 C119.544227,357.991518 119.535356,357.796112 119.526485,357.605148 C119.522049,357.409742 119.513177,357.209895 119.504306,357.010049 C119.495435,356.859053 119.486563,356.712499 119.477692,356.561504 C119.464385,356.312806 119.451078,356.059667 119.433335,355.810968 C119.113964,350.876975 118.297794,346.071772 116.554562,341.728437 C113.498361,334.129822 106.161704,328.320944 100.874343,322.316661 C87.8378045,307.510241 74.9742586,292.468445 63.8450735,276.147631 C39.5684574,240.543831 27.915859,199.730692 22.1671847,157.367632 C18.7428201,132.124773 17.3766228,106.659862 16.9108737,81.2038327 C16.8088525,75.5681557 16.4584318,68.8399833 16.7201384,63.4174761 C16.9286165,59.0030844 16.7600597,58.9364688 17.4431584,58.1681693 C18.4899849,58.6922118 19.5368114,59.1718438 20.5792022,59.6159476 C26.3367479,62.0718416 32.4003573,63.7283487 38.4506596,65.2960351 C59.0766901,70.6519267 80.7140615,71.6067499 101.921169,72.6503938 C126.982906,73.8850023 152.856376,73.7961816 177.696326,72.907974 C190.151787,72.4638702 234.770549,70.6163984 248.774071,64.5588228 C250.548353,63.7905232 251.475416,63.524061 253.289619,62.6225303 C253.986025,63.2442756 253.378334,64.3989454 253.400512,67.8762781" id="Fill-4" fill="#ACC4DA"></path>
                <path d="M243.924419,63.0052779 C231.817016,65.8478184 217.77296,66.583794 205.417382,67.2360358 C182.589698,68.4435646 160.360294,69.831782 137.501588,69.6599075 C116.561808,69.5012541 95.2630605,68.6462884 74.3498708,67.4563878 C67.3699442,67.0597542 60.2349081,65.7640846 53.2771399,65.0457372 C45.2912175,64.2216208 37.2875683,62.0577645 29.5897064,59.7440688 C22.6142114,57.646318 15.5899678,55.5309391 10.2807918,50.4275874 C6.87724666,47.1575641 3.83266914,42.8518866 3.76941147,37.9688869 C3.71744495,34.1347626 5.41921754,29.8555273 7.3868921,26.6031322 C11.2247438,20.2658095 17.6728665,16.0482728 24.4179131,13.2498027 C31.65931,10.2442018 39.4458059,8.64003948 47.1968483,7.62642041 C49.2886104,7.35318397 51.389236,7.12401792 53.4898615,6.93451522 C76.7119666,4.82354333 100.239859,4.10960295 123.550598,3.77026091 C146.856906,3.43532591 170.189803,3.94654249 193.429635,5.80631313 C214.360552,7.48539515 251.591259,6.71857029 265.413729,25.7790158 C278.247931,43.4732792 260.197619,59.1799677 243.924419,63.0052779" id="Fill-6" fill="#ACC4DA"></path>
                <path d="M243.99917,31.6601331 C242.839839,36.1416393 232.707909,39.7339227 223.761962,40.8354973 C214.012034,42.0343998 202.698563,42.3485034 192.717657,42.622791 L186.130348,42.8085988 C169.606552,43.2775422 153.997783,43.7155176 137.682755,43.6535817 C122.336058,43.5916458 105.616819,43.2863902 86.5700341,42.7201189 C83.1142509,42.613943 79.5563045,42.3661994 76.1138469,42.1228797 C73.9462092,41.9724639 71.7075013,41.8132001 69.522096,41.6981762 C63.0014151,41.3442567 56.4851761,40.4107939 50.4131252,39.4552111 C44.8918674,38.5836842 39.1840507,37.6856134 34.9775897,35.5665201 C31.801645,33.9694581 30.1048466,32.3370042 30.0686128,30.8549661 C30.0382183,29.6516397 31.0465253,28.0413057 32.769975,26.5504196 C35.4173359,24.2587906 39.956938,22.4051369 46.2644086,21.0336987 C51.3681295,19.9232761 57.2003189,19.1667731 64.6093759,18.6580137 C66.2528718,18.5474139 67.9629958,18.450086 69.6908874,18.3660301 C89.7237694,17.4104473 109.592302,17.1538557 126.387053,17.0255598 C130.002744,16.9990159 133.556248,16.9857439 137.052008,16.9857439 C153.393688,16.9857439 168.487198,17.2821515 182.932194,17.8882387 C185.273065,17.9855666 187.871566,18.0651985 190.62109,18.1492544 C207.820052,18.6712857 231.370903,19.3835488 240.849877,26.236316 C243.395074,28.0722737 244.456684,29.8993833 243.99917,31.6601331 M247.921351,30.2046389 C247.335023,23.3253278 234.289219,20.029452 226.564788,18.6801337 C210.756135,15.9107133 193.024147,15.4373459 175.878488,14.9772505 C173.875199,14.9197385 171.894121,14.8666506 169.939693,14.8135627 C150.537558,14.2517154 129.869487,14.2030515 106.749498,14.6675709 C103.92002,14.7250828 101.03724,14.7383548 98.2477385,14.7516267 L95.6270289,14.7648987 C91.3805909,14.7958667 86.3479401,14.8445306 81.2264516,14.9728265 C75.3987042,15.1232423 70.2416806,15.35329 65.4666589,15.6806656 C59.6655627,16.078825 54.6817725,16.6052804 50.2265662,17.2821515 C45.056217,18.0651985 40.8453141,19.0163573 37.3451121,20.1887158 C33.4229315,21.4982181 30.4868483,23.0820081 28.6212584,24.9002697 C25.8983855,27.5413944 25.1788009,30.8018782 26.7956454,33.2085311 C28.3414199,35.5178561 31.6861561,37.5263496 36.7321326,39.1809234 C37.8514865,39.548115 39.0507943,39.8976105 40.290079,40.2161381 C41.1029432,40.4284898 41.9646681,40.6364176 42.8530442,40.8310733 C47.552554,41.875136 52.5985305,42.5918231 57.3646685,43.2333022 C71.4631978,45.1400438 86.3079632,45.4629954 100.664122,45.777099 C103.373669,45.8346109 106.078774,45.8921228 108.779438,45.9629067 C118.915809,46.2239224 129.602974,46.3522182 140.752095,46.3522182 C150.222185,46.3522182 160.025415,46.2593144 170.104043,46.0690826 C181.639607,45.8567309 190.412321,45.5514753 199.447107,45.0559879 C201.623628,44.9365401 203.902313,44.8392122 206.101044,44.7463083 C213.376845,44.4410527 220.896949,44.1225251 227.70191,42.9191986 C229.225475,42.649335 230.740156,42.3219594 232.197093,41.9459199 C233.263145,41.6716322 234.280335,41.3752246 235.226456,41.069969 C240.174711,39.4729071 248.409958,35.9381356 247.921351,30.2046389" id="Fill-8" fill="#231F20"></path>
                <path d="M244.00971,31.2362679 C242.850563,35.7725949 232.720244,39.4088215 223.775718,40.5238713 C214.02734,41.7374395 202.715668,42.0553855 192.736349,42.3330284 L186.150086,42.5211091 C169.628917,42.9957889 154.022629,43.4391219 137.710194,43.3764284 C122.365936,43.3137348 105.649354,43.0047451 86.6055975,42.4315468 C83.1503636,42.3240721 79.5929827,42.0732979 76.1510723,41.8270018 C73.9837791,41.674746 71.7454271,41.513534 69.5603691,41.3971031 C63.0407247,41.0388541 56.5255215,40.0939726 50.4544357,39.1267005 C44.9340556,38.2445125 39.2271462,37.3354559 35.0213537,35.1904404 C31.8459139,33.5738422 30.1493851,31.921419 30.1131572,30.4212516 C30.0827675,29.2032053 31.0909142,27.5731727 32.8140899,26.0640491 C35.46103,23.7443873 39.9999105,21.8680586 46.3063786,20.479844 C51.4092883,19.355838 57.2405506,18.5900809 64.6484299,18.0750981 C66.2916646,17.9631453 68.0015168,17.8646269 69.7291338,17.7795427 C89.7588315,16.8122706 109.624206,16.5525402 126.416287,16.4226749 C130.031403,16.3958063 133.584343,16.3823719 137.079548,16.3823719 C153.418629,16.3823719 168.509741,16.6824054 182.952441,17.2959067 C185.29294,17.3944251 187.891027,17.4750312 190.640114,17.5601153 C207.836342,18.0885324 231.38345,18.8095084 240.860917,25.7461032 C243.40571,27.6045195 244.467151,29.4539796 244.00971,31.2362679" id="Fill-10" fill="#81BEE2"></path>
                <path d="M239.107797,160.958812 C238.563268,161.087785 238.023166,161.216759 237.478637,161.341433 C227.225553,163.761836 216.777678,165.760926 206.196991,167.351599 C146.728218,176.293763 83.0404512,172.248294 26.4182814,155.41725 C24.842246,154.948646 25.4974517,152.644319 27.1000495,153.018342 C86.533406,166.977576 147.463111,169.63443 207.728755,161.999198 C217.862309,160.713762 227.978154,159.140285 238.063009,157.278767 C238.178113,157.257272 238.28879,157.244375 238.395039,157.244375 C240.608572,157.149794 241.467423,160.387029 239.107797,160.958812" id="Fill-12" fill="#1A171B"></path>
                <path d="M146.244478,332.932492 C136.389646,336.654943 125.879584,336.518984 116.121496,332.491798 C114.525198,331.830759 115.206813,329.069394 116.838291,329.721057 C126.297348,333.509143 135.927907,333.326303 145.496901,330.03048 C147.238317,329.430387 147.937522,332.290205 146.244478,332.932492" id="Fill-14" fill="#1A171B"></path>
                <path d="M155.880498,321.422948 C139.663696,327.951836 122.507886,327.464219 106.553651,320.434768 C104.956002,319.731392 106.344488,317.47023 107.928786,318.156346 C123.246632,324.784484 139.610293,324.836266 155.10615,318.695745 C156.846208,318.005314 157.584954,320.736832 155.880498,321.422948" id="Fill-16" fill="#1A171B"></path>
                <path d="M166.421816,310.628413 C164.9222,311.069873 163.41812,311.479801 161.909577,311.858196 C140.334738,317.304377 118.099353,316.574616 96.7833752,309.718463 C94.7883497,309.078796 95.6408103,305.916497 97.6492252,306.547155 C117.59948,312.835715 138.143334,313.610524 158.330135,309.069787 C160.722381,308.533728 163.110163,307.921088 165.493482,307.231869 C167.658107,306.610221 168.573052,309.99325 166.421816,310.628413" id="Fill-18" fill="#1A171B"></path>
                <path d="M149.715287,368.26578 C147.696587,368.50815 145.333231,368.573404 143.251867,368.629336 L141.855338,368.666624 C138.390873,368.764504 135.118879,368.857723 131.70365,368.84374 C128.489844,368.829758 124.980619,368.764504 120.979027,368.64798 C120.262859,368.629336 119.52431,368.578065 118.794714,368.526794 C118.338156,368.494168 117.868171,368.461541 117.411613,368.438236 C116.068797,368.368321 114.721506,368.177222 113.459259,367.981461 C112.349197,367.813666 111.198852,367.631888 110.406591,367.240366 C110.052982,367.06791 109.878416,366.932742 109.797847,366.853506 C109.847084,366.783591 109.932129,366.676389 110.079839,366.555204 C110.402114,366.280206 111.109331,365.884024 112.626713,365.562417 C113.669633,365.33869 114.864739,365.184878 116.391073,365.082337 C116.731253,365.059032 117.084861,365.040388 117.442946,365.026405 C121.641483,364.825983 125.808689,364.774712 129.335818,364.746747 C133.641781,364.71412 137.500139,364.774712 141.188406,364.923864 C141.680772,364.947168 142.226851,364.961151 142.808737,364.979795 C146.143397,365.077676 151.17448,365.226827 153.005186,366.527238 C153.291653,366.727659 153.372222,366.862828 153.390127,366.904776 C153.255845,367.245027 151.886173,368.004766 149.715287,368.26578 M155.538632,366.704355 C155.413302,365.264114 153.716878,364.252684 150.489644,363.698028 C147.119176,363.120068 143.37272,363.022187 139.747117,362.928968 L138.498299,362.89168 C134.411662,362.775156 130.060939,362.765834 125.190993,362.863714 C124.595678,362.873036 123.995887,362.877697 123.409524,362.882358 L122.85897,362.882358 C121.963759,362.89168 120.902935,362.901002 119.81973,362.928968 C118.588815,362.956934 117.496658,363.003543 116.480594,363.073458 C115.245204,363.157355 114.179903,363.269219 113.226504,363.409048 C112.103015,363.576843 111.185424,363.781926 110.415543,364.033618 C109.493476,364.336581 108.795211,364.71412 108.329702,365.156912 C107.501632,365.944616 107.309162,367.002657 107.850764,367.790361 C108.271513,368.405609 109.068251,368.895011 110.290213,369.286533 C110.536396,369.365769 110.800483,369.440345 111.073522,369.510259 C111.252565,369.556869 111.440559,369.603479 111.637505,369.645428 C112.649093,369.864493 113.723346,370.013644 114.73941,370.148812 C117.738365,370.544995 120.876078,370.61491 123.910842,370.675502 C124.479301,370.689485 125.04776,370.703468 125.611742,370.717451 C127.737867,370.768722 130.00275,370.796687 132.348202,370.796687 C134.335569,370.796687 136.416934,370.778044 138.529631,370.740756 C140.960128,370.694146 142.813214,370.633553 144.715536,370.526351 C145.172093,370.503046 145.646555,370.484402 146.116541,370.465758 C147.665255,370.400505 149.263206,370.335251 150.731351,370.078898 C151.067055,370.022966 151.402759,369.948391 151.725035,369.869154 C151.962266,369.808561 152.190544,369.743308 152.396443,369.678054 C155.131311,368.811114 155.614725,367.580617 155.538632,366.704355" id="Fill-20" fill="#231F20"></path>
                <path d="M152.576083,366.735859 C152.443626,367.067247 151.092564,367.807195 148.951173,368.061411 C146.959901,368.297468 144.628656,368.361022 142.57557,368.415496 L141.198016,368.451813 C137.780622,368.547143 134.553083,368.637935 131.184257,368.624316 C128.014116,368.610697 124.55257,368.547143 120.605347,368.433655 C119.898909,368.415496 119.170395,368.365561 118.450711,368.315626 C118.000357,368.283849 117.536757,368.252072 117.086403,368.229374 C115.761832,368.161281 114.432845,367.975159 113.187748,367.784498 C112.092769,367.621073 110.958053,367.444031 110.176556,367.062708 C109.827752,366.894744 109.655558,366.763097 109.576083,366.685924 C109.624651,366.617831 109.708541,366.513421 109.854243,366.395392 C110.172141,366.127558 110.869748,365.741696 112.366514,365.428466 C113.395264,365.210567 114.574133,365.060762 116.079729,364.960892 C116.415287,364.938194 116.76409,364.920036 117.117309,364.906417 C121.258802,364.711216 125.369389,364.661281 128.848596,364.634043 C133.096055,364.602266 136.90199,364.661281 140.540146,364.806547 C141.025822,364.829244 141.564481,364.842863 142.138462,364.861021 C145.427814,364.956352 150.390541,365.101618 152.196373,366.368155 C152.478948,366.563356 152.558423,366.695003 152.576083,366.735859" id="Fill-22" fill="#81BEE2"></path>
                <path d="M149.366365,392.614871 C147.347665,392.857242 144.984309,392.922496 142.902944,392.978427 L141.506416,393.015715 C138.041951,393.113595 134.769956,393.206815 131.354728,393.192832 C128.140922,393.178849 124.631696,393.113595 120.630105,392.997071 C119.913937,392.978427 119.175388,392.927156 118.445791,392.875886 C117.989234,392.843259 117.519248,392.810632 117.062691,392.787327 C115.719875,392.717413 114.372583,392.526313 113.110336,392.330552 C112.000275,392.162757 110.84993,391.980979 110.057668,391.589458 C109.70406,391.417002 109.529494,391.281834 109.448925,391.202597 C109.498162,391.132683 109.583207,391.02548 109.730916,390.904295 C110.053192,390.629298 110.760408,390.233115 112.27779,389.911508 C113.320711,389.687781 114.515817,389.533969 116.042151,389.431428 C116.382331,389.408123 116.735939,389.389479 117.094023,389.375496 C121.292561,389.175075 125.459766,389.123804 128.986896,389.095838 C133.292859,389.063211 137.151216,389.123804 140.839484,389.272955 C141.33185,389.29626 141.877928,389.310243 142.459815,389.328887 C145.794475,389.426767 150.825558,389.575918 152.656264,390.876329 C152.942731,391.076751 153.0233,391.211919 153.041204,391.253868 C152.906923,391.594119 151.53725,392.353857 149.366365,392.614871 M155.18971,391.053446 C155.06438,389.613206 153.367956,388.601775 150.140722,388.04712 C146.770254,387.469159 143.023798,387.371279 139.398195,387.278059 L138.149376,387.240771 C134.06274,387.124247 129.712016,387.114925 124.842071,387.212806 C124.246756,387.222128 123.646965,387.226789 123.060602,387.23145 L122.510047,387.23145 C121.614837,387.240771 120.554012,387.250093 119.470807,387.278059 C118.239893,387.306025 117.147736,387.352635 116.131672,387.422549 C114.896281,387.506447 113.830981,387.61831 112.877582,387.758139 C111.754092,387.925934 110.836501,388.131017 110.06662,388.382709 C109.144553,388.685673 108.446289,389.063211 107.98078,389.506004 C107.15271,390.293708 106.96024,391.351748 107.501842,392.139452 C107.922591,392.754701 108.719328,393.244103 109.941291,393.635624 C110.187474,393.714861 110.451561,393.789436 110.7246,393.859351 C110.903642,393.90596 111.091636,393.95257 111.288583,393.994519 C112.300171,394.213585 113.374423,394.362736 114.390487,394.497904 C117.389443,394.894086 120.527156,394.964001 123.56192,395.024594 C124.130379,395.038577 124.698837,395.052559 125.26282,395.066542 C127.388945,395.117813 129.653828,395.145779 131.99928,395.145779 C133.986647,395.145779 136.068012,395.127135 138.180709,395.089847 C140.611205,395.043237 142.464291,394.982645 144.366614,394.875443 C144.823171,394.852138 145.297633,394.833494 145.767618,394.81485 C147.316333,394.749596 148.914283,394.684343 150.382429,394.427989 C150.718133,394.372058 151.053837,394.297482 151.376113,394.218246 C151.613343,394.157653 151.841622,394.092399 152.04752,394.027146 C154.782389,393.160205 155.265803,391.929709 155.18971,391.053446" id="Fill-24" fill="#231F20"></path>
                <path d="M153.166854,391.426971 C153.034397,391.758359 151.683334,392.498307 149.541944,392.752522 C147.550671,392.988579 145.219426,393.052133 143.16634,393.106608 L141.788786,393.142924 C138.371392,393.238255 135.143853,393.329046 131.775027,393.315428 C128.604886,393.301809 125.14334,393.238255 121.196118,393.124766 C120.48968,393.106608 119.761165,393.056673 119.041482,393.006738 C118.591127,392.974961 118.127527,392.943184 117.677173,392.920486 C116.352602,392.852393 115.023615,392.666271 113.778518,392.475609 C112.683539,392.312185 111.548823,392.135142 110.767326,391.753819 C110.418522,391.585855 110.246328,391.454208 110.166854,391.377036 C110.215421,391.308942 110.299311,391.204532 110.445014,391.086504 C110.762911,390.81867 111.460518,390.432807 112.957284,390.119578 C113.986034,389.901679 115.164903,389.751873 116.670499,389.652003 C117.006057,389.629305 117.354861,389.611147 117.70808,389.597528 C121.849573,389.402327 125.960159,389.352392 129.439366,389.325155 C133.686825,389.293378 137.49276,389.352392 141.130916,389.497658 C141.616592,389.520356 142.155251,389.533975 142.729232,389.552133 C146.018584,389.647464 150.981311,389.792729 152.787143,391.059267 C153.069719,391.254468 153.149193,391.386115 153.166854,391.426971" id="Fill-26" fill="#81BEE2"></path>
                <path d="M149.957135,417.305983 C147.938435,417.548353 145.575079,417.613607 143.493715,417.669539 L142.097186,417.706827 C138.632721,417.804707 135.360727,417.897926 131.945498,417.883943 C128.731692,417.869961 125.222467,417.804707 121.220875,417.688183 C120.504707,417.669539 119.766158,417.618268 119.036562,417.566997 C118.580004,417.534371 118.110019,417.501744 117.653461,417.478439 C116.310645,417.408524 114.963353,417.217425 113.701107,417.021664 C112.591045,416.853869 111.4407,416.672091 110.648438,416.280569 C110.29483,416.108113 110.120264,415.972945 110.039695,415.893709 C110.088932,415.823794 110.173977,415.716592 110.321687,415.595407 C110.643962,415.320409 111.351179,414.924227 112.868561,414.60262 C113.911481,414.378893 115.106587,414.225081 116.632921,414.12254 C116.973101,414.099235 117.326709,414.080591 117.684794,414.066608 C121.883331,413.866186 126.050537,413.814915 129.577666,413.78695 C133.883629,413.754323 137.741987,413.814915 141.430254,413.964067 C141.92262,413.987371 142.468699,414.001354 143.050585,414.019998 C146.385245,414.117879 151.416328,414.26703 153.247034,415.567441 C153.533501,415.767862 153.61407,415.903031 153.631975,415.944979 C153.497693,416.28523 152.128021,417.044969 149.957135,417.305983 M155.78048,415.744558 C155.65515,414.304317 153.958726,413.292887 150.731492,412.738231 C147.361024,412.160271 143.614568,412.06239 139.988965,411.969171 L138.740146,411.931883 C134.65351,411.815359 130.302787,411.806037 125.432841,411.903917 C124.837526,411.913239 124.237735,411.9179 123.651372,411.922561 L123.100818,411.922561 C122.205607,411.931883 121.144783,411.941205 120.061578,411.969171 C118.830663,411.997137 117.738506,412.043746 116.722442,412.113661 C115.487052,412.197558 114.421751,412.309422 113.468352,412.449251 C112.344863,412.617046 111.427272,412.822129 110.657391,413.073821 C109.735324,413.376784 109.037059,413.754323 108.57155,414.197115 C107.74348,414.984819 107.55101,416.04286 108.092612,416.830564 C108.513361,417.445812 109.310099,417.935214 110.532061,418.326736 C110.778244,418.405972 111.042331,418.480548 111.31537,418.550462 C111.494412,418.597072 111.682407,418.643682 111.879353,418.68563 C112.890941,418.904696 113.965194,419.053847 114.981258,419.189015 C117.980213,419.585198 121.117926,419.655113 124.15269,419.715705 C124.721149,419.729688 125.289608,419.743671 125.85359,419.757654 C127.979715,419.808925 130.244598,419.83689 132.59005,419.83689 C134.577417,419.83689 136.658782,419.818247 138.771479,419.780959 C141.201976,419.734349 143.055061,419.673756 144.957384,419.566554 C145.413941,419.543249 145.888403,419.524605 146.358389,419.505961 C147.907103,419.440708 149.505054,419.375454 150.973199,419.119101 C151.308903,419.063169 151.644607,418.988594 151.966883,418.909357 C152.204114,418.848764 152.432392,418.783511 152.638291,418.718257 C155.373159,417.851317 155.856573,416.62082 155.78048,415.744558" id="Fill-28" fill="#231F20"></path>
                <path d="M152.817931,415.776062 C152.685474,416.10745 151.334412,416.847398 149.193021,417.101614 C147.201749,417.337671 144.870504,417.401225 142.817418,417.455699 L141.439864,417.492016 C138.02247,417.587346 134.794931,417.678138 131.426105,417.664519 C128.255964,417.6509 124.794418,417.587346 120.847195,417.473857 C120.140757,417.455699 119.412243,417.405764 118.692559,417.355829 C118.242205,417.324052 117.778605,417.292275 117.328251,417.269577 C116.003679,417.201484 114.674693,417.015362 113.429596,416.824701 C112.334617,416.661276 111.199901,416.484234 110.418404,416.102911 C110.0696,415.934947 109.897406,415.8033 109.817931,415.726127 C109.866499,415.658034 109.950389,415.553624 110.096091,415.435595 C110.413989,415.167761 111.111596,414.781899 112.608362,414.468669 C113.637112,414.25077 114.815981,414.100965 116.321577,414.001095 C116.657135,413.978397 117.005938,413.960239 117.359157,413.94662 C121.50065,413.751419 125.611237,413.701484 129.090444,413.674246 C133.337903,413.642469 137.143838,413.701484 140.781993,413.84675 C141.26767,413.869447 141.806329,413.883066 142.38031,413.901224 C145.669662,413.996555 150.632389,414.141821 152.438221,415.408358 C152.720796,415.603559 152.80027,415.735206 152.817931,415.776062" id="Fill-30" fill="#81BEE2"></path>
            </g>
        </g>
    </g>
</svg>