<?xml version="1.0" encoding="UTF-8"?>
<svg width="458.832007px" height="722.999218px" viewBox="0 0 458.832007 722.999218" version="1.1" xmlns="http://www.w3.org/2000/svg" xmlns:xlink="http://www.w3.org/1999/xlink">
    <title>Group 18</title>
    <defs>
        <polygon id="path-1" points="0 0 349 0 349 635 0 635"></polygon>
    </defs>
    <g id="PAGES" stroke="none" stroke-width="1" fill="none" fill-rule="evenodd">
        <g id="MacBook-Pro-14&quot;" transform="translate(-1053.168, -280.0004)">
            <g id="Group-18" transform="translate(1345.5, 641.5) rotate(25) translate(-1345.5, -641.5)translate(1171, 324)">
                <g id="Group-3" transform="translate(0, 0)">
                    <mask id="mask-2" fill="white">
                        <use xlink:href="#path-1"></use>
                    </mask>
                    <g id="Clip-2"></g>
                    <path d="M345.199416,352.977302 C344.742257,373.949051 340.996411,394.935103 329.384576,412.754367 C319.532802,427.873135 305.032293,440.119767 288.343137,447.016901 C287.505965,447.363045 286.660221,447.694885 285.81162,448.012422 C285.180169,448.24986 284.485859,447.872248 284.342997,447.214288 C280.834302,431.185819 277.322751,415.15735 273.816913,399.128881 C266.002354,363.424557 257.910641,327.219612 258.664954,290.44825 C259.033538,272.631847 261.81935,255.155866 266.925243,238.091826 C271.639694,222.343704 277.811339,207.090483 283.485824,191.674203 C283.514396,191.594103 283.545826,191.514004 283.574398,191.433904 C283.791549,190.844601 284.454429,190.55281 285.034449,190.795969 C301.269304,197.590118 319.198504,203.912252 329.573154,219.073931 C335.461932,227.68176 337.839158,238.046054 339.096345,248.258733 C340.507823,259.74728 341.207847,271.350256 342.039305,282.893156 C342.902192,294.873744 343.647933,306.862913 344.276526,318.857803 C344.867976,330.21762 345.447996,341.597461 345.199416,352.977302 M288.674577,483.991372 C289.746043,488.891741 290.814652,493.79211 291.883261,498.692479 C291.92612,498.887007 291.960407,499.084395 291.986122,499.284643 C294.297631,518.039354 291.580393,537.452024 284.974447,555.079622 C278.019918,573.645527 266.502371,590.55509 251.521846,603.551223 C235.90987,617.093749 216.540905,625.795981 196.25448,629.389013 C175.970626,632.979184 154.715595,631.402941 135.269199,624.5573 C116.21996,617.854694 99.325082,605.851221 86.3274835,590.423498 C73.5384637,575.241794 64.4895751,556.88758 60.3408582,537.463467 C55.5435472,515.018461 58.6150834,492.456166 64.6695814,470.563274 C66.3153534,464.621612 68.1071305,458.725722 69.9526237,452.849856 C70.04977,452.540901 71.2669555,448.698989 71.366959,448.384312 C76.4957102,432.281465 81.8673271,416.264439 85.5817431,399.723905 C91.0047903,375.55104 93.9677513,350.814617 94.4420537,326.046728 C94.5906303,318.282804 94.493484,310.51888 94.1506149,302.763538 C93.8048885,294.968146 93.2105819,287.184198 92.3562663,279.428856 C91.5019506,271.673514 90.3904831,263.946779 89.0161492,256.265815 C87.7189608,249.03112 86.4617739,241.782121 84.770286,234.627525 C83.0673692,227.418576 80.6815713,220.521442 78.1014808,213.58998 C77.9929056,213.292468 77.8814731,212.997817 77.7700406,212.700304 C75.2213799,205.860385 72.6298604,199.031908 70.1526307,192.163381 C67.6811155,185.306297 65.3181755,178.403442 63.2323881,171.414767 C61.1523152,164.454698 59.3465376,157.408808 57.9836327,150.271376 C56.7495894,143.791904 55.8807018,137.235193 55.4978313,130.647014 C53.8209153,101.859849 62.9095197,73.3415895 80.2072689,50.3559121 C97.7793135,27.0097872 123.283065,10.9956215 151.986928,5.56602398 C181.279384,0.0248594321 212.75763,5.2627904 238.204236,20.9765833 C262.570805,36.0209738 280.782872,60.345456 289.457462,87.5649607 C293.783328,101.141815 295.737682,115.413818 294.974798,129.654354 C294.117625,145.725733 290.051768,161.410919 284.980162,176.62123 C274.671229,207.519587 260.507875,237.127772 256.510592,269.788317 C252.167583,305.260924 257.924928,341.068232 265.108037,375.771313 C270.188215,400.330372 275.608405,424.823635 281.031452,449.316899 C281.094311,449.600107 281.960056,453.504955 282.025773,453.802467 C284.254422,463.866389 286.477357,473.92745 288.674577,483.991372 M25.6510707,418.730357 C13.1277745,401.451764 7.32757117,380.700289 5.0189188,359.694212 C3.73601669,348.039744 3.43600617,336.302316 3.42717554,324.587774 C3.42171995,312.913281 3.50743724,301.215902 4.00174029,289.549992 C4.938916,267.522647 7.81901697,244.657119 18.6251101,225.069946 C27.46542,209.047198 41.5573426,194.829548 59.4436839,189.548707 C61.0923131,189.062389 62.7523713,188.647588 64.4324302,188.307166 C64.9695919,188.195598 65.5038963,188.507414 65.6867599,189.02806 C67.1468111,193.224699 68.6611499,197.398451 70.1926321,201.537876 C75.3156689,215.383636 80.4647065,229.266584 83.4159528,243.750279 C84.193123,247.563584 84.9131482,251.391193 85.5731713,255.230244 C86.8960749,262.902626 87.9875417,270.617918 88.8390001,278.356096 C89.6904585,286.097134 90.3047658,293.863919 90.6704929,301.642146 C90.8190695,304.74886 90.9933613,307.872738 90.9933613,310.985173 C91.5505237,336.408162 89.4818798,361.888364 84.7531426,386.873667 C82.3759164,399.432114 79.3272381,411.856109 75.6413946,424.094158 C73.307027,431.84664 70.755509,439.530464 68.2554214,447.228592 C68.0782723,447.774985 67.5125382,448.098243 66.958233,447.96379 C50.0776413,443.930212 35.7771399,432.693405 25.6510707,418.730357 M348.445244,327.989139 C347.868081,315.593751 347.142341,303.201224 346.299454,290.817279 C345.476568,278.673633 344.596538,266.521404 343.450783,254.403504 C342.447891,243.784607 340.942124,232.991208 336.256245,223.290594 C327.624514,205.422699 309.052434,196.411512 291.420388,189.691741 C289.663183,189.022339 287.880264,188.427315 286.088772,187.849454 C285.497323,187.657788 285.183026,187.011271 285.394462,186.424829 C290.251775,172.87086 294.58907,159.079454 296.912009,144.8475 C299.309236,130.175 299.360666,115.345162 296.546282,100.729875 C291.163236,72.7923362 276.036991,46.6255669 254.310515,28.2484678 C231.652578,9.08181707 202.1344,-0.618796749 172.576221,0.0305808203 C143.229478,0.677097696 114.782767,11.5906458 93.070577,31.4610273 C72.2669906,50.5018075 57.9379168,76.7915866 53.5434771,104.694797 C49.2718987,131.819899 55.3978278,158.432937 63.9895575,184.064756 C64.2009935,184.694109 63.8124085,185.372093 63.1580998,185.497964 C44.9774625,189.02806 29.805502,201.635139 19.6737183,216.808261 C7.19899523,235.482873 2.74169611,258.022282 1.12449656,280.092537 C0.253037442,291.990164 0.153033936,303.933562 0.0444587014,315.856935 C-0.0669737764,327.937646 -0.0298296172,340.035522 0.881630907,352.084766 C2.5416891,374.072061 7.22185317,396.3254 19.0251241,415.237449 C29.0969058,431.374625 44.0574302,445.143146 62.5437926,450.672868 C63.5638283,450.978962 64.5952931,451.250728 65.6324723,451.499608 C66.2553513,451.651225 66.6182211,452.297742 66.4239286,452.90993 C65.6581875,455.301471 64.9038753,457.698732 64.1724211,460.101716 C57.3121806,482.555304 52.3177198,505.861379 55.5006885,529.407752 C58.2036404,549.406865 66.0496298,568.685083 77.810042,585.059696 C89.5933123,601.462916 105.302434,615.219994 123.645935,623.790634 C142.669459,632.67595 164.02735,636.286146 184.93094,634.595476 C205.914533,632.896224 226.586686,626.027697 243.964438,614.032806 C260.605022,602.547119 273.982633,586.638799 282.957234,568.542048 C287.768831,558.838574 291.357528,548.525771 293.566177,537.921178 C295.914831,526.661486 296.774861,515.0156 295.814827,503.544217 C295.340525,497.908649 294.354776,492.344599 293.166163,486.820599 C291.974693,481.288016 290.294634,475.778319 289.374602,470.194244 C288.140273,464.558677 286.880228,458.931692 285.674472,453.290403 C285.554468,452.752592 285.854478,452.211921 286.368782,452.020255 C302.877932,445.852598 317.461301,434.961935 328.233107,420.993166 C334.073311,413.418048 338.724903,405.004746 341.985017,396.005003 C345.859439,385.314589 347.739505,373.991961 348.525247,362.675055 C349.328132,351.126433 348.982406,339.540622 348.445244,327.989139" id="Fill-1" fill="#231F20" mask="url(#mask-2)"></path>
                </g>
                <path d="M346.15127,351.482512 C345.686948,372.342323 341.882413,393.216362 330.088643,410.940515 C320.082511,425.978587 305.354808,438.159852 288.404166,445.020172 C287.553877,445.364469 286.694882,445.694538 285.832985,446.01038 C285.19164,446.24655 284.486452,445.870954 284.341351,445.216507 C280.777683,429.273589 277.211112,413.330672 273.650345,397.387755 C265.713347,361.874004 257.494854,325.862304 258.260984,289.287209 C258.635344,271.565901 261.464804,254.183199 266.650696,237.210238 C271.439013,221.546173 277.707356,206.374366 283.470748,191.04037 C283.499768,190.960698 283.531691,190.881026 283.560711,190.801354 C283.781263,190.215196 284.45453,189.924963 285.043638,190.166824 C301.532861,196.924709 319.742976,203.213098 330.280175,218.293852 C336.261219,226.855736 338.675691,237.164711 339.952576,247.322879 C341.386169,258.750106 342.097162,270.291151 342.941647,281.772441 C343.818054,293.689082 344.575478,305.614258 345.213921,317.545126 C345.814637,328.844309 346.403745,340.16341 346.15127,351.482512" id="Fill-4" fill="#F4F4F4"></path>
                <path d="M85.7639133,386.213448 C83.3773255,398.785938 80.3166413,411.223824 76.6162828,423.475558 C74.2727225,431.236708 71.7111565,438.929124 69.2012234,446.63586 C69.0233767,447.182863 68.4554147,447.506483 67.8989267,447.37188 C50.9518585,443.333791 36.5950412,432.08442 26.4290951,418.105759 C13.8564817,400.807846 8.03343692,380.033167 5.71569299,359.003602 C4.42773875,347.336102 4.12654678,335.58555 4.11768138,323.857909 C4.11220431,312.170362 4.19825916,300.459904 4.69450879,288.780949 C5.63537513,266.728974 8.52681805,243.837878 19.375466,224.228803 C28.2505894,208.18814 42.3980065,193.954592 60.3547849,188.667846 C62.0099065,188.180984 63.6765021,187.76572 65.3631771,187.424916 C65.9024542,187.313224 66.4388627,187.625389 66.6224464,188.146617 C68.0882473,192.347948 69.6085497,196.526368 71.146063,200.670421 C76.2892744,214.531662 81.4583023,228.430134 84.4214576,242.930024 C85.2016882,246.747593 85.924549,250.579482 86.5871713,254.422826 C87.9152845,262.103787 89.0110495,269.827706 89.865861,277.574536 C90.7206725,285.32423 91.337399,293.099699 91.7045663,300.886624 C91.853728,303.996812 92.0287062,307.124183 92.0287062,310.240098 C92.5880628,335.691514 90.5112724,361.200208 85.7639133,386.213448" id="Fill-6" fill="#F4F4F4"></path>
                <path d="M239.68575,315.220403 L239.708624,315.220403 C239.705765,315.635315 239.700046,316.05595 239.697187,316.479446 C239.700046,316.900081 239.705765,317.317855 239.708624,317.732767 L239.68861,317.732767 C239.57996,334.732715 240.389114,358.771861 242.124648,374.941985 C244.986707,401.56217 253.881677,426.974818 261.607234,452.604937 C269.12407,477.542582 275.199869,503.999663 272.655181,530.50539 C270.599417,551.880514 260.535034,572.139668 245.269767,587.159485 C229.04095,603.129306 207.182369,612.27454 184.551804,613.72244 C162.421599,615.138864 140.26852,608.992443 122.043982,596.353363 C104.8316,584.418204 91.2646978,567.323827 84.0194859,547.622658 C75.1130791,523.391794 76.3339573,496.94902 81.2832319,472.005652 C86.4240728,446.109417 95.0274045,421.166049 102.807287,395.996626 C108.5457,377.442903 112.488537,327.553306 112.72585,309.197024 C112.97746,289.596006 108.079651,257.719315 102.807287,238.959567 C95.6821612,213.598426 86.4240728,188.846776 81.2832319,162.950541 C76.3339573,138.007173 75.1130791,111.564398 84.0194859,87.3335346 C91.2646978,67.6323657 104.8316,50.5379892 122.043982,38.5999679 C140.26852,25.9637498 162.421599,19.8173285 184.551804,21.2337524 C207.182369,22.6816524 229.04095,31.8268863 245.269767,47.7967082 C260.535034,62.8165245 270.599417,83.0756785 272.655181,104.450803 C275.199869,130.956529 269.392835,160.040433 261.875999,184.978079 C254.150441,210.608198 244.986707,233.394023 242.124648,260.014208 C240.389114,276.178609 239.57996,298.395003 239.68575,315.220403 M285.907572,176.562518 C290.982651,161.348122 295.051292,145.658723 295.909052,129.583027 C296.672458,115.338667 294.716766,101.062831 290.387937,87.4823306 C281.707407,60.2555156 263.482869,35.9245005 239.099615,20.8760696 C213.635583,5.15805648 182.13578,-0.0812812354 152.823266,5.46137149 C124.099746,10.8924272 98.5785304,26.9108939 80.9944527,50.2632888 C63.6848582,73.2551394 54.5897441,101.781058 56.2680943,130.575955 C56.6512271,137.165903 57.5204238,143.724375 58.755598,150.205587 C60.1194362,157.344936 61.9264504,164.392718 64.0079477,171.354656 C66.0951634,178.345209 68.4597215,185.249917 70.9329292,192.108843 C73.4118553,198.979214 76.0051494,205.809525 78.5555554,212.651282 C78.6670642,212.948874 78.778573,213.243604 78.8872226,213.541197 C81.4690798,220.47452 83.8565115,227.373506 85.5605945,234.584391 C87.2532407,241.740909 88.5112885,248.991855 89.8093652,256.228493 C91.1846402,263.91152 92.2968688,271.64033 93.1517695,279.397754 C94.0066702,287.155179 94.6013837,294.941218 94.9473469,302.738703 C95.2904508,310.496128 95.3876636,318.262137 95.2389852,326.028146 C94.7643581,350.802688 91.7993681,375.545754 86.3726072,399.725111 C82.6556477,416.270087 77.2803524,432.291415 72.1480891,448.398587 C72.0480171,448.713348 70.829998,452.556292 70.7327852,452.86533 C68.8857423,458.742774 67.0930241,464.640248 65.4461251,470.583505 C59.3874811,492.482277 56.3138415,515.050631 61.1144377,537.501666 C65.2659956,556.930996 74.3210808,575.290138 87.1188583,590.47592 C100.125357,605.907786 117.031805,617.914483 136.094089,624.618889 C155.553801,631.466369 176.823387,633.043035 197.120846,629.451899 C217.421163,625.857903 236.803677,617.153334 252.426344,603.607171 C267.417128,590.607547 278.942561,573.693442 285.901853,555.122551 C292.512323,537.49022 295.231422,518.072336 292.918329,499.312588 C292.892596,499.112286 292.858286,498.914845 292.815398,498.720265 C291.746057,493.81858 290.676717,488.916895 289.604517,484.01521 C287.405792,473.948585 285.181335,463.884822 282.951159,453.818197 C282.885398,453.520605 282.01906,449.614709 281.956158,449.331424 C276.529397,424.831582 271.105495,400.331741 266.021838,375.766086 C258.83381,341.053685 253.072523,305.23676 257.418507,269.754626 C261.418527,237.085309 275.591579,207.469173 285.907572,176.562518" id="Fill-8" fill="#CCCCC4"></path>
                <path d="M266.504043,541.64429 C261.358185,562.187734 248.561136,580.810776 231.185164,593.037245 C212.40494,606.251104 188.761032,611.697492 165.991833,609.193241 C144.576838,606.837814 124.516909,596.941014 109.133987,582.015678 C93.236191,566.58663 83.1975973,546.501106 80.0163123,524.661176 C76.3028956,499.157883 81.4343716,473.196671 88.2514108,448.65215 C95.209393,423.592468 104.376441,399.657552 108.691023,373.421588 C110.442743,362.760634 113.785394,320.500325 114.265463,308.771844 C114.271215,308.611572 114.282721,307.97907 114.279845,307.810212 C114.044268,295.377679 112.312395,271.262458 109.818855,259.488185 C104.419587,234.004927 95.209393,209.594919 88.2514108,184.535237 C81.4343716,159.990716 76.3028956,134.029503 80.0163123,108.526211 C83.1975973,86.6862806 93.236191,66.6007567 109.133987,51.1717086 C124.516909,36.2463727 144.576838,26.3495728 165.991833,23.9941459 C188.761032,21.4898949 212.40494,26.936283 231.185164,40.1501423 C248.561136,52.3766111 261.358185,70.9996524 266.504043,91.5430965 C272.702659,116.273648 266.009305,147.712731 261.427219,165.737614 C259.042981,175.119254 253.577844,193.702227 250.68995,202.943629 C247.698219,212.508436 241.767108,228.495575 239.811164,241.529128 C236.460172,263.861323 234.843642,292.787568 235.03636,315.594855 C234.843642,338.467968 236.460172,369.326064 239.811164,391.658259 C241.767108,404.691812 246.570675,417.195895 249.728949,429.994764 C252.872841,442.747841 257.207558,455.752774 259.894392,467.581425 C265.379376,491.756749 272.702659,516.913739 266.504043,541.64429 M241.252522,374.0684 C239.506267,357.895232 238.692537,333.85156 238.801552,316.848412 L238.821686,316.848412 C238.81881,316.433421 238.813345,316.015569 238.810181,315.594855 C238.813345,315.171279 238.81881,314.750565 238.821686,314.335575 L238.798675,314.335575 C238.692537,297.507008 239.506267,275.286431 241.252522,259.118987 C244.131499,232.49379 253.350609,209.703675 261.122322,184.068731 C268.684345,159.126391 274.526289,130.037012 271.966304,103.526295 C269.898181,82.1471468 259.773296,61.8841788 244.416549,46.8615349 C228.089883,30.8887066 206.099898,21.741751 183.333288,20.2935784 C161.070046,18.8768879 138.783793,25.0244663 120.449697,37.6630633 C103.133842,49.603332 89.4853812,66.7009267 82.1966143,86.4058045 C73.2366661,110.64123 74.4648837,137.088983 79.4439111,162.037046 C84.6156565,187.938157 93.9294004,212.694466 101.097359,238.060382 C106.401418,256.823662 111.328958,288.706354 111.075549,308.311062 C110.837096,326.670799 106.870557,376.569789 101.097359,395.127004 C93.2707076,420.301166 84.6156565,445.24923 79.4439111,471.15034 C74.4648837,496.098404 73.2366661,522.546157 82.1966143,546.781582 C89.4853812,566.48646 103.133842,583.584055 120.449697,595.521462 C138.783793,608.162921 161.070046,614.310499 183.333288,612.893808 C206.099898,611.445636 228.089883,602.29868 244.416549,586.325852 C259.773296,571.303208 269.898181,551.04024 271.966304,529.661092 C274.526289,503.150375 268.413965,476.688313 260.851941,451.745973 C253.079941,426.111029 244.131499,400.693597 241.252522,374.0684" id="Fill-10" fill="#231F20"></path>
                <path d="M209.708653,399.589799 C210.943156,420.651785 212.614879,441.682309 214.698103,462.664211 C216.461271,480.422748 219.516094,498.861996 215.955467,516.586212 C212.737758,532.617232 203.044623,545.71948 188.947855,551.73719 C184.42706,553.667777 179.683367,554.668822 174.928244,554.820408 L174.928244,554.820408 L174.868234,554.820408 L174.868234,554.820408 C170.113111,554.668822 165.369419,553.667777 160.848623,551.73719 C146.751855,545.71948 137.05872,532.617232 133.841011,516.586212 C130.280384,498.861996 133.335208,480.422748 135.098375,462.664211 C137.181599,441.682309 138.853322,420.651785 140.087825,399.589799 C141.679534,372.404279 142.531112,345.184436 142.705429,317.953154 C142.531112,290.724731 141.679534,263.504889 140.087825,236.319369 C138.853322,215.257383 137.181599,194.226859 135.098375,173.244957 C133.335208,155.48642 130.280384,137.047172 133.841011,119.320096 C137.05872,103.291936 146.751855,90.1896881 160.848623,84.1719779 C165.369419,82.2413912 170.113111,81.2374861 174.868234,81.0887594 L174.868234,81.0887594 L174.928244,81.0887594 L174.928244,81.0887594 C179.683367,81.2374861 184.42706,82.2413912 188.947855,84.1719779 C203.044623,90.1896881 212.737758,103.291936 215.955467,119.320096 C219.516094,137.047172 216.461271,155.48642 214.698103,173.244957 C212.614879,194.226859 210.943156,215.257383 209.708653,236.319369 C208.116944,263.504889 207.265366,290.724731 207.09105,317.953154 C207.265366,345.184436 208.116944,372.404279 209.708653,399.589799 M250.055756,431.280022 C246.918061,418.489528 242.145792,405.993627 240.202593,392.968602 C236.873436,370.65102 235.267439,339.813115 235.458901,316.954969 C235.267439,294.162606 236.873436,265.255288 240.202593,242.937706 C242.145792,229.912681 248.038258,213.936004 251.01021,204.377455 C253.879287,195.1421 259.308814,176.571286 261.677802,167.195785 C266.230032,149.182697 272.879774,117.764186 266.721547,93.0498165 C261.609219,72.5198147 248.895552,53.9089592 231.632513,41.6904906 C212.974943,28.4852777 189.485093,23.0424534 166.863968,25.5450657 C145.588794,27.8989514 125.659571,37.7892754 110.37688,52.7048451 C94.5826711,68.1237974 84.6094868,88.1961785 81.4489304,110.021818 C77.7597094,135.508423 82.8577498,161.452648 89.6303707,185.981109 C96.5430162,211.024393 105.693199,235.418428 111.057,260.885012 C113.534579,272.65158 115.254882,296.751022 115.489209,309.17542 C115.492066,309.344167 115.480636,309.976256 115.474921,310.136423 C114.997694,321.857229 111.677109,364.089885 109.936803,374.743864 C105.650334,400.962661 96.5430162,424.881915 89.6303707,449.925199 C82.8577498,474.45366 77.7597094,500.397885 81.4489304,525.884489 C84.6094868,547.710129 94.5826711,567.78251 110.37688,583.201463 C125.659571,598.117032 145.588794,608.007356 166.863968,610.361242 C189.485093,612.863854 212.974943,607.42103 231.632513,594.215817 C248.895552,581.997349 261.609219,563.386493 266.721547,542.856491 C272.879774,518.142122 265.604208,493.001593 260.154677,468.842088 C257.485636,457.021178 253.179163,444.024754 250.055756,431.280022" id="Fill-12" fill="#F4F4F4"></path>
                <path d="M206.443096,532.395057 C199.49835,543.559348 187.613508,550.49939 175.405032,551.081551 C163.198831,550.49939 151.314557,543.559348 144.369528,532.395057 C135.360412,517.907002 135.775618,499.424121 137.237371,482.69059 C138.935165,463.267075 141.119262,443.912387 142.57817,424.460195 C145.257101,388.756259 146.747292,352.946215 147.074338,317.121832 L147.074338,317.032931 C146.909393,299.12074 146.457217,281.211416 145.708993,263.319299 C144.958494,245.424314 143.917636,227.546536 142.57817,209.694569 C141.119262,190.239508 138.935165,170.887688 137.237371,151.464174 C135.775618,134.730642 135.360412,116.247761 144.369528,101.759707 C151.314557,90.5954156 163.198831,83.6525057 175.405032,83.0732129 C187.613508,83.6525057 199.49835,90.5954156 206.443096,101.759707 C215.452495,116.247761 215.037289,134.730642 213.575537,151.464174 C211.877743,170.887688 209.693646,190.239508 208.234738,209.694569 C205.555806,245.398504 204.065615,281.208548 203.73857,317.032931 L203.73857,317.121832 C203.900671,335.034024 204.355691,352.943347 205.103346,370.835464 C205.85157,388.730449 206.895272,406.608227 208.234738,424.460195 C209.693646,443.912387 211.877743,463.267075 213.575537,482.69059 C215.037289,499.424121 215.452495,517.907002 206.443096,532.395057 M210.049131,398.931164 C208.465092,371.672858 207.617617,344.380138 207.443856,317.075948 C207.617617,289.774625 208.465092,262.481906 210.049131,235.2236 C211.277685,214.105223 212.941353,193.018393 215.014538,171.980315 C216.76921,154.174231 219.809313,135.685615 216.265559,117.911077 C213.063639,101.840005 203.417212,88.7026768 189.388371,82.6688551 C184.889359,80.7330995 180.168524,79.7265066 175.436315,79.5773817 L175.436315,79.5773817 L175.376593,79.5773817 L175.376593,79.5773817 C170.644383,79.7265066 165.923265,80.7330995 161.424537,82.6688551 C147.395696,88.7026768 137.749268,101.840005 134.546779,117.911077 C131.00331,135.685615 134.043698,154.174231 135.798369,171.980315 C137.871555,193.018393 139.534938,214.105223 140.763777,235.2236 C142.347816,262.481906 143.195291,289.774625 143.368768,317.075948 C143.195291,344.380138 142.347816,371.672858 140.763777,398.931164 C139.534938,420.04954 137.871555,441.136371 135.798369,462.174449 C134.043698,479.980532 131.00331,498.469148 134.546779,516.240818 C137.749268,532.314759 147.395696,545.452087 161.424537,551.485908 C165.923265,553.421664 170.644383,554.425389 175.376593,554.577382 L175.376593,554.577382 L175.436315,554.577382 L175.436315,554.577382 C180.168524,554.425389 184.889359,553.421664 189.388371,551.485908 C203.417212,545.452087 213.063639,532.314759 216.265559,516.240818 C219.809313,498.469148 216.76921,479.980532 215.014538,462.174449 C212.941353,441.136371 211.277685,420.04954 210.049131,398.931164" id="Fill-14" fill="#231F20"></path>
                <path d="M205.31294,533.478302 C198.364135,544.642394 186.472629,551.582313 174.256732,552.164463 C162.043681,551.582313 150.152175,544.642394 143.20337,533.478302 C134.188704,518.990505 134.604153,500.507954 136.06676,483.774721 C137.765546,464.351552 139.95092,444.997209 141.410681,425.545363 C144.091178,389.842063 145.582241,354.032658 145.909477,318.208913 L145.909477,318.120013 C145.744436,300.208141 145.291996,282.299136 144.543619,264.407338 C143.792397,246.512672 142.75093,228.635213 141.410681,210.783563 C139.95092,191.328849 137.765546,171.977374 136.06676,152.554205 C134.604153,135.820972 134.188704,117.338421 143.20337,102.850624 C150.152175,91.6865317 162.043681,84.7437455 174.256732,84.164463 C186.472629,84.7437455 198.364135,91.6865317 205.31294,102.850624 C214.327606,117.338421 213.912158,135.820972 212.449551,152.554205 C210.750764,171.977374 208.565391,191.328849 207.105629,210.783563 C204.425132,246.486863 202.93407,282.296269 202.606833,318.120013 L202.606833,318.208913 C202.769029,336.120785 203.224315,354.02979 203.972692,371.921588 C204.721068,389.816254 205.765381,407.693713 207.105629,425.545363 C208.565391,444.997209 210.750764,464.351552 212.449551,483.774721 C213.912158,500.507954 214.327606,518.990505 205.31294,533.478302 Z" id="Fill-16" fill="#DAC4FF"></path>
            </g>
        </g>
    </g>
</svg>