<?xml version="1.0" encoding="UTF-8"?>
<svg width="356.027443px" height="162.571126px" viewBox="0 0 356.027443 162.571126" version="1.1" xmlns="http://www.w3.org/2000/svg" xmlns:xlink="http://www.w3.org/1999/xlink">
    <title>Group 22</title>
    <defs>
        <polygon id="path-1" points="0 0 86 0 86 214 0 214"></polygon>
    </defs>
    <g id="PAGES" stroke="none" stroke-width="1" fill="none" fill-rule="evenodd">
        <g id="iPhone-14" transform="translate(0, -1315.0711)">
            <g id="Group-22" transform="translate(173.1808, 1396.3567) scale(1, -1) rotate(100) translate(-173.1808, -1396.3567)translate(121.7814, 1219.7524)">
                <g id="Group-3" transform="translate(16.7989, 139.2085)">
                    <mask id="mask-2" fill="white">
                        <use xlink:href="#path-1"></use>
                    </mask>
                    <g id="Clip-2"></g>
                    <path d="M73.2232573,179.073779 C72.7651504,176.019024 72.2961888,172.965978 71.8399476,169.910882 C71.2202059,165.760276 70.6662715,161.585928 69.7580293,157.486391 C68.8937152,153.584811 67.5785873,149.745061 65.439342,146.355026 C63.2863586,142.9433 60.2904315,140.330404 56.9888737,138.089853 C53.6791748,135.843664 50.1391504,133.967258 46.8099467,131.750276 C43.5245015,129.562501 40.3932285,127.119381 37.5216229,124.402127 C36.1556131,123.109514 34.8549017,121.747044 33.6342446,120.318986 C38.5570698,123.878454 43.9425812,126.643703 49.6377939,128.958212 C58.00736,132.35969 66.9028755,135.242107 73.9437452,141.151268 C80.200355,146.402338 84.7927869,154.765209 82.4718932,163.129788 C81.2780339,167.432747 77.978681,170.622605 75.5753585,174.24561 C74.6130119,175.696042 73.7634536,177.346993 73.2232573,179.073779 M77.2351266,191.938762 C78.3679276,193.407299 79.1772893,195.025969 79.7244394,196.799212 C80.8085634,200.312394 80.6589706,204.229004 79.2627709,207.636802 C78.8828526,208.564245 78.4210144,209.447792 77.8835318,210.282662 C76.7753237,203.094552 75.6808537,195.900976 74.6308206,188.703301 C75.4417087,189.818795 76.3848898,190.836591 77.2351266,191.938762 M20.5331693,102.578864 C12.03572,89.9825492 7.69684959,74.2838264 9.50230952,59.080423 C10.2283944,52.9661314 12.1390103,47.0954004 13.5552236,41.1285091 C18.0952472,45.316862 23.2980926,49.0039175 26.5818417,54.3052019 C28.4721048,57.3565405 29.34456,60.8437602 29.0898112,64.4363634 C28.8262429,68.1526256 27.515016,71.7453996 26.1473101,75.172327 C24.7019246,78.7936245 23.1062677,82.3664149 21.9938195,86.1122255 C20.8330334,90.0209792 20.3974842,94.112147 20.7283863,98.1805984 C20.8976534,100.259574 21.2473818,102.312758 21.7567098,104.323926 C21.3406653,103.748331 20.9307267,103.167953 20.5331693,102.578864 M82.2322394,170.034199 C84.7736214,166.409486 86.1540477,162.397227 85.986307,157.928592 C85.8261986,153.662013 84.3747072,149.448552 82.0933318,145.867563 C77.2851605,138.320261 69.0899498,133.784502 61.0880903,130.426065 C52.644067,126.88214 43.844888,124.12099 36.2828179,118.78008 C33.1473047,116.565661 30.2361808,114.049438 27.5738694,111.288459 C26.4322489,109.0187 25.5000922,106.637751 24.820649,104.151931 C23.7634925,100.28451 23.3333707,96.1711387 23.7957177,92.1761311 C24.2463618,88.2810415 25.5455467,84.593132 26.9939852,80.9759337 C29.8018188,73.9637475 33.2645027,66.6275541 31.5920142,58.8857112 C30.0798037,51.886335 24.4809275,46.908887 19.3296424,42.4409348 C17.6210278,40.9589049 15.8886682,39.4816573 14.2597685,37.9024423 C14.6844629,35.7462655 15.0082415,33.5701051 15.1505412,31.357906 C15.7265245,22.4068004 13.396472,13.2078643 8.73602789,5.57106329 C7.59762986,3.70558778 6.30081947,1.98068051 4.86917201,0.334853553 C4.10509526,-0.543569863 2.64546275,0.736062304 3.33236859,1.67119126 C8.62323965,8.87569799 11.9273416,17.3405365 12.3586506,26.3305845 C12.5046817,29.3762866 12.2897904,32.3700657 11.8238817,35.3421532 C11.7406049,35.2461637 11.6568194,35.1508574 11.5745603,35.0538431 C9.15241156,32.1927755 7.12341042,28.9574855 5.60102354,25.524751 C2.58966225,18.734263 1.57880822,14.1768117 2.3785023,6.77298155 C2.57795941,4.92612321 2.89546255,3.08063128 3.28793172,1.26588331 C3.58525171,-0.10905515 1.50078928,-0.515046295 1.20262127,0.809847822 C-2.0073491,15.0721443 1.17277054,28.2484955 11.1737804,38.7945297 C11.0754087,39.2445872 10.9738145,39.6946447 10.8661144,40.1443606 C9.71516553,44.9528876 8.2099089,49.6773811 7.29691775,54.5424429 C4.4940027,69.4807649 7.48382398,85.150281 14.6807315,98.4239881 C17.4353088,103.504599 20.8388,108.242244 24.7802827,112.46322 C26.2017538,115.339318 27.9403888,118.06033 29.927158,120.564255 C34.876781,126.801352 41.1474681,131.800662 47.8791453,135.958613 C51.3265646,138.087803 54.9500354,139.981802 58.1065797,142.551144 C61.2383616,145.100331 63.562817,148.295995 65.0908009,152.045563 C66.5918174,155.728349 67.4981939,159.635394 68.1896791,163.545173 C68.9893732,168.068464 69.6964622,172.609689 70.4342499,177.14357 C71.9844522,186.670613 73.5799395,196.190311 75.1330251,205.717183 C75.5015798,207.978572 75.8952362,210.235009 76.2600595,212.49691 C75.8460503,213.507021 77.2334305,214.568541 78.1274258,213.647589 C83.4094773,208.206248 84.3874277,199.266928 80.8569013,192.622645 C78.8855663,188.912873 74.6986632,186.382986 75.3840425,181.677622 C76.059924,177.037845 79.6688086,173.690169 82.2322394,170.034199" id="Fill-1" fill="#ACC4DA" mask="url(#mask-2)"></path>
                </g>
                <path d="M37.1433433,126.790785 C37.1313647,128.666685 36.9123292,130.5255 36.2518,132.297184 C35.6203615,133.988569 34.5645415,135.322884 33.2315047,136.329173 C32.7078728,136.727246 32.1397492,137.074066 31.5391126,137.373048 C30.4798702,137.900965 29.3162437,138.276829 28.0995695,138.516014 C26.7049289,138.78937 25.2743528,138.927756 23.8335094,138.977301 C23.1900923,139 22.5432529,139.004637 21.8964134,138.996094 C20.0174989,138.975593 18.1351618,138.845749 16.3041613,138.721031 C15.2654535,138.649275 14.213056,138.546767 13.1675033,138.389588 C12.4932845,138.288788 11.822488,138.165778 11.1585364,138.012016 C8.71149827,137.446512 6.38424523,136.48806 4.47623999,134.827428 C2.77015817,133.344476 2.17807762,131.454908 1.7776532,129.257815 C1.4131643,127.269156 1.57059613,123.214957 1.57059613,123.214957 C1.56546248,122.871555 1.40631944,111.83313 1.33444839,103.509464 C1.31733624,101.517388 1.30535773,99.6807827 1.3019353,98.1824545 C1.30022408,97.8612622 1.30022408,97.5383613 1.30022408,97.217169 C1.2796895,86.2863779 1.37551756,75.3590038 1.58257463,64.4316296 C1.5894195,64.0831018 1.59626436,63.7328654 1.60482043,63.3843375 C1.60310922,63.3826291 1.60310922,63.3826291 1.60482043,63.3809206 C1.6561569,60.6644533 1.71776066,57.947986 1.78620927,55.2332272 L1.78620927,55.2315187 C1.99155513,47.0957845 2.26534961,38.9651758 2.60074784,30.8345671 C2.98577132,21.4977785 2.70342076,10.3107169 10.472339,3.51613175 C13.617553,0.767203522 17.8374104,-0.695246799 22.0247546,0.326418262 C26.181297,1.33954097 29.5985943,4.35328205 31.7940837,7.85052015 C32.1089474,8.35281033 32.399854,8.8670598 32.6650924,9.39156009 C32.9115074,9.45819042 33.1185645,9.64441365 33.1955692,9.97414836 C33.289686,10.3790557 33.3820917,10.7839631 33.4744973,11.1888705 C33.4762085,11.1922875 33.4779197,11.1974129 33.4779197,11.2008298 C34.5354509,13.8609176 35.0950183,16.712354 35.4030371,19.5569566 L35.4030371,19.5586651 C35.4834643,20.2950156 35.5467792,21.0296577 35.5964045,21.7608829 C35.7709485,24.2774592 35.8445307,26.8025779 35.8838887,29.3276965 C35.9283803,32.1552144 35.9283803,34.9844407 35.9728719,37.8068331 C36.0413205,42.2112688 36.1080579,46.6157045 36.1782177,51.0201401 C36.2055972,52.7969489 36.2329766,54.5720493 36.2603561,56.3505665 L36.2603561,56.352275 C36.3407832,61.4161801 36.4212103,66.4817936 36.5016375,71.5474072 C36.5991767,77.6910653 36.696716,83.8347234 36.7942553,89.9783816 L36.7942553,89.98009 C36.8250572,91.9277458 36.8558591,93.8736932 36.8883722,95.8196405 C36.9379974,98.9768931 36.9893339,102.132437 37.0406703,105.287981 C37.1245199,110.343344 37.2117919,115.398707 37.2887966,120.454069 C37.3418443,120.679587 37.1347872,126.7737 37.1433433,126.790785" id="Fill-4" fill="#F4F4F4"></path>
                <path d="M33.4195667,10.4164233 C33.3244293,10.0495031 33.0686153,9.84227877 32.7641756,9.76813429 C33.1341544,10.4221267 33.4660783,11.0894271 33.7641756,11.7681343 C33.6500107,11.3175639 33.5358457,10.8669936 33.4195667,10.4164233" id="Fill-6" fill="#231F20"></path>
                <path d="M24.162007,139.391514 C23.5252462,139.414005 22.8850984,139.418599 22.2449506,139.410135 C21.4608542,133.014619 20.2669278,126.691894 18.695348,120.408105 C14.7545439,104.647846 8.98813323,89.4292929 4.58838726,73.8010749 C3.71961525,70.7150435 2.90164862,67.6120839 2.16327709,64.4905031 C2.16158357,64.4888102 2.16158357,64.4888102 2.16327709,64.4871174 C2.21408247,61.7955157 2.27504892,59.103914 2.34278943,56.4140052 C5.1811167,71.3363126 10.1939143,85.7304566 14.7714791,100.187235 C17.1932022,107.832061 19.4997665,115.520901 21.2999705,123.338396 C22.5159126,128.61495 23.5506489,133.986304 24.162007,139.391514" id="Fill-8" fill="#CCCCC4"></path>
                <path d="M13.4087986,139.027122 C12.7268664,138.926745 12.0487409,138.80425 11.3773638,138.651132 C10.898056,136.349252 10.3668375,134.052476 9.78370846,131.762505 C7.42523694,122.483531 4.4265347,113.391702 1.44340565,104.293067 C1.42610211,102.309333 1.41398964,100.480419 1.41052893,98.9883654 C1.40879858,98.6685181 1.40879858,98.3469695 1.40879858,98.0271222 C2.85537392,102.503283 4.33655633,106.969236 5.77621026,111.440293 C8.2488851,119.121732 10.6056263,126.850808 12.4465491,134.705781 C12.7824107,136.13999 13.1042564,137.581004 13.4087986,139.027122" id="Fill-10" fill="#CCCCC4"></path>
                <path d="M37.361833,96.2827831 C37.3276693,96.2268026 37.2986302,96.1640366 37.2764239,96.0944851 C35.2727273,89.9044012 33.270739,83.7143174 31.2670424,77.5225372 C27.7362319,66.6080402 24.003856,55.7325599 20.7805181,44.7247622 C17.6904183,34.1665046 15.3963309,23.1247793 16.7680004,12.0932322 C16.9029468,11.0177285 18.6179607,11.0075502 18.4830144,12.0932322 C17.7143328,18.305369 18.0918409,24.5819681 19.1782441,30.7330352 C21.1153216,41.7001199 24.9382311,52.2770377 28.3563017,62.8505626 C31.3336615,72.0601996 34.2990641,81.2715329 37.267883,90.4828662 L37.267883,90.4845626 C37.2986302,92.4184337 37.3293775,94.3506084 37.361833,96.2827831" id="Fill-12" fill="#CCCCC4"></path>
                <path d="M36.815273,56.7737531 C35.6455334,53.5375442 34.5370973,50.2792045 33.4916218,46.9987339 C29.7355314,35.1995947 26.8774564,23.0855167 24.8295836,10.853975 C24.6473295,9.76786175 26.2627632,9.30651898 26.4450173,10.396037 C27.0298871,13.8688755 27.6793743,17.3314998 28.3984494,20.7771005 C30.5689295,31.1649734 33.3690145,41.4149543 36.735744,51.4623529 C36.7622537,53.2328196 36.7887634,55.001584 36.815273,56.7737531" id="Fill-14" fill="#CCCCC4"></path>
                <path d="M37.4828155,127.606753 C37.470771,129.471028 37.2505293,131.318324 36.5863629,133.079028 C35.9514473,134.759932 34.8898135,136.085978 33.5494362,137.086031 C33.0229209,137.481637 32.451669,137.826307 31.8477249,138.123437 C30.7826498,138.648082 29.6126158,139.021617 28.3892419,139.25932 C26.9869217,139.530981 25.548468,139.66851 24.0996906,139.717748 C23.4527305,139.740307 22.8023293,139.744915 22.151928,139.736425 C20.2626671,139.716051 18.3699649,139.587012 16.5288819,139.463066 C15.4844545,139.391755 14.4262619,139.289882 13.3749519,139.133677 C12.6970204,139.033502 12.0225301,138.911254 11.3549225,138.758445 C8.89440967,138.196446 6.55434154,137.243934 4.63582981,135.593592 C2.9203534,134.11983 2.32501254,132.241972 1.92238317,130.058495 C1.55588721,128.08216 1.71418593,124.053084 1.71418593,124.053084 C1.70902402,123.71181 1.54900465,112.741791 1.47673784,104.469708 C1.45953146,102.489977 1.44748699,100.664753 1.44404572,99.17571 C1.44232508,98.8565081 1.44232508,98.5356083 1.44232508,98.2164064 C1.42167742,87.3533541 1.51803316,76.4936976 1.7262304,65.6340411 C1.73311295,65.287673 1.73999551,64.9396071 1.7485987,64.5932391 C1.74687806,64.5915412 1.74687806,64.5915412 1.7485987,64.5898433 C1.80021785,61.8902101 1.86216083,59.190577 1.93098636,56.4926417 L1.93098636,56.4909438 C2.13746296,48.4056273 2.41276509,40.3254044 2.7500102,32.2451816 C3.13715383,22.9662537 2.8532485,11.848519 10.6649465,5.0960403 C13.8274797,2.36414735 18.0705739,0.91075992 22.2809758,1.92609366 C26.4604063,2.93293799 29.8965211,5.92800273 32.1041,9.40356822 C32.4206975,9.90274567 32.713206,10.4138083 32.979905,10.9350582 C33.2276769,11.0012757 33.4358741,11.1863448 33.5133028,11.5140362 C33.6079379,11.9164343 33.7008524,12.3188325 33.7937669,12.7212306 C33.7954875,12.7246264 33.7972082,12.72972 33.7972082,12.7331158 C34.8605626,15.3767189 35.4232114,18.2104848 35.7329263,21.0374592 L35.7329263,21.039157 C35.8137963,21.7709444 35.8774599,22.5010339 35.9273584,23.2277276 C36.1028635,25.7287085 36.176851,28.2381789 36.2164256,30.7476492 C36.2611622,33.5576448 36.2611622,36.3693382 36.3058988,39.1742401 C36.3747244,43.5513812 36.4418293,47.9285223 36.5123754,52.3056634 C36.5399057,54.0714612 36.5674359,55.8355611 36.5949661,57.6030568 L36.5949661,57.6047547 C36.6758361,62.6372784 36.7567061,67.6715001 36.8375761,72.7057217 C36.9356525,78.8113072 37.0337289,84.9168927 37.1318052,91.0224782 L37.1318052,91.0241761 C37.1627767,92.9597621 37.1937482,94.8936503 37.2264403,96.8275385 C37.2763389,99.9652254 37.327958,103.101214 37.3795772,106.237203 C37.4638884,111.261238 37.551641,116.285272 37.6290697,121.309306 C37.6824095,121.533427 37.4742123,127.589774 37.4828155,127.606753 M38.7337195,82.3649753 C38.5995097,74.2202329 38.4652999,66.0754905 38.3276489,57.9307481 L38.3276489,57.9290503 C38.3242076,57.7270022 38.3207663,57.5232563 38.317325,57.3212083 L38.317325,57.3195104 C38.2639853,54.1223977 38.2106455,50.9269828 38.155585,47.72987 C38.0661118,42.4511533 37.9766387,37.1724366 37.8871655,31.8937199 C37.8785623,31.4217086 37.8716797,30.9513951 37.8630765,30.4793838 C37.8613559,30.389396 37.8596352,30.2994082 37.8579146,30.2094205 L37.8579146,30.2077226 C37.7701621,25.1463348 37.6789682,20.0085424 36.3265465,15.086381 C35.1169378,10.6854695 32.7975173,6.56301078 29.0981449,3.64604864 C25.6792365,0.9515091 21.343228,-0.500180443 16.9315113,0.335177751 C12.6109885,1.15185924 8.97527967,4.01448914 6.50444303,7.4255351 C3.59140235,11.4478188 2.43169211,16.3530013 1.89657359,21.1563109 C1.28230571,26.6574502 1.24445167,32.2366922 1.04485762,37.7616018 C0.910647834,41.4782666 0.788482513,45.1932336 0.681802937,48.9098984 L0.681802937,48.9115963 C0.621580595,50.9439616 0.566520169,52.976327 0.516621657,55.0086923 C0.485650168,56.227772 0.456399316,57.4468516 0.428869103,58.6659313 L0.428869103,58.6676291 C0.191421014,68.9941506 0.0451667561,79.3223698 0.00903335121,89.6505891 C0.00559207456,90.9953121 0.00215079791,92.340035 0.000430159581,93.684758 C-0.00129047874,95.7782471 0.00215079791,97.8734341 0.0107539895,99.9669232 C0.0348429261,107.69908 0.120874842,115.429539 0.265408462,123.159998 C0.292938675,126.267123 0.294659313,132.848116 2.54353361,135.308348 C5.01781152,138.014772 8.17174157,139.493628 11.6525929,140.232207 C12.3150387,140.373131 12.9878082,140.486889 13.6709017,140.576877 C13.7035938,140.581971 13.7345653,140.587064 13.7672574,140.59046 C16.1881955,140.90287 18.6383845,140.997952 21.0782497,141.069263 C21.4894822,141.081148 21.9024354,141.091335 22.3153886,141.094731 C22.9589073,141.103221 23.6024261,141.101523 24.2459448,141.081148 C25.2662833,141.052284 26.2849012,140.982671 27.2983572,140.853632 C31.2248539,140.352757 35.020582,138.783913 37.0991131,135.369471 C38.5083159,133.050164 38.9591231,130.364114 38.9711676,127.661085 C39.0623614,127.538837 38.9247104,93.9105763 38.7337195,82.3649753" id="Fill-16" fill="#231F20"></path>
                <path d="M36.4848359,29.865386 C35.1549614,23.5558087 33.8266532,17.2479427 32.5077435,10.9366541 C32.3511034,10.1888143 33.0309215,9.74045268 33.5382788,9.89618133 C33.7639972,9.96292218 33.9535317,10.1494543 34.0240198,10.4797359 C34.1101718,10.885315 34.1947575,11.290894 34.2793432,11.696473 C34.2809096,11.6998956 34.2823193,11.7050295 34.2823193,11.7084521 C34.8714428,14.4978774 35.4588432,17.289014 36.0445206,20.0784392 L36.0445206,20.0801505 C36.1182981,20.8177225 36.1762549,21.5535832 36.2216806,22.2860212 C36.3814535,24.8067718 36.4488087,27.3360789 36.4848359,29.865386" id="Fill-18" fill="#CCCCC4"></path>
                <path d="M33.8099891,136.457833 C33.2840196,136.854384 32.7137182,137.199877 32.1105973,137.497715 C32.0985693,137.448359 32.0899778,137.397301 32.0865412,137.342839 C31.4473363,128.211961 29.8304226,117.658267 27.5897686,108.779275 C23.5913009,92.9325649 17.7387951,77.6321754 13.2763883,61.9199177 C11.0357343,54.0331541 9.13014737,46.0357647 7.99435572,37.9141341 C6.86371896,29.8299461 6.31558351,21.4564292 7.38608002,13.3365006 C7.52869833,12.2489645 9.24183641,12.1876949 9.15764005,13.3365006 C8.81913634,17.9980987 8.64558875,22.6341678 8.87068513,27.3059775 C9.09062663,31.8824789 9.61642427,36.4419609 10.3724732,40.9605965 C13.0890943,57.2106654 18.606533,72.795278 23.6084838,88.4496699 C26.0656427,96.1339034 28.4059577,103.864089 30.2325031,111.723622 C31.9937534,119.304037 33.5058512,128.560858 33.8099891,136.457833" id="Fill-20" fill="#CCCCC4"></path>
            </g>
        </g>
    </g>
</svg>