<?xml version="1.0" encoding="UTF-8"?>
<svg width="324px" height="343px" viewBox="0 0 324 343" version="1.1" xmlns="http://www.w3.org/2000/svg" xmlns:xlink="http://www.w3.org/1999/xlink">
    <title>3</title>
    <defs>
        <path d="M1.34273883,176.390985 C2.2602627,160.562201 3.06309609,144.735711 4.21000093,128.908074 C5.35690577,113.997408 8.33885836,99.5460872 14.6468923,85.7829247 C21.0695594,71.7903761 30.4741791,60.0916879 42.1726085,50.1133951 C65.4547767,30.1568094 92.062969,16.3936469 121.768034,8.70921444 C140.691964,3.89210755 159.845274,0.680702959 179.342657,0.107237509 C206.868373,-0.810306317 233.361875,4.12149359 258.24971,16.3936469 C283.137545,28.6658001 300.341117,47.9342277 309.860428,73.8548505 C315.365571,88.8796363 319.8385,104.133808 322.476381,119.960872 C324.999571,134.985657 324.311429,150.01159 320.985404,164.80699 C315.824333,187.516208 307.222546,209.078496 296.21226,229.608547 C289.330831,242.454165 281.761259,254.955704 272.356639,266.19562 C265.245829,274.681757 257.332186,282.252643 248.615709,289.018385 C234.852851,299.799529 219.599017,308.286812 204.230492,316.430017 C189.6648,324.115596 174.640347,330.651951 158.69837,334.7809 C148.376226,337.41884 138.054082,339.713847 127.617248,341.777175 C117.180414,343.841649 106.972732,343.154638 96.5358979,340.746084 C83.1171113,337.648226 70.730539,332.48704 59.2614906,325.031993 C44.1223467,315.053701 32.4239173,301.750457 23.5927501,286.037513 C18.3169878,276.517992 14.0734399,266.654393 10.9767395,256.217328 C10.4032871,254.496932 9.94452513,252.661844 9.14169174,251.056142 C1.91619125,235.916663 -0.492305473,219.744947 0.0811464887,203.114459 C0.310527916,194.168403 0.769289852,185.337041 1.34273883,176.390985 C1.22804835,176.390985 1.22804835,176.390985 1.34273883,176.390985 Z" id="path-1"></path>
    </defs>
    <g id="Landing-Page" stroke="none" stroke-width="1" fill="none" fill-rule="evenodd">
        <g id="MacBook-Pro-14&quot;" transform="translate(-1114.000000, -2584.000000)">
            <g id="Group-6" transform="translate(-166.911727, 1479.702229)">
                <g id="3" transform="translate(1280.911727, 1104.297771)">
                    <path d="M1.34273883,176.390985 C2.2602627,160.562201 3.06309609,144.735711 4.21000093,128.908074 C5.35690577,113.997408 8.33885836,99.5460872 14.6468923,85.7829247 C21.0695594,71.7903761 30.4741791,60.0916879 42.1726085,50.1133951 C65.4547767,30.1568094 92.062969,16.3936469 121.768034,8.70921444 C140.691964,3.89210755 159.845274,0.680702959 179.342657,0.107237509 C206.868373,-0.810306317 233.361875,4.12149359 258.24971,16.3936469 C283.137545,28.6658001 300.341117,47.9342277 309.860428,73.8548505 C315.365571,88.8796363 319.8385,104.133808 322.476381,119.960872 C324.999571,134.985657 324.311429,150.01159 320.985404,164.80699 C315.824333,187.516208 307.222546,209.078496 296.21226,229.608547 C289.330831,242.454165 281.761259,254.955704 272.356639,266.19562 C265.245829,274.681757 257.332186,282.252643 248.615709,289.018385 C234.852851,299.799529 219.599017,308.286812 204.230492,316.430017 C189.6648,324.115596 174.640347,330.651951 158.69837,334.7809 C148.376226,337.41884 138.054082,339.713847 127.617248,341.777175 C117.180414,343.841649 106.972732,343.154638 96.5358979,340.746084 C83.1171113,337.648226 70.730539,332.48704 59.2614906,325.031993 C44.1223467,315.053701 32.4239173,301.750457 23.5927501,286.037513 C18.3169878,276.517992 14.0734399,266.654393 10.9767395,256.217328 C10.4032871,254.496932 9.94452513,252.661844 9.14169174,251.056142 C1.91619125,235.916663 -0.492305473,219.744947 0.0811464887,203.114459 C0.310527916,194.168403 0.769289852,185.337041 1.34273883,176.390985 C1.22804835,176.390985 1.22804835,176.390985 1.34273883,176.390985 Z" id="Path" fill="#FDD5E7" fill-rule="nonzero"></path>
                    <g id="Clipped">
                        <mask id="mask-2" fill="white">
                            <use xlink:href="#path-1"></use>
                        </mask>
                        <g id="Path"></g>
                        <path d="M125.173194,54.2823717 L125.173194,54.283404 C125.072267,55.0323494 124.971339,55.7842768 124.864677,56.5362043 C124.923169,57.0620718 124.966751,57.6028494 125.010334,58.1471825 C125.138787,59.7395804 125.268387,61.3620278 125.782201,62.7296274 C126.814415,66.055725 129.911058,67.2026552 133.007701,65.4822599 C134.383987,64.7941018 135.645582,63.7618646 136.677797,62.6149344 C141.150726,57.9125205 144.362059,52.4072555 146.311797,46.2138324 C147.344012,43.1171208 147.688083,39.9057162 147.229321,36.6943116 C147.114631,35.7767674 146.88525,34.7445303 146.541178,33.8269861 C145.050202,30.1568094 141.609487,28.7804931 138.054082,30.7302745 C136.792487,31.3037396 135.760273,32.2212838 134.728058,33.138828 C130.599201,37.0383907 127.731939,41.6261115 126.355653,47.1313765 C125.828077,49.4147999 125.503503,51.8327582 125.173194,54.2821423 L125.173194,54.2823717 Z M197.234372,84.9800735 C198.037206,76.836869 200.675087,69.4965157 205.377397,62.9590135 C206.753682,61.1239251 208.129968,59.2888368 209.735635,57.6831345 C211.111921,56.3068182 212.717588,54.815809 214.437945,54.0129578 C217.99335,52.1778695 221.663445,53.7835718 222.81035,57.4537484 C223.383803,59.1741438 223.613184,61.1239251 223.383803,62.8443204 C222.122207,73.2813854 217.763969,82.342134 210.653159,90.0265665 C209.850325,90.8294176 208.932802,91.6322688 207.900587,92.2057339 C203.542349,94.8436734 198.840039,92.893892 197.693134,87.9620921 C197.580737,87.4603101 197.524539,86.9585281 197.468341,86.4699359 L197.468341,86.4694771 C197.408702,85.9531291 197.351357,85.4514618 197.234372,84.9800735 Z M172.231847,275.600448 C172.117156,271.126273 173.03468,266.998472 175.32849,263.212455 C176.934157,260.459822 178.769204,257.82303 180.833633,255.299783 C181.865847,254.037013 183.242133,253.005923 184.618419,252.088379 C187.829753,250.252144 190.926396,251.056142 193.105515,253.923467 C194.711182,256.217328 195.514015,258.85412 195.743396,261.6079 C196.431539,271.012727 193.793658,279.384171 188.059134,286.724524 C186.912229,288.216681 185.191871,289.59185 183.471514,290.510541 C179.916109,292.459175 176.475395,291.198699 174.984418,287.413829 C174.181585,285.233515 173.493442,283.055495 173.03468,280.876327 C172.442877,279.495423 172.3603,277.947067 172.275429,276.373479 C172.268548,276.248464 172.261666,276.123448 172.254785,275.997286 L172.244463,275.80919 L172.237581,275.694496 L172.231847,275.600448 Z M238.064185,107.803985 C232.100279,116.062456 228.430184,125.237897 228.200803,135.560269 C228.200803,136.019041 228.200803,136.36312 228.086112,136.592507 C227.971422,140.033297 229.577089,141.638999 233.017803,141.409613 C235.311613,141.29492 237.261351,140.492069 239.096399,139.115753 C246.780661,133.266409 251.482971,125.581976 253.203328,116.062456 C253.776781,113.194557 253.776781,110.212538 252.400495,107.459906 C250.221376,103.101571 245.633756,101.725255 241.61959,104.477887 C240.243304,105.280738 238.981708,106.542362 238.064185,107.803985 Z M153.573999,93.2911886 L153.573999,93.2913033 C153.334296,94.5729978 153.107209,95.7890879 152.734464,96.9081477 C150.670036,103.330957 147.458702,109.065608 143.100464,114.112101 C141.494797,116.062456 139.545059,117.552318 137.136559,118.471009 C131.516725,120.64903 126.699725,117.324079 126.699725,111.244775 C126.699725,108.492143 127.617248,106.083589 128.764153,103.560343 C129.566987,101.839948 130.25513,100.234245 130.943272,98.51385 C132.893011,93.6967431 135.416201,89.2237153 139.315678,85.7829247 C140.806654,84.4066084 142.756392,83.2596782 144.59144,82.5715201 C148.146845,81.3098969 151.472869,83.0302922 152.849155,86.5857758 C153.265481,87.6692808 153.500597,88.8133437 153.729978,89.9299949 L153.729978,89.9309125 C153.815996,90.3504596 153.902014,90.7663365 153.99606,91.1734967 C153.835493,91.8950305 153.703599,92.602457 153.573999,93.2910739 L153.573999,93.2911886 Z M281.99064,87.732706 C284.39914,82.6862131 285.431354,77.1809481 285.660735,71.6756831 C285.660735,68.3495855 285.431354,65.1381809 284.055069,61.9267763 C281.875949,57.4537484 277.861782,56.6508973 274.191687,59.8623019 C272.930092,60.8945391 271.897877,62.1561623 271.095044,63.4177855 C266.507425,70.4140598 264.672377,78.3278783 264.442996,86.5857758 C264.442996,87.388627 264.557686,88.7649432 265.131139,89.1090223 C266.42026,90.0021369 266.680607,91.238757 266.95013,92.5215984 C266.991418,92.7213937 267.033854,92.9223359 267.080877,93.123278 C267.539639,94.8436734 268.571853,96.3346826 270.406901,96.3346826 C273.388854,96.4493757 276.370806,95.9906036 278.320544,93.4673571 C279.69683,91.7469618 281.073116,89.7971804 281.99064,87.732706 Z M133.466463,227.429379 C133.466463,220.777184 135.18682,214.583761 138.398154,208.73327 C139.659749,206.325863 141.494797,204.146696 143.329845,202.196915 C145.050202,200.361826 147.229321,199.329589 149.752512,200.247133 C152.390393,201.049984 153.307917,203.229152 153.766679,205.637705 C154.454822,208.963803 154.225441,212.175207 153.766679,215.501305 C152.963845,221.694728 151.128798,227.658765 147.458702,232.934644 C146.311797,234.65504 144.820821,236.259595 143.100464,237.406525 C139.315678,240.045612 135.416201,238.439909 134.154606,234.081575 C133.925225,233.278723 133.810535,232.475872 133.695844,231.671874 C133.639646,230.942427 133.610973,230.240505 133.582301,229.552347 L133.582301,229.5512 L133.582301,229.5512 C133.553628,228.833222 133.524955,228.131301 133.466463,227.429379 Z M94.4712398,167.099703 C91.7186682,172.375582 90.4570729,177.880847 90.4570729,184.647735 C90.562244,185.489582 90.6433302,186.524113 90.7333622,187.673337 C90.839795,189.031303 90.9589584,190.550985 91.1452158,192.102782 C91.2599063,193.135019 91.6039777,194.281949 92.0627396,195.199493 C93.4390255,198.182659 96.5356685,199.213749 99.4029306,197.608047 C100.779216,196.805196 102.155502,195.658266 103.073026,194.396642 C107.890026,187.85914 110.527908,180.518787 110.642598,172.375582 C110.757289,169.164178 109.954455,166.067466 108.004717,163.31598 C105.366836,159.644657 101.237978,159.185885 98.0266448,162.282596 C96.650359,163.658913 95.3887637,165.379308 94.4712398,167.099703 Z M82.5435442,243.601095 C82.5144128,243.921089 82.4926216,244.249111 82.4708304,244.57828 C82.4066037,245.546289 82.3414595,246.529208 82.0847822,247.385965 C81.8165212,248.313832 81.5519302,249.246286 81.2871099,250.179887 C80.0799926,254.433851 78.8666819,258.709607 77.2677819,262.75483 C76.5475257,264.674791 75.3807794,266.4273 74.1957973,268.208483 C73.682328,268.97922 73.1655327,269.755692 72.6801625,270.553955 C72.2214006,271.356806 71.5332577,271.930272 70.8451148,272.503737 C68.8953766,274.224132 66.7162574,275.485755 64.0783762,274.338825 C61.4404951,273.306588 60.7523522,270.783341 60.6376617,268.260095 C60.4082807,264.589918 61.2111141,261.034435 62.2433285,257.477804 C62.8167809,255.643863 63.2755428,253.808774 63.6196143,251.858993 C64.8812096,246.353728 67.1750193,241.536621 71.4185672,237.637058 C73.4829959,235.80197 75.6621151,234.196268 78.5293772,235.457891 C81.3966393,236.719514 82.1994727,239.357454 82.3141632,242.224779 C82.3666914,242.487426 82.3952494,242.701902 82.4216282,242.901468 C82.4529387,243.137735 82.4813819,243.352211 82.5435442,243.601095 Z M60.637547,128.677541 C60.7083111,128.300201 60.7742581,127.927449 60.8394023,127.560431 C61.0905744,126.139385 61.329016,124.791742 61.7844519,123.516355 C62.7019757,120.763723 63.7341901,118.012237 64.8810949,115.258458 C66.6965306,110.666837 70.0036307,107.268024 73.3207089,103.85866 C73.5660318,103.606564 73.8114695,103.354354 74.0563337,103.101571 C75.8913814,101.266483 78.2998816,100.463631 80.8230722,101.381176 C83.4609533,102.29872 84.4931677,104.59258 84.8372392,107.115827 C84.9519296,108.148064 84.9519296,109.294994 84.8372392,110.441924 C84.1490962,116.176002 82.3140485,121.451881 79.4467864,126.498374 C77.8411196,129.365699 75.8913814,131.888946 73.2535003,133.724034 C71.9919049,134.641578 70.5009286,135.559122 68.8952619,136.017894 C65.7986188,137.050132 62.7019757,135.559122 61.4403804,132.577104 C61.104452,131.653825 60.9530605,130.668612 60.8060273,129.712072 L60.8060273,129.712072 L60.8060273,129.712072 L60.8059127,129.712072 L60.8059127,129.712072 L60.8059127,129.712072 L60.8059127,129.712072 L60.8059127,129.712072 C60.7521228,129.362258 60.6989064,129.015886 60.637547,128.677541 Z M168.21768,161.938517 C175.32849,156.089173 179.227966,148.404741 179.801419,138.311755 C179.730311,137.957353 179.669525,137.53643 179.604151,137.074217 C179.4562,136.040833 179.279577,134.797561 178.883895,133.609341 C177.622299,129.939164 174.066894,128.677541 170.62618,130.512629 C169.593966,131.086095 168.561751,131.888946 167.758918,132.691797 C161.795013,138.88522 157.895536,146.225573 156.633941,154.712857 C156.289869,157.236103 156.40456,159.529964 158.927751,161.479745 C162.368465,164.232378 164.776965,164.69115 168.21768,161.938517 Z M260.543519,233.852188 C260.468971,234.203149 260.395569,234.563285 260.319873,234.930303 C259.927632,236.841089 259.496395,238.942265 258.823162,240.963156 C257.102805,245.894956 254.464924,250.138598 250.680138,253.923467 C248.959781,255.643863 246.895352,256.905486 244.486852,257.708337 C242.078351,258.511188 239.784542,257.82303 237.490732,257.134872 C236.114446,256.790793 235.885065,255.41333 236.114446,254.152853 C236.240606,253.471577 236.361031,252.785712 236.481456,252.097554 C236.911545,249.650005 237.347369,247.163461 238.064185,244.748026 C239.784542,239.357454 242.766494,234.424507 245.863137,229.72324 C246.780661,228.346923 248.042257,226.970607 249.418542,226.053063 C253.432709,223.185738 257.905638,224.790293 259.511305,229.378014 C260.123752,230.604082 260.282025,231.830151 260.471264,233.299368 C260.494202,233.479436 260.518288,233.664092 260.543519,233.852188 Z M50.6595896,203.229152 C55.017828,197.265115 57.1969472,190.498226 57.6557091,182.928487 C57.5847157,182.537384 57.5164749,182.141693 57.4475459,181.741414 C57.0711317,179.557659 56.6753349,177.261505 55.7059709,175.129362 C54.1003041,171.000413 50.0861372,170.197562 46.9894941,173.408966 C45.2691369,175.244055 43.7781606,177.423222 42.6312557,179.717082 C40.337446,184.534189 38.8464698,189.580682 37.9289459,194.856561 C37.5848744,196.806343 37.4701839,198.870817 37.5848744,200.820598 C37.5848744,202.082222 37.9289459,203.343845 38.5023983,204.490775 C40.1080651,208.046259 43.7781606,209.078496 46.9894941,206.899329 C48.3657799,205.981784 49.6273753,204.605468 50.6595896,203.229152 Z M284.743212,160.678041 C284.28445,166.183306 282.793473,171.229799 279.811521,175.81752 C278.435235,177.881994 276.714878,179.717082 274.076997,180.175855 C273.54598,180.281372 273.01611,180.681651 272.576845,181.013114 L272.47133,181.093399 C272.241949,181.265438 272.069913,181.466151 271.897877,181.666864 C271.725842,181.867577 271.553806,182.068289 271.324425,182.240329 C269.948139,183.387259 268.342472,183.731338 266.736806,182.92734 C265.245829,182.240329 264.328305,180.864013 264.442996,179.143617 C264.538189,177.958838 264.617325,176.770619 264.697609,175.582399 L264.697609,175.582399 L264.697609,175.581252 L264.697609,175.581252 C265.095585,169.639007 265.493561,163.697908 267.88371,158.154795 C268.801234,155.975627 269.948139,153.79646 271.324425,151.961371 C275.109211,147.029571 280.843735,147.947116 283.137545,153.79646 C283.816512,155.325318 284.119295,157.105353 284.416344,158.857863 L284.416344,158.85901 C284.520712,159.472617 284.623933,160.082784 284.743212,160.678041 Z M75.4326195,78.4425713 C80.4790008,73.2813854 82.8875009,66.8585762 83.4609533,58.8300647 C83.4109483,58.5795751 83.3608285,58.2908928 83.3060065,57.9746841 C83.1095417,56.8425493 82.8519469,55.3577335 82.3140485,54.0129578 C80.7083817,50.4574742 77.1529767,49.53993 73.8269527,51.6044044 C73.1388098,52.0631765 72.4506669,52.6366416 71.8772145,53.2101067 C67.6336665,58.0272136 64.192952,63.3030925 62.2432138,69.3818227 C61.5550709,71.6756831 61.3256899,73.9695435 61.8991423,76.3780969 C62.9313567,80.8511248 67.1749046,83.0302922 71.4184525,81.1952038 C72.9094288,80.6217387 74.2857146,79.5895015 75.4326195,78.4425713 Z M233.132494,189.351296 C232.673732,198.412045 229.691779,205.178933 223.613184,210.453665 C220.28716,213.436831 216.846445,213.207445 213.979183,209.766654 C213.17635,208.84911 212.832278,207.358101 212.832278,206.21117 C213.061659,197.723887 215.470159,190.039454 220.860612,183.272566 C221.219593,182.733509 221.718497,182.335524 222.248367,181.913454 C222.395171,181.79532 222.545415,181.676039 222.69566,181.552171 C225.906993,179.25831 229.577089,179.946469 231.297446,183.387259 C232.155331,185.198262 232.617533,187.168688 232.945548,188.572531 C233.013216,188.856969 233.074002,189.118469 233.132494,189.351296 Z M107.66076,287.757908 C102.040926,293.49256 99.7471168,300.603527 98.7149024,308.287959 L98.7149024,309.089663 C98.8295929,313.103919 101.582165,314.825461 105.25226,313.219759 C112.707141,309.893662 116.606962,303.929624 117.983248,296.130499 C118.327319,293.951332 118.44201,291.657471 118.097938,289.59185 C117.180414,284.430664 113.280594,283.055495 109.266427,286.266899 C108.692975,286.725671 108.234213,287.184443 107.66076,287.757908 Z" id="Shape" fill="#EE8DB9" mask="url(#mask-2)"></path>
                    </g>
                </g>
            </g>
        </g>
    </g>
</svg>