<?xml version="1.0" encoding="UTF-8"?>
<svg width="341.523885px" height="570.256373px" viewBox="0 0 341.523885 570.256373" version="1.1" xmlns="http://www.w3.org/2000/svg" xmlns:xlink="http://www.w3.org/1999/xlink">
    <title>Group 22</title>
    <defs>
        <polygon id="path-1" points="0 0 142 0 142 352 0 352"></polygon>
    </defs>
    <g id="PAGES" stroke="none" stroke-width="1" fill="none" fill-rule="evenodd">
        <g id="MacBook-Pro-14&quot;" transform="translate(0, -1406.8634)">
            <g id="Group-22" transform="translate(101.8172, 1691.9916) scale(-1, -1) rotate(216) translate(-101.8172, -1691.9916)translate(16.603, 1401.4655)">
                <g id="Group-3" transform="translate(28.4284, 229.0521)">
                    <mask id="mask-2" fill="white">
                        <use xlink:href="#path-1"></use>
                    </mask>
                    <g id="Clip-2"></g>
                    <path d="M120.903518,294.551263 C120.147109,289.52662 119.372777,284.504786 118.619448,279.479581 C117.596154,272.652416 116.681518,265.7862 115.181862,259.043036 C113.754739,252.625484 111.583249,246.309633 108.051007,240.733501 C104.49608,235.12169 99.5493171,230.823843 94.0979077,227.138449 C88.633056,223.443784 82.7878995,220.357358 77.2908423,216.710734 C71.8660374,213.112152 66.6957959,209.093561 61.9543075,204.624059 C59.698803,202.497892 57.5511168,200.256819 55.5356132,197.907866 C63.663999,203.762691 72.5563551,208.311138 81.9600783,212.11818 C95.7795944,217.713135 110.467539,222.454307 122.093161,232.174049 C132.423842,240.811322 140.006695,254.567072 136.174521,268.325632 C134.203265,275.403397 128.755496,280.650265 124.78722,286.609602 C123.198229,288.995359 121.79547,291.710942 120.903518,294.551263 M127.527767,315.712357 C129.398206,318.127894 130.734594,320.790379 131.638028,323.707116 C133.428093,329.485806 133.181091,335.928082 130.875738,341.533431 C130.248431,343.058945 129.485861,344.512256 128.59839,345.8855 C126.768558,334.062066 124.96141,322.229643 123.227634,310.390477 C124.566542,312.225308 126.123888,313.89944 127.527767,315.712357 M33.9036052,168.727852 C19.8729331,148.008679 12.7087517,122.186481 15.6898599,97.1790135 C16.8887443,87.1218611 20.0434822,77.4653315 22.3818808,67.6506318 C29.8781989,74.5398852 38.4689435,80.6045745 43.8909479,89.3244443 C47.01208,94.3434685 48.4526456,100.079456 48.0320139,105.988785 C47.5968197,112.101515 45.4317706,118.011125 43.1734656,123.64794 C40.7868987,129.604467 38.1522095,135.481206 36.3153764,141.642539 C34.3987296,148.071891 33.679567,154.801288 34.2259401,161.493321 C34.5054278,164.912944 35.0828862,168.290144 35.9238696,171.598233 C35.2369125,170.65146 34.5600371,169.69682 33.9036052,168.727852 M135.778814,279.682421 C139.975049,273.720275 142.254358,267.120673 141.977391,259.770394 C141.713026,252.752469 139.316377,245.821918 135.549455,239.931693 C127.610381,227.517439 114.078754,220.056751 100.866382,214.532593 C86.9239246,208.703333 72.3950476,204.161629 59.9088388,195.37658 C54.7315961,191.734171 49.9248566,187.595337 45.5289472,183.053914 C43.6439458,179.320479 42.1048034,175.404151 40.9829321,171.315325 C39.2373945,164.953961 38.5271934,158.188041 39.2906036,151.616814 C40.0346905,145.209937 42.1798562,139.143843 44.5714639,133.194059 C49.2076544,121.659996 54.9251091,109.592986 52.1635583,96.8587399 C49.6666526,85.3457474 40.4219965,77.1585431 31.9163864,69.8093881 C29.0951854,67.3716566 26.2347777,64.9417915 23.5451992,62.3442042 C24.2464387,58.7975956 24.7810499,55.2181169 25.0160099,51.5793594 C25.9670521,36.8560456 22.1197561,21.7250853 14.4246042,9.16361812 C12.5449237,6.09517242 10.4036787,3.25794178 8.03979564,0.550787153 C6.77818055,-0.894096224 4.36808965,1.2107193 5.50228302,2.74887534 C14.2383724,14.5992789 19.6939826,28.5227517 20.406144,43.3101202 C20.6472651,48.3198734 20.2924446,53.2442202 19.5231534,58.1328874 C19.38565,57.9749982 19.2473064,57.8182327 19.1114833,57.6586578 C15.1121214,52.9526027 11.7619102,47.6310042 9.24820167,41.9846371 C4.27595395,30.8152363 2.60686938,23.3188678 3.9272945,11.1406052 C4.25663065,8.10278211 4.78088003,5.06720659 5.42891051,2.08220059 C5.91983421,-0.179380433 2.47804742,-0.847178953 1.98572348,1.33208614 C-3.31446014,24.7915644 1.93643508,46.464815 18.4497304,63.8115629 C18.2873027,64.5518444 18.1195541,65.2921258 17.9417238,66.0318455 C16.0413198,73.9411983 13.5558961,81.7123278 12.0483991,89.7146724 C7.42033003,114.286118 12.3570117,140.060275 24.2402777,161.893663 C28.7885331,170.250556 34.4082512,178.043318 40.9162808,184.986231 C43.2633609,189.717009 46.1341304,194.192692 49.4146096,198.311298 C57.587243,208.570447 67.9411682,216.793612 79.0562633,223.632858 C84.7485137,227.135078 90.7314538,230.250441 95.9434223,234.476647 C101.114504,238.669703 104.952558,243.926123 107.475508,250.093637 C109.953931,256.151303 111.450506,262.577845 112.592261,269.008882 C113.912686,276.449063 115.080205,283.918742 116.298413,291.37634 C118.858049,307.04699 121.492458,322.705558 124.056855,338.375927 C124.665399,342.095596 125.31539,345.807117 125.917773,349.527628 C125.234176,351.189118 127.524967,352.935171 129.001098,351.420333 C137.722625,342.470091 139.337381,327.766162 133.507907,316.837247 C130.252912,310.735193 123.339653,306.573884 124.471326,298.83422 C125.587316,291.202437 131.546172,285.695979 135.778814,279.682421" id="Fill-1" fill="#ACC4DA" mask="url(#mask-2)"></path>
                </g>
                <path d="M61.5791974,208.885537 C61.5595659,211.976049 61.2005909,215.038414 60.118057,217.95723 C59.0831995,220.743757 57.3528279,222.942017 55.1681286,224.59986 C54.3099541,225.255679 53.3788627,225.827058 52.394486,226.319626 C50.6585055,227.18936 48.7514509,227.808588 46.7574571,228.202642 C44.4717961,228.65299 42.1272407,228.880979 39.7658585,228.962604 C38.7113695,229 37.6512715,229.007639 36.5911735,228.993566 C33.5118413,228.959789 30.4269001,228.745874 27.4260936,228.540403 C25.7237669,228.422187 23.9990044,228.253306 22.2854597,227.994356 C21.1804899,227.828291 20.081129,227.625634 18.9929861,227.372314 C14.9825625,226.440657 11.1684534,224.861625 8.04144478,222.125762 C5.24536624,219.682625 4.27501201,216.569596 3.61876088,212.949926 C3.02140408,209.673646 3.27941734,202.994426 3.27941734,202.994426 C3.27100387,202.428676 3.01018611,184.24307 2.89239744,170.52998 C2.86435252,167.248071 2.84472108,164.222297 2.83911209,161.753828 C2.8363076,161.224669 2.8363076,160.692696 2.8363076,160.163537 C2.8026537,142.155256 2.95970525,124.152603 3.29904879,106.149951 C3.31026675,105.575758 3.32148472,104.998749 3.33550718,104.424556 C3.33270269,104.421741 3.33270269,104.421741 3.33550718,104.418927 C3.41964194,99.9435957 3.52060365,95.4682647 3.63278334,90.9957483 L3.63278334,90.9929337 C3.96932238,77.589458 4.4180411,64.1944263 4.96772153,50.7993947 C5.59873224,35.4172035 5.13599106,16.9867207 17.8683848,5.79276383 C23.0230411,1.263954 29.9389184,-1.1454066 36.8015104,0.537768216 C43.6136215,2.20686966 49.2141921,7.17195389 52.8123553,12.9335907 C53.3283819,13.7611048 53.8051455,14.6083215 54.2398418,15.4724263 C54.6436886,15.5821986 54.9830321,15.888998 55.1092343,16.43223 C55.2634813,17.0993077 55.4149239,17.7663853 55.5663665,18.433463 C55.569171,18.4390923 55.5719755,18.4475363 55.5719755,18.4531657 C57.3051515,22.8356125 58.2222204,27.5333027 58.727029,32.2197342 L58.727029,32.2225489 C58.8588401,33.4356732 58.9626063,34.6459829 59.0439366,35.8506632 C59.3299948,39.9966774 59.4505879,44.156765 59.5150912,48.3168526 C59.588008,52.9751374 59.588008,57.6362368 59.6609248,62.2860776 C59.7731045,69.5423062 59.8824797,76.7985347 59.9974639,84.0547632 C60.0423357,86.9820238 60.0872076,89.9064697 60.1320795,92.8365449 L60.1320795,92.8393596 C60.2638906,101.182052 60.3957017,109.527559 60.5275129,117.873067 C60.6873689,127.994633 60.8472249,138.116199 61.007081,148.237765 L61.007081,148.24058 C61.0575618,151.449308 61.1080427,154.655221 61.1613281,157.861134 C61.2426583,163.062651 61.3267931,168.261353 61.4109278,173.460055 C61.548348,181.788675 61.691377,190.117294 61.8175792,198.445913 C61.9045184,198.81745 61.5651749,208.857391 61.5791974,208.885537" id="Fill-4" fill="#F4F4F4"></path>
                <path d="M55.5173715,17.0085423 C55.3270967,16.458162 54.8154688,16.1473255 54.2065893,16.0361088 C54.946547,17.0170974 55.6103948,18.018048 56.2065893,19.0361088 C55.9782595,18.3602533 55.7499297,17.6843978 55.5173715,17.0085423" id="Fill-6" fill="#231F20"></path>
                <path d="M40.4208724,229.717797 C39.3789002,229.75492 38.3313856,229.762504 37.2838711,229.748533 C36.0008043,219.192078 34.0471064,208.755773 31.4754304,198.383735 C25.026842,172.369814 15.5908972,147.250034 8.39131289,121.454059 C6.96968597,116.360249 5.63119512,111.238496 4.42295079,106.086007 C4.42017959,106.083213 4.42017959,106.083213 4.42295079,106.080419 C4.50608687,101.637655 4.60585016,97.1948903 4.71669826,92.7549203 C9.3612338,117.385717 17.5639935,141.144726 25.054554,165.00712 C29.0173737,177.625688 32.7917517,190.316905 35.73754,203.22048 C37.7272635,211.929975 39.4204683,220.795944 40.4208724,229.717797" id="Fill-8" fill="#CCCCC4"></path>
                <path d="M22.4057795,229.106773 C21.2692258,228.940293 20.1390167,228.737131 19.0200549,228.483178 C18.2212085,224.665427 17.3358444,220.85614 16.3639626,217.05814 C12.4331767,201.668622 7.43533967,186.58949 2.46345791,171.499071 C2.43461869,168.208976 2.41443123,165.175655 2.40866339,162.70103 C2.40577947,162.170551 2.40577947,161.637251 2.40577947,161.106773 C4.81673837,168.530649 7.28537572,175.937596 9.68479893,183.353007 C13.8059237,196.092955 17.7338256,208.91191 20.8020304,221.93967 C21.3617997,224.318358 21.8982092,226.708333 22.4057795,229.106773" id="Fill-10" fill="#CCCCC4"></path>
                <path d="M61.2176631,159.177532 C61.1623505,159.085329 61.1153349,158.981949 61.0793817,158.867394 C57.8353016,148.671962 54.5939871,138.47653 51.349907,128.278303 C45.6333566,110.301485 39.5904623,92.3889291 34.3717247,74.2584387 C29.368706,56.8683674 25.6544693,38.6819962 27.8752676,20.5123893 C28.0937521,18.7409714 30.8704413,18.7242072 30.6519568,20.5123893 C29.4074248,30.744144 30.0186283,41.082072 31.7775668,51.2132414 C34.9137875,69.276675 41.1032601,86.6974806 46.6372791,104.112698 C51.4577664,119.281512 56.2588944,134.45312 61.0655536,149.624728 L61.0655536,149.627522 C61.1153349,152.812721 61.1651162,155.995126 61.2176631,159.177532" id="Fill-12" fill="#CCCCC4"></path>
                <path d="M61.4391515,93.383216 C59.4895854,88.0813419 57.642192,82.7432108 55.8997328,77.3688229 C49.6395821,58.0383182 44.8761238,38.19185 41.4630024,18.1529412 C41.1592457,16.3735642 43.8516351,15.6177474 44.1553919,17.4027023 C45.1301749,23.0922464 46.2126536,28.7650564 47.4111121,34.4099766 C51.0285789,51.4284068 55.6953873,68.2209286 61.3066031,84.6815604 C61.3507859,87.5821123 61.3949687,90.4798751 61.4391515,93.383216" id="Fill-14" fill="#CCCCC4"></path>
                <path d="M61.5102613,210.3943 C61.490496,213.461759 61.1290737,216.501282 60.0391596,219.398327 C58.9972469,222.16407 57.2550786,224.345933 55.0554851,225.99141 C54.19146,226.642337 53.2540209,227.209454 52.2629332,227.698348 C50.5151176,228.561595 48.5950617,229.176204 46.5874739,229.567319 C44.2862304,230.014308 41.9256911,230.240596 39.5482101,230.321612 C38.4865322,230.358729 37.419207,230.366311 36.3518818,230.352343 C33.2515562,230.318819 30.1455835,230.106499 27.124319,229.90256 C25.4103868,229.785226 23.6738657,229.617605 21.948639,229.360587 C20.836136,229.19576 19.7292802,228.994615 18.6337189,228.743184 C14.5959543,227.818476 10.7558425,226.251222 7.60751559,223.535766 C4.79237481,221.110853 3.81540519,218.021044 3.15468007,214.428372 C2.5532508,211.17653 2.81302307,204.54713 2.81302307,204.54713 C2.80455223,203.9856 2.54195635,185.93564 2.42336467,172.324836 C2.39512855,169.067406 2.37536327,166.064201 2.36971605,163.614145 C2.36689243,163.088933 2.36689243,162.560928 2.36689243,162.035716 C2.33300909,144.161758 2.49113134,126.293387 2.83278835,108.425016 C2.8440828,107.855105 2.85537724,107.282401 2.8694953,106.712491 C2.86667169,106.709697 2.86667169,106.709697 2.8694953,106.706903 C2.95420365,102.264954 3.05585367,97.8230039 3.16879813,93.3838479 L3.16879813,93.3810543 C3.50763152,80.0775548 3.95940938,66.7824363 4.51283726,53.4873179 C5.14814987,38.219862 4.68225396,19.9268518 17.5014507,8.81639038 C22.6912488,4.32136084 29.6542751,1.9299716 36.5636527,3.60059165 C43.4222053,5.25724331 49.0609577,10.1852931 52.6836514,15.903954 C53.2031959,16.7252957 53.6832099,17.5661931 54.1208697,18.4238525 C54.5274697,18.532806 54.8691267,18.837317 54.9961893,19.3764971 C55.1514879,20.038599 55.3039629,20.7007009 55.456438,21.3628028 C55.4592616,21.3683902 55.4620852,21.3767712 55.4620852,21.3823586 C57.2070772,25.7321168 58.1303982,30.3947671 58.6386482,35.0462427 L58.6386482,35.0490364 C58.771358,36.253112 58.8758316,37.454394 58.9577164,38.6500886 C59.2457247,42.7651778 59.36714,46.8942354 59.4320831,51.023293 C59.505497,55.6468318 59.505497,60.2731642 59.5789109,64.8883219 C59.6918554,72.0904265 59.8019762,79.292531 59.9177443,86.4946355 C59.9629221,89.4000617 60.0080999,92.3026941 60.0532777,95.210914 L60.0532777,95.2137077 C60.1859874,103.494172 60.3186972,111.777431 60.4514069,120.060689 C60.6123528,130.106759 60.7732986,140.152828 60.9342445,150.198898 L60.9342445,150.201692 C60.9850695,153.386486 61.0358945,156.568486 61.0895431,159.750487 C61.1714279,164.913206 61.2561362,170.073131 61.3408446,175.233056 C61.4792015,183.499552 61.6232057,191.766048 61.7502682,200.032544 C61.8378002,200.40131 61.4961432,210.366363 61.5102613,210.3943 M63.5630269,135.953929 C63.3427852,122.552651 63.1225435,109.151372 62.8966546,95.7500941 L62.8966546,95.7473004 C62.8910073,95.4148526 62.8853601,95.0796111 62.8797129,94.7471633 L62.8797129,94.7443696 C62.7921809,89.483872 62.704649,84.2261681 62.6142934,78.9656705 C62.4674656,70.2801225 62.3206378,61.5945744 62.17381,52.9090263 C62.1596919,52.1323836 62.1483975,51.3585345 62.1342794,50.5818917 C62.1314558,50.4338267 62.1286322,50.2857617 62.1258086,50.1376967 L62.1258086,50.1349031 C61.9818044,41.8069459 61.832153,33.3532732 59.6127943,25.2543977 C57.6277953,18.0131817 53.8215668,11.2301291 47.7508019,6.4305885 C42.1402856,1.9970199 35.0247843,-0.391575663 27.7850442,0.982914413 C20.6949554,2.32667402 14.7286641,7.03681685 10.6739578,12.649318 C5.89358334,19.2675436 3.99046911,27.3384823 3.1123259,35.2418002 C2.10429655,44.2933202 2.0421771,53.4733495 1.71463815,62.563981 C1.49439645,68.6793444 1.29392002,74.7919141 1.1188561,80.9072774 L1.1188561,80.9100711 C1.02002969,84.2541049 0.929674123,87.5981387 0.847789386,90.9421725 C0.796964377,92.948034 0.74896298,94.9538955 0.703785194,96.9597571 L0.703785194,96.9625508 C0.314126792,113.953707 0.0741198048,130.947656 0.014823961,147.941605 C0.00917673774,150.154199 0.00352951451,152.366793 0.000705902903,154.579387 C-0.00211770871,158.023993 0.00352951451,161.471393 0.0176475726,164.915999 C0.0571781351,177.638413 0.198358716,190.358034 0.435542091,203.077655 C0.480719877,208.190087 0.483543489,219.018387 4.17400387,223.066428 C8.23435736,227.519552 13.4100374,229.952847 19.1222037,231.168097 C20.2092942,231.399972 21.3133263,231.587149 22.4343002,231.735214 C22.4879488,231.743595 22.5387738,231.751976 22.5924224,231.757563 C26.5652439,232.2716 30.5860669,232.428046 34.5899481,232.545381 C35.2647913,232.564937 35.9424581,232.581699 36.6201249,232.587286 C37.6761556,232.601254 38.7321864,232.598461 39.7882171,232.564937 C41.4626188,232.517444 43.1341969,232.402903 44.7973041,232.190584 C51.2407858,231.366448 57.469673,228.785089 60.8805959,223.167 C63.1931338,219.350835 63.93292,214.931235 63.9526853,210.483698 C64.1023367,210.282553 63.8764478,154.950946 63.5630269,135.953929" id="Fill-16" fill="#231F20"></path>
                <path d="M60.2801701,48.9617191 C57.9528896,38.5509166 55.6283504,28.1429377 53.3202583,17.7293115 C53.0461381,16.4953759 54.2358197,15.7555792 55.1236951,16.0125315 C55.5187023,16.1226539 55.8503877,16.4304319 55.9737418,16.9753966 C56.1245079,17.644602 56.2725328,18.3138073 56.4205577,18.9830127 C56.4232989,18.98866 56.425766,18.997131 56.425766,19.0027783 C57.4567321,23.60533 58.4846828,28.2107053 59.5096182,32.813257 L59.5096182,32.8160807 C59.6387288,34.0330744 59.7401533,35.2472445 59.8196482,36.4557673 C60.0992508,40.6150057 60.2171225,44.7883624 60.2801701,48.9617191" id="Fill-18" fill="#CCCCC4"></path>
                <path d="M55.6874458,225.307953 C54.8303103,225.961468 53.9009302,226.53084 52.9180667,227.021678 C52.8984654,226.940339 52.8844645,226.856196 52.8788641,226.766442 C51.8371968,211.718756 49.2022263,194.326267 45.5507902,179.693689 C39.0347687,153.578311 29.4973519,128.363269 22.2252815,102.469468 C18.5738453,89.4720815 15.4684445,76.2923838 13.6175248,62.9079366 C11.7750056,49.5851947 10.8817478,35.7856389 12.6262607,22.4039965 C12.8586757,20.6117371 15.6504563,20.5107648 15.5132474,22.4039965 C14.9616117,30.0863102 14.6787934,37.726552 15.0456171,45.4256945 C15.4040403,52.9677687 16.2608957,60.4817952 17.4929754,67.9285067 C21.9200618,94.7086202 30.9114433,120.392062 39.0627705,146.1905 C43.0670295,158.854116 46.8808762,171.593462 49.8574687,184.545972 C52.7276543,197.038497 55.1918137,212.293738 55.6874458,225.307953" id="Fill-20" fill="#CCCCC4"></path>
            </g>
        </g>
    </g>
</svg>